<?xml version="1.0" encoding="utf-8" standalone="no"?>
<!DOCTYPE svg PUBLIC "-//W3C//DTD SVG 1.1//EN"
  "http://www.w3.org/Graphics/SVG/1.1/DTD/svg11.dtd">
<svg xmlns:xlink="http://www.w3.org/1999/xlink" width="387.311562pt" height="288.236131pt" viewBox="0 0 387.311562 288.236131" xmlns="http://www.w3.org/2000/svg" version="1.1">
 <metadata>
  <rdf:RDF xmlns:dc="http://purl.org/dc/elements/1.1/" xmlns:cc="http://creativecommons.org/ns#" xmlns:rdf="http://www.w3.org/1999/02/22-rdf-syntax-ns#">
   <cc:Work>
    <dc:type rdf:resource="http://purl.org/dc/dcmitype/StillImage"/>
    <dc:date>2024-11-04T22:14:10.382567</dc:date>
    <dc:format>image/svg+xml</dc:format>
    <dc:creator>
     <cc:Agent>
      <dc:title>Matplotlib v3.7.1, https://matplotlib.org/</dc:title>
     </cc:Agent>
    </dc:creator>
   </cc:Work>
  </rdf:RDF>
 </metadata>
 <defs>
  <style type="text/css">*{stroke-linejoin: round; stroke-linecap: butt}</style>
 </defs>
 <g id="figure_1">
  <g id="patch_1">
   <path d="M 0 288.236131 
L 387.311562 288.236131 
L 387.311562 0 
L 0 0 
z
" style="fill: #ffffff"/>
  </g>
  <g id="axes_1">
   <g id="patch_2">
    <path d="M 49.521563 76.010248 
L 184.371562 76.010248 
L 184.371562 10.786719 
L 49.521563 10.786719 
z
" style="fill: #ffffff"/>
   </g>
   <g id="matplotlib.axis_1">
    <g id="xtick_1">
     <g id="line2d_1">
      <defs>
       <path id="m6582f74339" d="M 0 0 
L 0 -3.5 
" style="stroke: #000000; stroke-width: 0.8"/>
      </defs>
      <g>
       <use xlink:href="#m6582f74339" x="49.521563" y="76.010248" style="stroke: #000000; stroke-width: 0.8"/>
      </g>
     </g>
    </g>
    <g id="xtick_2">
     <g id="line2d_2">
      <g>
       <use xlink:href="#m6582f74339" x="83.234063" y="76.010248" style="stroke: #000000; stroke-width: 0.8"/>
      </g>
     </g>
    </g>
    <g id="xtick_3">
     <g id="line2d_3">
      <g>
       <use xlink:href="#m6582f74339" x="116.946563" y="76.010248" style="stroke: #000000; stroke-width: 0.8"/>
      </g>
     </g>
    </g>
    <g id="xtick_4">
     <g id="line2d_4">
      <g>
       <use xlink:href="#m6582f74339" x="150.659063" y="76.010248" style="stroke: #000000; stroke-width: 0.8"/>
      </g>
     </g>
    </g>
    <g id="xtick_5">
     <g id="line2d_5">
      <g>
       <use xlink:href="#m6582f74339" x="184.371562" y="76.010248" style="stroke: #000000; stroke-width: 0.8"/>
      </g>
     </g>
    </g>
   </g>
   <g id="matplotlib.axis_2">
    <g id="ytick_1">
     <g id="line2d_6">
      <defs>
       <path id="mfa36e381a7" d="M 0 0 
L 3.5 0 
" style="stroke: #000000; stroke-width: 0.8"/>
      </defs>
      <g>
       <use xlink:href="#mfa36e381a7" x="49.521563" y="61.516131" style="stroke: #000000; stroke-width: 0.8"/>
      </g>
     </g>
     <g id="text_1">
      <!-- −1 -->
      <g transform="translate(34.62 65.102849) scale(0.1 -0.1)">
       <defs>
        <path id="Helvetica-2212" d="M 3547 1894 
L 3547 1369 
L 288 1369 
L 288 1894 
L 3547 1894 
z
" transform="scale(0.015625)"/>
        <path id="Helvetica-31" d="M 613 3169 
L 613 3600 
Q 1222 3659 1462 3798 
Q 1703 3938 1822 4456 
L 2266 4456 
L 2266 0 
L 1666 0 
L 1666 3169 
L 613 3169 
z
" transform="scale(0.015625)"/>
       </defs>
       <use xlink:href="#Helvetica-2212"/>
       <use xlink:href="#Helvetica-31" x="58.398438"/>
      </g>
     </g>
    </g>
    <g id="ytick_2">
     <g id="line2d_7">
      <g>
       <use xlink:href="#mfa36e381a7" x="49.521563" y="43.398483" style="stroke: #000000; stroke-width: 0.8"/>
      </g>
     </g>
     <g id="text_2">
      <!-- 0 -->
      <g transform="translate(40.460625 46.985202) scale(0.1 -0.1)">
       <defs>
        <path id="Helvetica-30" d="M 1731 4475 
Q 2600 4475 2988 3759 
Q 3288 3206 3288 2244 
Q 3288 1331 3016 734 
Q 2622 -122 1728 -122 
Q 922 -122 528 578 
Q 200 1163 200 2147 
Q 200 2909 397 3456 
Q 766 4475 1731 4475 
z
M 1725 391 
Q 2163 391 2422 778 
Q 2681 1166 2681 2222 
Q 2681 2984 2493 3476 
Q 2306 3969 1766 3969 
Q 1269 3969 1039 3501 
Q 809 3034 809 2125 
Q 809 1441 956 1025 
Q 1181 391 1725 391 
z
" transform="scale(0.015625)"/>
       </defs>
       <use xlink:href="#Helvetica-30"/>
      </g>
     </g>
    </g>
    <g id="ytick_3">
     <g id="line2d_8">
      <g>
       <use xlink:href="#mfa36e381a7" x="49.521563" y="25.280836" style="stroke: #000000; stroke-width: 0.8"/>
      </g>
     </g>
     <g id="text_3">
      <!-- 1 -->
      <g transform="translate(40.460625 28.867555) scale(0.1 -0.1)">
       <use xlink:href="#Helvetica-31"/>
      </g>
     </g>
    </g>
    <g id="text_4">
     <!-- $\Gamma_{ \rm{p}_{\rm{i}}}$  -->
     <g transform="translate(14.5 50.798483) rotate(-90) scale(0.1 -0.1)">
      <defs>
       <path id="DejaVuSans-393" d="M 628 0 
L 628 4666 
L 3531 4666 
L 3531 4134 
L 1259 4134 
L 1259 0 
L 628 0 
z
" transform="scale(0.015625)"/>
       <path id="DejaVuSans-70" d="M 1159 525 
L 1159 -1331 
L 581 -1331 
L 581 3500 
L 1159 3500 
L 1159 2969 
Q 1341 3281 1617 3432 
Q 1894 3584 2278 3584 
Q 2916 3584 3314 3078 
Q 3713 2572 3713 1747 
Q 3713 922 3314 415 
Q 2916 -91 2278 -91 
Q 1894 -91 1617 61 
Q 1341 213 1159 525 
z
M 3116 1747 
Q 3116 2381 2855 2742 
Q 2594 3103 2138 3103 
Q 1681 3103 1420 2742 
Q 1159 2381 1159 1747 
Q 1159 1113 1420 752 
Q 1681 391 2138 391 
Q 2594 391 2855 752 
Q 3116 1113 3116 1747 
z
" transform="scale(0.015625)"/>
       <path id="DejaVuSans-69" d="M 603 3500 
L 1178 3500 
L 1178 0 
L 603 0 
L 603 3500 
z
M 603 4863 
L 1178 4863 
L 1178 4134 
L 603 4134 
L 603 4863 
z
" transform="scale(0.015625)"/>
       <path id="Helvetica-20" transform="scale(0.015625)"/>
      </defs>
      <use xlink:href="#DejaVuSans-393" transform="translate(0 0.09375)"/>
      <use xlink:href="#DejaVuSans-70" transform="translate(56.669922 -16.3125) scale(0.7)"/>
      <use xlink:href="#DejaVuSans-69" transform="translate(101.773438 -27.796875) scale(0.49)"/>
      <use xlink:href="#Helvetica-20" transform="translate(120.035645 0.09375)"/>
     </g>
     <!-- (10$^{24}$ /m$^2$/s) -->
     <g transform="translate(28.52 70.198483) rotate(-90) scale(0.1 -0.1)">
      <defs>
       <path id="Helvetica-28" d="M 1894 4666 
Q 1403 3713 1256 3263 
Q 1034 2578 1034 1681 
Q 1034 775 1288 25 
Q 1444 -438 1903 -1306 
L 1525 -1306 
Q 1069 -594 959 -397 
Q 850 -200 722 138 
Q 547 600 478 1125 
Q 444 1397 444 1644 
Q 444 2569 734 3291 
Q 919 3750 1503 4666 
L 1894 4666 
z
" transform="scale(0.015625)"/>
       <path id="DejaVuSans-32" d="M 1228 531 
L 3431 531 
L 3431 0 
L 469 0 
L 469 531 
Q 828 903 1448 1529 
Q 2069 2156 2228 2338 
Q 2531 2678 2651 2914 
Q 2772 3150 2772 3378 
Q 2772 3750 2511 3984 
Q 2250 4219 1831 4219 
Q 1534 4219 1204 4116 
Q 875 4013 500 3803 
L 500 4441 
Q 881 4594 1212 4672 
Q 1544 4750 1819 4750 
Q 2544 4750 2975 4387 
Q 3406 4025 3406 3419 
Q 3406 3131 3298 2873 
Q 3191 2616 2906 2266 
Q 2828 2175 2409 1742 
Q 1991 1309 1228 531 
z
" transform="scale(0.015625)"/>
       <path id="DejaVuSans-34" d="M 2419 4116 
L 825 1625 
L 2419 1625 
L 2419 4116 
z
M 2253 4666 
L 3047 4666 
L 3047 1625 
L 3713 1625 
L 3713 1100 
L 3047 1100 
L 3047 0 
L 2419 0 
L 2419 1100 
L 313 1100 
L 313 1709 
L 2253 4666 
z
" transform="scale(0.015625)"/>
       <path id="Helvetica-2f" d="M 1456 4591 
L 1931 4591 
L 475 0 
L 0 0 
L 1456 4591 
z
" transform="scale(0.015625)"/>
       <path id="Helvetica-6d" d="M 413 3347 
L 969 3347 
L 969 2872 
Q 1169 3119 1331 3231 
Q 1609 3422 1963 3422 
Q 2363 3422 2606 3225 
Q 2744 3113 2856 2894 
Q 3044 3163 3297 3292 
Q 3550 3422 3866 3422 
Q 4541 3422 4784 2934 
Q 4916 2672 4916 2228 
L 4916 0 
L 4331 0 
L 4331 2325 
Q 4331 2659 4164 2784 
Q 3997 2909 3756 2909 
Q 3425 2909 3186 2687 
Q 2947 2466 2947 1947 
L 2947 0 
L 2375 0 
L 2375 2184 
Q 2375 2525 2294 2681 
Q 2166 2916 1816 2916 
Q 1497 2916 1236 2669 
Q 975 2422 975 1775 
L 975 0 
L 413 0 
L 413 3347 
z
" transform="scale(0.015625)"/>
       <path id="Helvetica-73" d="M 747 1050 
Q 772 769 888 619 
Q 1100 347 1625 347 
Q 1938 347 2175 483 
Q 2413 619 2413 903 
Q 2413 1119 2222 1231 
Q 2100 1300 1741 1391 
L 1294 1503 
Q 866 1609 663 1741 
Q 300 1969 300 2372 
Q 300 2847 642 3140 
Q 984 3434 1563 3434 
Q 2319 3434 2653 2991 
Q 2863 2709 2856 2384 
L 2325 2384 
Q 2309 2575 2191 2731 
Q 1997 2953 1519 2953 
Q 1200 2953 1036 2831 
Q 872 2709 872 2509 
Q 872 2291 1088 2159 
Q 1213 2081 1456 2022 
L 1828 1931 
Q 2434 1784 2641 1647 
Q 2969 1431 2969 969 
Q 2969 522 2630 197 
Q 2291 -128 1597 -128 
Q 850 -128 539 211 
Q 228 550 206 1050 
L 747 1050 
z
M 1578 3428 
L 1578 3428 
z
" transform="scale(0.015625)"/>
       <path id="Helvetica-29" d="M 222 -1306 
Q 719 -338 863 106 
Q 1081 778 1081 1681 
Q 1081 2584 828 3334 
Q 672 3797 213 4666 
L 591 4666 
Q 1072 3897 1173 3717 
Q 1275 3538 1394 3222 
Q 1544 2831 1608 2450 
Q 1672 2069 1672 1716 
Q 1672 791 1378 66 
Q 1194 -400 613 -1306 
L 222 -1306 
z
" transform="scale(0.015625)"/>
      </defs>
      <use xlink:href="#Helvetica-28" transform="translate(0 0.765625)"/>
      <use xlink:href="#Helvetica-31" transform="translate(33.300781 0.765625)"/>
      <use xlink:href="#Helvetica-30" transform="translate(88.916016 0.765625)"/>
      <use xlink:href="#DejaVuSans-32" transform="translate(145.488281 39.046875) scale(0.7)"/>
      <use xlink:href="#DejaVuSans-34" transform="translate(190.024414 39.046875) scale(0.7)"/>
      <use xlink:href="#Helvetica-20" transform="translate(237.294922 0.765625)"/>
      <use xlink:href="#Helvetica-2f" transform="translate(265.078125 0.765625)"/>
      <use xlink:href="#Helvetica-6d" transform="translate(292.861328 0.765625)"/>
      <use xlink:href="#DejaVuSans-32" transform="translate(377.119141 39.046875) scale(0.7)"/>
      <use xlink:href="#Helvetica-2f" transform="translate(424.389648 0.765625)"/>
      <use xlink:href="#Helvetica-73" transform="translate(452.172852 0.765625)"/>
      <use xlink:href="#Helvetica-29" transform="translate(502.172852 0.765625)"/>
     </g>
    </g>
   </g>
   <g id="line2d_9">
    <path d="M 48.67875 43.398483 
L 50.364375 43.398483 
L 52.05 43.048524 
L 53.735625 42.69412 
L 55.42125 42.335862 
L 57.106875 41.974621 
L 58.7925 41.608784 
L 60.478125 41.240079 
L 62.16375 40.868447 
L 63.849375 40.493519 
L 65.535 40.116081 
L 67.220625 39.735862 
L 68.90625 39.353735 
L 70.591875 38.970103 
L 72.2775 38.584152 
L 73.963125 38.197556 
L 75.64875 37.809624 
L 77.334375 37.421509 
L 79.02 37.032701 
L 80.705625 36.644847 
L 82.39125 36.257092 
L 84.076875 35.870233 
L 85.7625 35.484899 
L 87.448125 35.101456 
L 89.13375 34.720214 
L 90.819375 34.341615 
L 92.505 33.966393 
L 94.190625 33.594667 
L 95.87625 33.226903 
L 97.561875 32.863608 
L 99.2475 32.50552 
L 100.933125 32.152596 
L 102.61875 31.805573 
L 104.304375 31.464703 
L 105.99 31.130642 
L 107.675625 30.80342 
L 109.36125 30.483453 
L 111.046875 30.17116 
L 112.7325 29.867031 
L 114.418125 29.571055 
L 116.10375 29.283504 
L 117.789375 29.00475 
L 119.475 28.734953 
L 121.160625 28.474098 
L 122.84625 28.222398 
L 124.531875 27.980515 
L 126.2175 27.747534 
L 127.903125 27.523541 
L 129.58875 27.309403 
L 131.274375 27.104245 
L 132.96 26.907973 
L 134.645625 26.721035 
L 136.33125 26.543218 
L 138.016875 26.37458 
L 139.7025 26.214359 
L 141.388125 26.062443 
L 143.07375 25.918564 
L 144.759375 25.782892 
L 146.445 25.655306 
L 148.130625 25.534911 
L 149.81625 25.421904 
L 151.501875 25.315921 
L 153.1875 25.216666 
L 154.873125 25.123942 
L 156.55875 25.037493 
L 158.244375 24.957197 
L 159.93 24.882676 
L 161.615625 24.813679 
L 163.30125 24.75008 
L 164.986875 24.69179 
L 166.6725 24.638474 
L 168.358125 24.590056 
L 170.04375 24.546371 
L 171.729375 24.507247 
L 173.415 24.472636 
L 175.100625 24.442437 
L 176.78625 24.4167 
L 178.471875 24.395269 
L 180.1575 24.378284 
L 181.843125 24.366011 
L 183.52875 24.358521 
L 185.214375 24.356179 
" clip-path="url(#p88698ef220)" style="fill: none; stroke: #1f77b4; stroke-width: 1.5; stroke-linecap: square"/>
   </g>
   <g id="line2d_10">
    <path d="M 48.67875 43.398483 
L 50.364375 43.398483 
L 52.05 43.193092 
L 53.735625 42.984574 
L 55.42125 42.773398 
L 57.106875 42.559924 
L 58.7925 42.343305 
L 60.478125 42.124413 
L 62.16375 41.903311 
L 63.849375 41.679646 
L 65.535 41.45396 
L 67.220625 41.225977 
L 68.90625 40.996279 
L 70.591875 40.765003 
L 72.2775 40.531717 
L 73.963125 40.297321 
L 75.64875 40.06146 
L 77.334375 39.824724 
L 79.02 39.586859 
L 80.705625 39.348776 
L 82.39125 39.11 
L 84.076875 38.870931 
L 85.7625 38.631999 
L 87.448125 38.393362 
L 89.13375 38.155233 
L 90.819375 37.917845 
L 92.505 37.681665 
L 94.190625 37.446745 
L 95.87625 37.213374 
L 97.561875 36.981867 
L 99.2475 36.752687 
L 100.933125 36.525816 
L 102.61875 36.301718 
L 104.304375 36.080574 
L 105.99 35.862808 
L 107.675625 35.648465 
L 109.36125 35.437823 
L 111.046875 35.231189 
L 112.7325 35.028903 
L 114.418125 34.830999 
L 116.10375 34.637684 
L 117.789375 34.449249 
L 119.475 34.265843 
L 121.160625 34.087505 
L 122.84625 33.914426 
L 124.531875 33.747116 
L 126.2175 33.585011 
L 127.903125 33.428213 
L 129.58875 33.277398 
L 131.274375 33.132023 
L 132.96 32.992077 
L 134.645625 32.857953 
L 136.33125 32.729574 
L 138.016875 32.607057 
L 139.7025 32.48993 
L 141.388125 32.378177 
L 143.07375 32.271682 
L 144.759375 32.170639 
L 146.445 32.075047 
L 148.130625 31.984303 
L 149.81625 31.898632 
L 151.501875 31.817833 
L 153.1875 31.741747 
L 154.873125 31.670297 
L 156.55875 31.603346 
L 158.244375 31.540871 
L 159.93 31.482636 
L 161.615625 31.428504 
L 163.30125 31.37843 
L 164.986875 31.332401 
L 166.6725 31.290188 
L 168.358125 31.251784 
L 170.04375 31.217093 
L 171.729375 31.186012 
L 173.415 31.158547 
L 175.100625 31.134651 
L 176.78625 31.114422 
L 178.471875 31.097781 
L 180.1575 31.084924 
L 181.843125 31.076155 
L 183.52875 31.071607 
L 185.214375 31.071677 
" clip-path="url(#p88698ef220)" style="fill: none; stroke-dasharray: 5.55,2.4; stroke-dashoffset: 0; stroke: #2ca02c; stroke-width: 1.5"/>
   </g>
   <g id="patch_3">
    <path d="M 49.521563 76.010248 
L 49.521563 10.786719 
" style="fill: none; stroke: #000000; stroke-width: 0.8; stroke-linejoin: miter; stroke-linecap: square"/>
   </g>
   <g id="patch_4">
    <path d="M 184.371562 76.010248 
L 184.371562 10.786719 
" style="fill: none; stroke: #000000; stroke-width: 0.8; stroke-linejoin: miter; stroke-linecap: square"/>
   </g>
   <g id="patch_5">
    <path d="M 49.521563 76.010248 
L 184.371562 76.010248 
" style="fill: none; stroke: #000000; stroke-width: 0.8; stroke-linejoin: miter; stroke-linecap: square"/>
   </g>
   <g id="patch_6">
    <path d="M 49.521563 10.786719 
L 184.371562 10.786719 
" style="fill: none; stroke: #000000; stroke-width: 0.8; stroke-linejoin: miter; stroke-linecap: square"/>
   </g>
   <g id="text_5">
    <!-- (a) -->
    <g transform="translate(66.377813 19.845542) scale(0.1 -0.1)">
     <defs>
      <path id="Helvetica-61" d="M 844 891 
Q 844 647 1022 506 
Q 1200 366 1444 366 
Q 1741 366 2019 503 
Q 2488 731 2488 1250 
L 2488 1703 
Q 2384 1638 2221 1594 
Q 2059 1550 1903 1531 
L 1563 1488 
Q 1256 1447 1103 1359 
Q 844 1213 844 891 
z
M 2206 2028 
Q 2400 2053 2466 2191 
Q 2503 2266 2503 2406 
Q 2503 2694 2298 2823 
Q 2094 2953 1713 2953 
Q 1272 2953 1088 2716 
Q 984 2584 953 2325 
L 428 2325 
Q 444 2944 830 3186 
Q 1216 3428 1725 3428 
Q 2316 3428 2684 3203 
Q 3050 2978 3050 2503 
L 3050 575 
Q 3050 488 3086 434 
Q 3122 381 3238 381 
Q 3275 381 3322 386 
Q 3369 391 3422 400 
L 3422 -16 
Q 3291 -53 3222 -62 
Q 3153 -72 3034 -72 
Q 2744 -72 2613 134 
Q 2544 244 2516 444 
Q 2344 219 2022 53 
Q 1700 -113 1313 -113 
Q 847 -113 551 170 
Q 256 453 256 878 
Q 256 1344 547 1600 
Q 838 1856 1309 1916 
L 2206 2028 
z
M 1741 3428 
L 1741 3428 
z
" transform="scale(0.015625)"/>
     </defs>
     <use xlink:href="#Helvetica-28"/>
     <use xlink:href="#Helvetica-61" x="33.300781"/>
     <use xlink:href="#Helvetica-29" x="88.916016"/>
    </g>
   </g>
  </g>
  <g id="axes_2">
   <g id="patch_7">
    <path d="M 49.521563 154.278483 
L 184.371562 154.278483 
L 184.371562 89.054954 
L 49.521563 89.054954 
z
" style="fill: #ffffff"/>
   </g>
   <g id="matplotlib.axis_3">
    <g id="xtick_6">
     <g id="line2d_11">
      <g>
       <use xlink:href="#m6582f74339" x="49.521563" y="154.278483" style="stroke: #000000; stroke-width: 0.8"/>
      </g>
     </g>
    </g>
    <g id="xtick_7">
     <g id="line2d_12">
      <g>
       <use xlink:href="#m6582f74339" x="83.234063" y="154.278483" style="stroke: #000000; stroke-width: 0.8"/>
      </g>
     </g>
    </g>
    <g id="xtick_8">
     <g id="line2d_13">
      <g>
       <use xlink:href="#m6582f74339" x="116.946563" y="154.278483" style="stroke: #000000; stroke-width: 0.8"/>
      </g>
     </g>
    </g>
    <g id="xtick_9">
     <g id="line2d_14">
      <g>
       <use xlink:href="#m6582f74339" x="150.659063" y="154.278483" style="stroke: #000000; stroke-width: 0.8"/>
      </g>
     </g>
    </g>
    <g id="xtick_10">
     <g id="line2d_15">
      <g>
       <use xlink:href="#m6582f74339" x="184.371562" y="154.278483" style="stroke: #000000; stroke-width: 0.8"/>
      </g>
     </g>
    </g>
   </g>
   <g id="matplotlib.axis_4">
    <g id="ytick_4">
     <g id="line2d_16">
      <g>
       <use xlink:href="#mfa36e381a7" x="49.521563" y="139.784366" style="stroke: #000000; stroke-width: 0.8"/>
      </g>
     </g>
     <g id="text_6">
      <!-- −1 -->
      <g transform="translate(34.62 143.371085) scale(0.1 -0.1)">
       <use xlink:href="#Helvetica-2212"/>
       <use xlink:href="#Helvetica-31" x="58.398438"/>
      </g>
     </g>
    </g>
    <g id="ytick_5">
     <g id="line2d_17">
      <g>
       <use xlink:href="#mfa36e381a7" x="49.521563" y="121.666719" style="stroke: #000000; stroke-width: 0.8"/>
      </g>
     </g>
     <g id="text_7">
      <!-- 0 -->
      <g transform="translate(40.460625 125.253437) scale(0.1 -0.1)">
       <use xlink:href="#Helvetica-30"/>
      </g>
     </g>
    </g>
    <g id="ytick_6">
     <g id="line2d_18">
      <g>
       <use xlink:href="#mfa36e381a7" x="49.521563" y="103.549072" style="stroke: #000000; stroke-width: 0.8"/>
      </g>
     </g>
     <g id="text_8">
      <!-- 1 -->
      <g transform="translate(40.460625 107.13579) scale(0.1 -0.1)">
       <use xlink:href="#Helvetica-31"/>
      </g>
     </g>
    </g>
    <g id="text_9">
     <!-- $\Gamma_{\rm{p}_{\rm{e}}}$ -->
     <g transform="translate(14.5 128.516719) rotate(-90) scale(0.1 -0.1)">
      <defs>
       <path id="DejaVuSans-65" d="M 3597 1894 
L 3597 1613 
L 953 1613 
Q 991 1019 1311 708 
Q 1631 397 2203 397 
Q 2534 397 2845 478 
Q 3156 559 3463 722 
L 3463 178 
Q 3153 47 2828 -22 
Q 2503 -91 2169 -91 
Q 1331 -91 842 396 
Q 353 884 353 1716 
Q 353 2575 817 3079 
Q 1281 3584 2069 3584 
Q 2775 3584 3186 3129 
Q 3597 2675 3597 1894 
z
M 3022 2063 
Q 3016 2534 2758 2815 
Q 2500 3097 2075 3097 
Q 1594 3097 1305 2825 
Q 1016 2553 972 2059 
L 3022 2063 
z
" transform="scale(0.015625)"/>
      </defs>
      <use xlink:href="#DejaVuSans-393" transform="translate(0 0.09375)"/>
      <use xlink:href="#DejaVuSans-70" transform="translate(56.669922 -16.3125) scale(0.7)"/>
      <use xlink:href="#DejaVuSans-65" transform="translate(101.773438 -27.796875) scale(0.49)"/>
     </g>
     <!--  (10$^{24}$ /m$^2$/s) -->
     <g transform="translate(28.52 149.866719) rotate(-90) scale(0.1 -0.1)">
      <use xlink:href="#Helvetica-20" transform="translate(0 0.765625)"/>
      <use xlink:href="#Helvetica-28" transform="translate(27.783203 0.765625)"/>
      <use xlink:href="#Helvetica-31" transform="translate(61.083984 0.765625)"/>
      <use xlink:href="#Helvetica-30" transform="translate(116.699219 0.765625)"/>
      <use xlink:href="#DejaVuSans-32" transform="translate(173.271484 39.046875) scale(0.7)"/>
      <use xlink:href="#DejaVuSans-34" transform="translate(217.807617 39.046875) scale(0.7)"/>
      <use xlink:href="#Helvetica-20" transform="translate(265.078125 0.765625)"/>
      <use xlink:href="#Helvetica-2f" transform="translate(292.861328 0.765625)"/>
      <use xlink:href="#Helvetica-6d" transform="translate(320.644531 0.765625)"/>
      <use xlink:href="#DejaVuSans-32" transform="translate(404.902344 39.046875) scale(0.7)"/>
      <use xlink:href="#Helvetica-2f" transform="translate(452.172852 0.765625)"/>
      <use xlink:href="#Helvetica-73" transform="translate(479.956055 0.765625)"/>
      <use xlink:href="#Helvetica-29" transform="translate(529.956055 0.765625)"/>
     </g>
    </g>
   </g>
   <g id="line2d_19">
    <path d="M 48.67875 121.666719 
L 50.364375 121.666719 
L 52.05 121.451096 
L 53.735625 121.232719 
L 55.42125 121.011952 
L 57.106875 120.789336 
L 58.7925 120.56387 
L 60.478125 120.336622 
L 62.16375 120.107559 
L 63.849375 119.876447 
L 65.535 119.643775 
L 67.220625 119.409373 
L 68.90625 119.173781 
L 70.591875 118.937248 
L 72.2775 118.699269 
L 73.963125 118.460881 
L 75.64875 118.221656 
L 77.334375 117.982305 
L 79.02 117.742512 
L 80.705625 117.503297 
L 82.39125 117.26413 
L 84.076875 117.025504 
L 85.7625 116.787807 
L 87.448125 116.551265 
L 89.13375 116.316071 
L 90.819375 116.082497 
L 92.505 115.850997 
L 94.190625 115.621644 
L 95.87625 115.394727 
L 97.561875 115.170558 
L 99.2475 114.949595 
L 100.933125 114.73181 
L 102.61875 114.517659 
L 104.304375 114.307297 
L 105.99 114.101131 
L 107.675625 113.899176 
L 109.36125 113.701693 
L 111.046875 113.508937 
L 112.7325 113.321213 
L 114.418125 113.138511 
L 116.10375 112.961 
L 117.789375 112.788909 
L 119.475 112.622334 
L 121.160625 112.461265 
L 122.84625 112.305832 
L 124.531875 112.156444 
L 126.2175 112.012532 
L 127.903125 111.874145 
L 129.58875 111.741821 
L 131.274375 111.615015 
L 132.96 111.493668 
L 134.645625 111.378055 
L 136.33125 111.268046 
L 138.016875 111.163677 
L 139.7025 111.064476 
L 141.388125 110.970377 
L 143.07375 110.881215 
L 144.759375 110.7971 
L 146.445 110.717961 
L 148.130625 110.643249 
L 149.81625 110.573089 
L 151.501875 110.507262 
L 153.1875 110.445588 
L 154.873125 110.38795 
L 156.55875 110.334193 
L 158.244375 110.284243 
L 159.93 110.237872 
L 161.615625 110.194923 
L 163.30125 110.155319 
L 164.986875 110.119003 
L 166.6725 110.085765 
L 168.358125 110.055554 
L 170.04375 110.028262 
L 171.729375 110.003776 
L 173.415 109.982049 
L 175.100625 109.962987 
L 176.78625 109.94655 
L 178.471875 109.932491 
L 180.1575 109.920615 
L 181.843125 109.910626 
L 183.52875 109.901918 
L 185.214375 109.893933 
" clip-path="url(#pefd751f410)" style="fill: none; stroke: #1f77b4; stroke-width: 1.5; stroke-linecap: square"/>
   </g>
   <g id="line2d_20">
    <path d="M 48.67875 121.666719 
L 50.364375 121.666719 
L 52.05 121.535191 
L 53.735625 121.401651 
L 55.42125 121.266401 
L 57.106875 121.12967 
L 58.7925 120.990915 
L 60.478125 120.850695 
L 62.16375 120.70905 
L 63.849375 120.565752 
L 65.535 120.421149 
L 67.220625 120.275063 
L 68.90625 120.127869 
L 70.591875 119.979653 
L 72.2775 119.830135 
L 73.963125 119.679896 
L 75.64875 119.528707 
L 77.334375 119.376945 
L 79.02 119.224448 
L 80.705625 119.0718 
L 82.39125 118.918696 
L 84.076875 118.765392 
L 85.7625 118.612163 
L 87.448125 118.459112 
L 89.13375 118.306376 
L 90.819375 118.154103 
L 92.505 118.002592 
L 94.190625 117.851878 
L 95.87625 117.702146 
L 97.561875 117.553597 
L 99.2475 117.40653 
L 100.933125 117.260932 
L 102.61875 117.1171 
L 104.304375 116.975151 
L 105.99 116.835357 
L 107.675625 116.697746 
L 109.36125 116.562496 
L 111.046875 116.429803 
L 112.7325 116.299887 
L 114.418125 116.172766 
L 116.10375 116.048574 
L 117.789375 115.927497 
L 119.475 115.80963 
L 121.160625 115.694994 
L 122.84625 115.583715 
L 124.531875 115.476118 
L 126.2175 115.371838 
L 127.903125 115.27094 
L 129.58875 115.173859 
L 131.274375 115.080245 
L 132.96 114.990089 
L 134.645625 114.903646 
L 136.33125 114.820867 
L 138.016875 114.74183 
L 139.7025 114.666229 
L 141.388125 114.594058 
L 143.07375 114.525244 
L 144.759375 114.459916 
L 146.445 114.398077 
L 148.130625 114.339341 
L 149.81625 114.283858 
L 151.501875 114.2315 
L 153.1875 114.182171 
L 154.873125 114.135823 
L 156.55875 114.092371 
L 158.244375 114.051802 
L 159.93 114.013961 
L 161.615625 113.97876 
L 163.30125 113.946165 
L 164.986875 113.916164 
L 166.6725 113.888604 
L 168.358125 113.863471 
L 170.04375 113.840693 
L 171.729375 113.820185 
L 173.415 113.801919 
L 175.100625 113.785804 
L 176.78625 113.771789 
L 178.471875 113.759614 
L 180.1575 113.749054 
L 181.843125 113.739778 
L 183.52875 113.731177 
L 185.214375 113.722705 
" clip-path="url(#pefd751f410)" style="fill: none; stroke-dasharray: 5.55,2.4; stroke-dashoffset: 0; stroke: #2ca02c; stroke-width: 1.5"/>
   </g>
   <g id="patch_8">
    <path d="M 49.521563 154.278483 
L 49.521563 89.054954 
" style="fill: none; stroke: #000000; stroke-width: 0.8; stroke-linejoin: miter; stroke-linecap: square"/>
   </g>
   <g id="patch_9">
    <path d="M 184.371562 154.278483 
L 184.371562 89.054954 
" style="fill: none; stroke: #000000; stroke-width: 0.8; stroke-linejoin: miter; stroke-linecap: square"/>
   </g>
   <g id="patch_10">
    <path d="M 49.521563 154.278483 
L 184.371562 154.278483 
" style="fill: none; stroke: #000000; stroke-width: 0.8; stroke-linejoin: miter; stroke-linecap: square"/>
   </g>
   <g id="patch_11">
    <path d="M 49.521563 89.054954 
L 184.371562 89.054954 
" style="fill: none; stroke: #000000; stroke-width: 0.8; stroke-linejoin: miter; stroke-linecap: square"/>
   </g>
   <g id="text_10">
    <!-- (b) -->
    <g transform="translate(66.377813 98.113778) scale(0.1 -0.1)">
     <defs>
      <path id="Helvetica-62" d="M 369 4606 
L 916 4606 
L 916 2941 
Q 1100 3181 1356 3307 
Q 1613 3434 1913 3434 
Q 2538 3434 2927 3004 
Q 3316 2575 3316 1738 
Q 3316 944 2931 419 
Q 2547 -106 1866 -106 
Q 1484 -106 1222 78 
Q 1066 188 888 428 
L 888 0 
L 369 0 
L 369 4606 
z
M 1831 391 
Q 2288 391 2514 753 
Q 2741 1116 2741 1709 
Q 2741 2238 2514 2584 
Q 2288 2931 1847 2931 
Q 1463 2931 1173 2647 
Q 884 2363 884 1709 
Q 884 1238 1003 944 
Q 1225 391 1831 391 
z
" transform="scale(0.015625)"/>
     </defs>
     <use xlink:href="#Helvetica-28"/>
     <use xlink:href="#Helvetica-62" x="33.300781"/>
     <use xlink:href="#Helvetica-29" x="88.916016"/>
    </g>
   </g>
  </g>
  <g id="axes_3">
   <g id="patch_12">
    <path d="M 49.521563 232.546719 
L 184.371562 232.546719 
L 184.371562 167.323189 
L 49.521563 167.323189 
z
" style="fill: #ffffff"/>
   </g>
   <g id="matplotlib.axis_5">
    <g id="xtick_11">
     <g id="line2d_21">
      <g>
       <use xlink:href="#m6582f74339" x="49.521563" y="232.546719" style="stroke: #000000; stroke-width: 0.8"/>
      </g>
     </g>
     <g id="text_11">
      <!-- 2.0 -->
      <g transform="translate(42.571563 243.220156) scale(0.1 -0.1)">
       <defs>
        <path id="Helvetica-32" d="M 200 0 
Q 231 578 439 1006 
Q 647 1434 1250 1784 
L 1850 2131 
Q 2253 2366 2416 2531 
Q 2672 2791 2672 3125 
Q 2672 3516 2437 3745 
Q 2203 3975 1813 3975 
Q 1234 3975 1013 3538 
Q 894 3303 881 2888 
L 309 2888 
Q 319 3472 525 3841 
Q 891 4491 1816 4491 
Q 2584 4491 2939 4075 
Q 3294 3659 3294 3150 
Q 3294 2613 2916 2231 
Q 2697 2009 2131 1694 
L 1703 1456 
Q 1397 1288 1222 1134 
Q 909 863 828 531 
L 3272 531 
L 3272 0 
L 200 0 
z
" transform="scale(0.015625)"/>
        <path id="Helvetica-2e" d="M 547 681 
L 1200 681 
L 1200 0 
L 547 0 
L 547 681 
z
" transform="scale(0.015625)"/>
       </defs>
       <use xlink:href="#Helvetica-32"/>
       <use xlink:href="#Helvetica-2e" x="55.615234"/>
       <use xlink:href="#Helvetica-30" x="83.398438"/>
      </g>
     </g>
    </g>
    <g id="xtick_12">
     <g id="line2d_22">
      <g>
       <use xlink:href="#m6582f74339" x="83.234063" y="232.546719" style="stroke: #000000; stroke-width: 0.8"/>
      </g>
     </g>
     <g id="text_12">
      <!-- 2.2 -->
      <g transform="translate(76.284063 243.220156) scale(0.1 -0.1)">
       <use xlink:href="#Helvetica-32"/>
       <use xlink:href="#Helvetica-2e" x="55.615234"/>
       <use xlink:href="#Helvetica-32" x="83.398438"/>
      </g>
     </g>
    </g>
    <g id="xtick_13">
     <g id="line2d_23">
      <g>
       <use xlink:href="#m6582f74339" x="116.946563" y="232.546719" style="stroke: #000000; stroke-width: 0.8"/>
      </g>
     </g>
     <g id="text_13">
      <!-- 2.4 -->
      <g transform="translate(109.996563 243.220156) scale(0.1 -0.1)">
       <defs>
        <path id="Helvetica-34" d="M 2116 1584 
L 2116 3613 
L 681 1584 
L 2116 1584 
z
M 2125 0 
L 2125 1094 
L 163 1094 
L 163 1644 
L 2213 4488 
L 2688 4488 
L 2688 1584 
L 3347 1584 
L 3347 1094 
L 2688 1094 
L 2688 0 
L 2125 0 
z
" transform="scale(0.015625)"/>
       </defs>
       <use xlink:href="#Helvetica-32"/>
       <use xlink:href="#Helvetica-2e" x="55.615234"/>
       <use xlink:href="#Helvetica-34" x="83.398438"/>
      </g>
     </g>
    </g>
    <g id="xtick_14">
     <g id="line2d_24">
      <g>
       <use xlink:href="#m6582f74339" x="150.659063" y="232.546719" style="stroke: #000000; stroke-width: 0.8"/>
      </g>
     </g>
     <g id="text_14">
      <!-- 2.6 -->
      <g transform="translate(143.709063 243.220156) scale(0.1 -0.1)">
       <defs>
        <path id="Helvetica-36" d="M 1872 4494 
Q 2622 4494 2917 4105 
Q 3213 3716 3213 3303 
L 2656 3303 
Q 2606 3569 2497 3719 
Q 2294 4000 1881 4000 
Q 1409 4000 1131 3564 
Q 853 3128 822 2316 
Q 1016 2600 1309 2741 
Q 1578 2866 1909 2866 
Q 2472 2866 2890 2506 
Q 3309 2147 3309 1434 
Q 3309 825 2912 354 
Q 2516 -116 1781 -116 
Q 1153 -116 697 361 
Q 241 838 241 1966 
Q 241 2800 444 3381 
Q 834 4494 1872 4494 
z
M 1831 384 
Q 2275 384 2495 682 
Q 2716 981 2716 1388 
Q 2716 1731 2519 2042 
Q 2322 2353 1803 2353 
Q 1441 2353 1167 2112 
Q 894 1872 894 1388 
Q 894 963 1142 673 
Q 1391 384 1831 384 
z
" transform="scale(0.015625)"/>
       </defs>
       <use xlink:href="#Helvetica-32"/>
       <use xlink:href="#Helvetica-2e" x="55.615234"/>
       <use xlink:href="#Helvetica-36" x="83.398438"/>
      </g>
     </g>
    </g>
    <g id="xtick_15">
     <g id="line2d_25">
      <g>
       <use xlink:href="#m6582f74339" x="184.371562" y="232.546719" style="stroke: #000000; stroke-width: 0.8"/>
      </g>
     </g>
     <g id="text_15">
      <!-- 2.8 -->
      <g transform="translate(177.421562 243.220156) scale(0.1 -0.1)">
       <defs>
        <path id="Helvetica-38" d="M 1741 2600 
Q 2113 2600 2322 2808 
Q 2531 3016 2531 3303 
Q 2531 3553 2331 3762 
Q 2131 3972 1722 3972 
Q 1316 3972 1134 3762 
Q 953 3553 953 3272 
Q 953 2956 1187 2778 
Q 1422 2600 1741 2600 
z
M 1775 384 
Q 2166 384 2423 595 
Q 2681 806 2681 1225 
Q 2681 1659 2415 1884 
Q 2150 2109 1734 2109 
Q 1331 2109 1076 1879 
Q 822 1650 822 1244 
Q 822 894 1055 639 
Q 1288 384 1775 384 
z
M 975 2384 
Q 741 2484 609 2619 
Q 363 2869 363 3269 
Q 363 3769 725 4128 
Q 1088 4488 1753 4488 
Q 2397 4488 2762 4148 
Q 3128 3809 3128 3356 
Q 3128 2938 2916 2678 
Q 2797 2531 2547 2391 
Q 2825 2263 2984 2097 
Q 3281 1784 3281 1284 
Q 3281 694 2884 283 
Q 2488 -128 1763 -128 
Q 1109 -128 657 226 
Q 206 581 206 1256 
Q 206 1653 400 1942 
Q 594 2231 975 2384 
z
" transform="scale(0.015625)"/>
       </defs>
       <use xlink:href="#Helvetica-32"/>
       <use xlink:href="#Helvetica-2e" x="55.615234"/>
       <use xlink:href="#Helvetica-38" x="83.398438"/>
      </g>
     </g>
    </g>
    <g id="text_16">
     <!-- s (m) -->
     <g transform="translate(105.562969 256.551406) scale(0.1 -0.1)">
      <use xlink:href="#Helvetica-73"/>
      <use xlink:href="#Helvetica-20" x="50"/>
      <use xlink:href="#Helvetica-28" x="77.783203"/>
      <use xlink:href="#Helvetica-6d" x="111.083984"/>
      <use xlink:href="#Helvetica-29" x="194.384766"/>
     </g>
    </g>
   </g>
   <g id="matplotlib.axis_6">
    <g id="ytick_7">
     <g id="line2d_26">
      <g>
       <use xlink:href="#mfa36e381a7" x="49.521563" y="218.052601" style="stroke: #000000; stroke-width: 0.8"/>
      </g>
     </g>
     <g id="text_17">
      <!-- −1 -->
      <g transform="translate(34.62 221.63932) scale(0.1 -0.1)">
       <use xlink:href="#Helvetica-2212"/>
       <use xlink:href="#Helvetica-31" x="58.398438"/>
      </g>
     </g>
    </g>
    <g id="ytick_8">
     <g id="line2d_27">
      <g>
       <use xlink:href="#mfa36e381a7" x="49.521563" y="199.934954" style="stroke: #000000; stroke-width: 0.8"/>
      </g>
     </g>
     <g id="text_18">
      <!-- 0 -->
      <g transform="translate(40.460625 203.521673) scale(0.1 -0.1)">
       <use xlink:href="#Helvetica-30"/>
      </g>
     </g>
    </g>
    <g id="ytick_9">
     <g id="line2d_28">
      <g>
       <use xlink:href="#mfa36e381a7" x="49.521563" y="181.817307" style="stroke: #000000; stroke-width: 0.8"/>
      </g>
     </g>
     <g id="text_19">
      <!-- 1 -->
      <g transform="translate(40.460625 185.404026) scale(0.1 -0.1)">
       <use xlink:href="#Helvetica-31"/>
      </g>
     </g>
    </g>
    <g id="text_20">
     <!-- $\Gamma_{\rm{mirror}}$ -->
     <g transform="translate(15.515625 213.784954) rotate(-90) scale(0.1 -0.1)">
      <defs>
       <path id="DejaVuSans-6d" d="M 3328 2828 
Q 3544 3216 3844 3400 
Q 4144 3584 4550 3584 
Q 5097 3584 5394 3201 
Q 5691 2819 5691 2113 
L 5691 0 
L 5113 0 
L 5113 2094 
Q 5113 2597 4934 2840 
Q 4756 3084 4391 3084 
Q 3944 3084 3684 2787 
Q 3425 2491 3425 1978 
L 3425 0 
L 2847 0 
L 2847 2094 
Q 2847 2600 2669 2842 
Q 2491 3084 2119 3084 
Q 1678 3084 1418 2786 
Q 1159 2488 1159 1978 
L 1159 0 
L 581 0 
L 581 3500 
L 1159 3500 
L 1159 2956 
Q 1356 3278 1631 3431 
Q 1906 3584 2284 3584 
Q 2666 3584 2933 3390 
Q 3200 3197 3328 2828 
z
" transform="scale(0.015625)"/>
       <path id="DejaVuSans-72" d="M 2631 2963 
Q 2534 3019 2420 3045 
Q 2306 3072 2169 3072 
Q 1681 3072 1420 2755 
Q 1159 2438 1159 1844 
L 1159 0 
L 581 0 
L 581 3500 
L 1159 3500 
L 1159 2956 
Q 1341 3275 1631 3429 
Q 1922 3584 2338 3584 
Q 2397 3584 2469 3576 
Q 2541 3569 2628 3553 
L 2631 2963 
z
" transform="scale(0.015625)"/>
       <path id="DejaVuSans-6f" d="M 1959 3097 
Q 1497 3097 1228 2736 
Q 959 2375 959 1747 
Q 959 1119 1226 758 
Q 1494 397 1959 397 
Q 2419 397 2687 759 
Q 2956 1122 2956 1747 
Q 2956 2369 2687 2733 
Q 2419 3097 1959 3097 
z
M 1959 3584 
Q 2709 3584 3137 3096 
Q 3566 2609 3566 1747 
Q 3566 888 3137 398 
Q 2709 -91 1959 -91 
Q 1206 -91 779 398 
Q 353 888 353 1747 
Q 353 2609 779 3096 
Q 1206 3584 1959 3584 
z
" transform="scale(0.015625)"/>
      </defs>
      <use xlink:href="#DejaVuSans-393" transform="translate(0 0.09375)"/>
      <use xlink:href="#DejaVuSans-6d" transform="translate(56.669922 -16.3125) scale(0.7)"/>
      <use xlink:href="#DejaVuSans-69" transform="translate(124.858398 -16.3125) scale(0.7)"/>
      <use xlink:href="#DejaVuSans-72" transform="translate(144.306641 -16.3125) scale(0.7)"/>
      <use xlink:href="#DejaVuSans-72" transform="translate(173.085938 -16.3125) scale(0.7)"/>
      <use xlink:href="#DejaVuSans-6f" transform="translate(201.865234 -16.3125) scale(0.7)"/>
      <use xlink:href="#DejaVuSans-72" transform="translate(244.692383 -16.3125) scale(0.7)"/>
     </g>
     <!--  (10$^{24}$ /m$^2$/s) -->
     <g transform="translate(28.52 228.134954) rotate(-90) scale(0.1 -0.1)">
      <use xlink:href="#Helvetica-20" transform="translate(0 0.765625)"/>
      <use xlink:href="#Helvetica-28" transform="translate(27.783203 0.765625)"/>
      <use xlink:href="#Helvetica-31" transform="translate(61.083984 0.765625)"/>
      <use xlink:href="#Helvetica-30" transform="translate(116.699219 0.765625)"/>
      <use xlink:href="#DejaVuSans-32" transform="translate(173.271484 39.046875) scale(0.7)"/>
      <use xlink:href="#DejaVuSans-34" transform="translate(217.807617 39.046875) scale(0.7)"/>
      <use xlink:href="#Helvetica-20" transform="translate(265.078125 0.765625)"/>
      <use xlink:href="#Helvetica-2f" transform="translate(292.861328 0.765625)"/>
      <use xlink:href="#Helvetica-6d" transform="translate(320.644531 0.765625)"/>
      <use xlink:href="#DejaVuSans-32" transform="translate(404.902344 39.046875) scale(0.7)"/>
      <use xlink:href="#Helvetica-2f" transform="translate(452.172852 0.765625)"/>
      <use xlink:href="#Helvetica-73" transform="translate(479.956055 0.765625)"/>
      <use xlink:href="#Helvetica-29" transform="translate(529.956055 0.765625)"/>
     </g>
    </g>
   </g>
   <g id="line2d_29">
    <path d="M 48.67875 199.934954 
L 50.364375 199.934954 
L 52.05 200.497483 
L 53.735625 201.06631 
L 55.42125 201.641744 
L 57.106875 202.222384 
L 58.7925 202.809582 
L 60.478125 203.401498 
L 62.16375 203.998685 
L 63.849375 204.600195 
L 65.535 205.206487 
L 67.220625 205.816323 
L 68.90625 206.429659 
L 70.591875 207.04545 
L 72.2775 207.664226 
L 73.963125 208.28445 
L 75.64875 208.906335 
L 77.334375 209.528637 
L 79.02 210.151379 
L 80.705625 210.773039 
L 82.39125 211.394032 
L 84.076875 212.013127 
L 85.7625 212.629866 
L 87.448125 213.243151 
L 89.13375 213.852722 
L 90.819375 214.457519 
L 92.505 215.05689 
L 94.190625 215.650142 
L 95.87625 216.236667 
L 97.561875 216.815533 
L 99.2475 217.385923 
L 100.933125 217.947336 
L 102.61875 218.498949 
L 104.304375 219.040106 
L 105.99 219.570019 
L 107.675625 220.088353 
L 109.36125 220.594429 
L 111.046875 221.087622 
L 112.7325 221.567281 
L 114.418125 222.033178 
L 116.10375 222.484842 
L 117.789375 222.921822 
L 119.475 223.343831 
L 121.160625 223.750711 
L 122.84625 224.141993 
L 124.531875 224.51742 
L 126.2175 224.877542 
L 127.903125 225.222096 
L 129.58875 225.55078 
L 131.274375 225.864079 
L 132.96 226.162108 
L 134.645625 226.44463 
L 136.33125 226.71172 
L 138.016875 226.963692 
L 139.7025 227.201298 
L 141.388125 227.4249 
L 143.07375 227.634789 
L 144.759375 227.830952 
L 146.445 228.013959 
L 148.130625 228.184522 
L 149.81625 228.342925 
L 151.501875 228.489703 
L 153.1875 228.625316 
L 154.873125 228.750271 
L 156.55875 228.864981 
L 158.244375 228.96994 
L 159.93 229.065732 
L 161.615625 229.15285 
L 163.30125 229.231674 
L 164.986875 229.302646 
L 166.6725 229.366274 
L 168.358125 229.42294 
L 170.04375 229.473084 
L 171.729375 229.517072 
L 173.415 229.55524 
L 175.100625 229.587866 
L 176.78625 229.615261 
L 178.471875 229.637752 
L 180.1575 229.655504 
L 181.843125 229.668745 
L 183.52875 229.677705 
L 185.214375 229.682481 
" clip-path="url(#p37d6125822)" style="fill: none; stroke: #1f77b4; stroke-width: 1.5; stroke-linecap: square"/>
   </g>
   <g id="line2d_30">
    <path d="M 48.67875 199.934954 
L 50.364375 199.934954 
L 52.05 200.270707 
L 53.735625 200.610892 
L 55.42125 200.95572 
L 57.106875 201.304409 
L 58.7925 201.657774 
L 60.478125 202.01479 
L 62.16375 202.375778 
L 63.849375 202.740255 
L 65.535 203.108487 
L 67.220625 203.479817 
L 68.90625 203.854199 
L 70.591875 204.231099 
L 72.2775 204.610808 
L 73.963125 204.992504 
L 75.64875 205.376271 
L 77.334375 205.761468 
L 79.02 206.148059 
L 80.705625 206.535222 
L 82.39125 206.923165 
L 84.076875 207.31123 
L 85.7625 207.699098 
L 87.448125 208.086161 
L 89.13375 208.472235 
L 90.819375 208.856709 
L 92.505 209.239164 
L 94.190625 209.619188 
L 95.87625 209.996399 
L 97.561875 210.370206 
L 99.2475 210.74009 
L 100.933125 211.105713 
L 102.61875 211.466547 
L 104.304375 211.822136 
L 105.99 212.171957 
L 107.675625 212.515749 
L 109.36125 212.853046 
L 111.046875 213.183383 
L 112.7325 213.506288 
L 114.418125 213.821548 
L 116.10375 214.128793 
L 117.789375 214.42765 
L 119.475 214.717852 
L 121.160625 214.999214 
L 122.84625 215.271327 
L 124.531875 215.533925 
L 126.2175 215.787288 
L 127.903125 216.031145 
L 129.58875 216.265175 
L 131.274375 216.489611 
L 132.96 216.704429 
L 134.645625 216.909349 
L 136.33125 217.104295 
L 138.016875 217.289383 
L 139.7025 217.465031 
L 141.388125 217.631399 
L 143.07375 217.788578 
L 144.759375 217.936439 
L 146.445 218.075289 
L 148.130625 218.205541 
L 149.81625 218.327306 
L 151.501875 218.44087 
L 153.1875 218.546484 
L 154.873125 218.64443 
L 156.55875 218.734926 
L 158.244375 218.818259 
L 159.93 218.894793 
L 161.615625 218.964829 
L 163.30125 219.028582 
L 164.986875 219.086326 
L 166.6725 219.13839 
L 168.358125 219.185013 
L 170.04375 219.226486 
L 171.729375 219.263047 
L 173.415 219.294916 
L 175.100625 219.32227 
L 176.78625 219.345321 
L 178.471875 219.364302 
L 180.1575 219.379317 
L 181.843125 219.390531 
L 183.52875 219.398121 
L 185.214375 219.402164 
" clip-path="url(#p37d6125822)" style="fill: none; stroke-dasharray: 5.55,2.4; stroke-dashoffset: 0; stroke: #2ca02c; stroke-width: 1.5"/>
   </g>
   <g id="patch_13">
    <path d="M 49.521563 232.546719 
L 49.521563 167.323189 
" style="fill: none; stroke: #000000; stroke-width: 0.8; stroke-linejoin: miter; stroke-linecap: square"/>
   </g>
   <g id="patch_14">
    <path d="M 184.371562 232.546719 
L 184.371562 167.323189 
" style="fill: none; stroke: #000000; stroke-width: 0.8; stroke-linejoin: miter; stroke-linecap: square"/>
   </g>
   <g id="patch_15">
    <path d="M 49.521563 232.546719 
L 184.371562 232.546719 
" style="fill: none; stroke: #000000; stroke-width: 0.8; stroke-linejoin: miter; stroke-linecap: square"/>
   </g>
   <g id="patch_16">
    <path d="M 49.521563 167.323189 
L 184.371562 167.323189 
" style="fill: none; stroke: #000000; stroke-width: 0.8; stroke-linejoin: miter; stroke-linecap: square"/>
   </g>
   <g id="text_21">
    <!-- (c) -->
    <g transform="translate(66.377813 176.382013) scale(0.1 -0.1)">
     <defs>
      <path id="Helvetica-63" d="M 1703 3444 
Q 2269 3444 2623 3169 
Q 2978 2894 3050 2222 
L 2503 2222 
Q 2453 2531 2275 2736 
Q 2097 2941 1703 2941 
Q 1166 2941 934 2416 
Q 784 2075 784 1575 
Q 784 1072 996 728 
Q 1209 384 1666 384 
Q 2016 384 2220 598 
Q 2425 813 2503 1184 
L 3050 1184 
Q 2956 519 2581 211 
Q 2206 -97 1622 -97 
Q 966 -97 575 383 
Q 184 863 184 1581 
Q 184 2463 612 2953 
Q 1041 3444 1703 3444 
z
M 1616 3428 
L 1616 3428 
z
" transform="scale(0.015625)"/>
     </defs>
     <use xlink:href="#Helvetica-28"/>
     <use xlink:href="#Helvetica-63" x="33.300781"/>
     <use xlink:href="#Helvetica-29" x="83.300781"/>
    </g>
   </g>
   <g id="legend_1">
    <g id="patch_17">
     <path d="M 110.461562 281.036131 
L 281.761563 281.036131 
Q 283.761563 281.036131 283.761563 279.036131 
L 283.761563 265.636131 
Q 283.761563 263.636131 281.761563 263.636131 
L 110.461562 263.636131 
Q 108.461562 263.636131 108.461562 265.636131 
L 108.461562 279.036131 
Q 108.461562 281.036131 110.461562 281.036131 
z
" style="fill: #ffffff; opacity: 0.8; stroke: #cccccc; stroke-linejoin: miter"/>
    </g>
    <g id="line2d_31">
     <path d="M 112.461562 271.436131 
L 122.461562 271.436131 
L 132.461563 271.436131 
" style="fill: none; stroke: #1f77b4; stroke-width: 1.5; stroke-linecap: square"/>
    </g>
    <g id="text_22">
     <!-- (cx$_{\rm{off}}$,iz$_{\rm{off}}$) -->
     <g transform="translate(140.461563 274.936131) scale(0.1 -0.1)">
      <defs>
       <path id="Helvetica-78" d="M 94 3347 
L 822 3347 
L 1591 2169 
L 2369 3347 
L 3053 3331 
L 1925 1716 
L 3103 0 
L 2384 0 
L 1553 1256 
L 747 0 
L 34 0 
L 1213 1716 
L 94 3347 
z
" transform="scale(0.015625)"/>
       <path id="DejaVuSans-66" d="M 2375 4863 
L 2375 4384 
L 1825 4384 
Q 1516 4384 1395 4259 
Q 1275 4134 1275 3809 
L 1275 3500 
L 2222 3500 
L 2222 3053 
L 1275 3053 
L 1275 0 
L 697 0 
L 697 3053 
L 147 3053 
L 147 3500 
L 697 3500 
L 697 3744 
Q 697 4328 969 4595 
Q 1241 4863 1831 4863 
L 2375 4863 
z
" transform="scale(0.015625)"/>
       <path id="Helvetica-2c" d="M 531 -653 
Q 747 -616 834 -350 
Q 881 -209 881 -78 
Q 881 -56 879 -39 
Q 878 -22 872 0 
L 531 0 
L 531 681 
L 1200 681 
L 1200 50 
Q 1200 -322 1050 -603 
Q 900 -884 531 -950 
L 531 -653 
z
" transform="scale(0.015625)"/>
       <path id="Helvetica-69" d="M 413 3331 
L 984 3331 
L 984 0 
L 413 0 
L 413 3331 
z
M 413 4591 
L 984 4591 
L 984 3953 
L 413 3953 
L 413 4591 
z
" transform="scale(0.015625)"/>
       <path id="Helvetica-7a" d="M 163 444 
L 2147 2844 
L 309 2844 
L 309 3347 
L 2903 3347 
L 2903 2888 
L 931 503 
L 2963 503 
L 2963 0 
L 163 0 
L 163 444 
z
M 1609 3428 
L 1609 3428 
z
" transform="scale(0.015625)"/>
      </defs>
      <use xlink:href="#Helvetica-28" transform="translate(0 0.09375)"/>
      <use xlink:href="#Helvetica-63" transform="translate(33.300781 0.09375)"/>
      <use xlink:href="#Helvetica-78" transform="translate(83.300781 0.09375)"/>
      <use xlink:href="#DejaVuSans-6f" transform="translate(134.257812 -16.3125) scale(0.7)"/>
      <use xlink:href="#DejaVuSans-66" transform="translate(177.084961 -16.3125) scale(0.7)"/>
      <use xlink:href="#DejaVuSans-66" transform="translate(201.728516 -16.3125) scale(0.7)"/>
      <use xlink:href="#Helvetica-2c" transform="translate(229.106445 0.09375)"/>
      <use xlink:href="#Helvetica-69" transform="translate(256.889648 0.09375)"/>
      <use xlink:href="#Helvetica-7a" transform="translate(279.106445 0.09375)"/>
      <use xlink:href="#DejaVuSans-6f" transform="translate(330.063477 -16.3125) scale(0.7)"/>
      <use xlink:href="#DejaVuSans-66" transform="translate(372.890625 -16.3125) scale(0.7)"/>
      <use xlink:href="#DejaVuSans-66" transform="translate(397.53418 -16.3125) scale(0.7)"/>
      <use xlink:href="#Helvetica-29" transform="translate(424.912109 0.09375)"/>
     </g>
    </g>
    <g id="line2d_32">
     <path d="M 206.361562 271.436131 
L 216.361562 271.436131 
L 226.361562 271.436131 
" style="fill: none; stroke-dasharray: 5.55,2.4; stroke-dashoffset: 0; stroke: #2ca02c; stroke-width: 1.5"/>
    </g>
    <g id="text_23">
     <!-- (cx$_{\rm{on}}$,iz$_{\rm{off}}$) -->
     <g transform="translate(234.361562 274.936131) scale(0.1 -0.1)">
      <defs>
       <path id="DejaVuSans-6e" d="M 3513 2113 
L 3513 0 
L 2938 0 
L 2938 2094 
Q 2938 2591 2744 2837 
Q 2550 3084 2163 3084 
Q 1697 3084 1428 2787 
Q 1159 2491 1159 1978 
L 1159 0 
L 581 0 
L 581 3500 
L 1159 3500 
L 1159 2956 
Q 1366 3272 1645 3428 
Q 1925 3584 2291 3584 
Q 2894 3584 3203 3211 
Q 3513 2838 3513 2113 
z
" transform="scale(0.015625)"/>
      </defs>
      <use xlink:href="#Helvetica-28" transform="translate(0 0.09375)"/>
      <use xlink:href="#Helvetica-63" transform="translate(33.300781 0.09375)"/>
      <use xlink:href="#Helvetica-78" transform="translate(83.300781 0.09375)"/>
      <use xlink:href="#DejaVuSans-6f" transform="translate(134.257812 -16.3125) scale(0.7)"/>
      <use xlink:href="#DejaVuSans-6e" transform="translate(177.084961 -16.3125) scale(0.7)"/>
      <use xlink:href="#Helvetica-2c" transform="translate(224.18457 0.09375)"/>
      <use xlink:href="#Helvetica-69" transform="translate(251.967773 0.09375)"/>
      <use xlink:href="#Helvetica-7a" transform="translate(274.18457 0.09375)"/>
      <use xlink:href="#DejaVuSans-6f" transform="translate(325.141602 -16.3125) scale(0.7)"/>
      <use xlink:href="#DejaVuSans-66" transform="translate(367.96875 -16.3125) scale(0.7)"/>
      <use xlink:href="#DejaVuSans-66" transform="translate(392.612305 -16.3125) scale(0.7)"/>
      <use xlink:href="#Helvetica-29" transform="translate(419.990234 0.09375)"/>
     </g>
    </g>
   </g>
  </g>
  <g id="axes_4">
   <g id="patch_18">
    <path d="M 238.311563 76.010248 
L 373.161563 76.010248 
L 373.161563 10.786719 
L 238.311563 10.786719 
z
" style="fill: #ffffff"/>
   </g>
   <g id="matplotlib.axis_7">
    <g id="xtick_16">
     <g id="line2d_33">
      <g>
       <use xlink:href="#m6582f74339" x="238.311563" y="76.010248" style="stroke: #000000; stroke-width: 0.8"/>
      </g>
     </g>
    </g>
    <g id="xtick_17">
     <g id="line2d_34">
      <g>
       <use xlink:href="#m6582f74339" x="272.024063" y="76.010248" style="stroke: #000000; stroke-width: 0.8"/>
      </g>
     </g>
    </g>
    <g id="xtick_18">
     <g id="line2d_35">
      <g>
       <use xlink:href="#m6582f74339" x="305.736563" y="76.010248" style="stroke: #000000; stroke-width: 0.8"/>
      </g>
     </g>
    </g>
    <g id="xtick_19">
     <g id="line2d_36">
      <g>
       <use xlink:href="#m6582f74339" x="339.449063" y="76.010248" style="stroke: #000000; stroke-width: 0.8"/>
      </g>
     </g>
    </g>
    <g id="xtick_20">
     <g id="line2d_37">
      <g>
       <use xlink:href="#m6582f74339" x="373.161563" y="76.010248" style="stroke: #000000; stroke-width: 0.8"/>
      </g>
     </g>
    </g>
   </g>
   <g id="matplotlib.axis_8">
    <g id="ytick_10">
     <g id="line2d_38">
      <g>
       <use xlink:href="#mfa36e381a7" x="238.311563" y="76.010248" style="stroke: #000000; stroke-width: 0.8"/>
      </g>
     </g>
     <g id="text_24">
      <!-- −5 -->
      <g transform="translate(223.41 79.596967) scale(0.1 -0.1)">
       <defs>
        <path id="Helvetica-35" d="M 791 1141 
Q 847 659 1238 475 
Q 1438 381 1700 381 
Q 2200 381 2440 700 
Q 2681 1019 2681 1406 
Q 2681 1875 2395 2131 
Q 2109 2388 1709 2388 
Q 1419 2388 1211 2275 
Q 1003 2163 856 1963 
L 369 1991 
L 709 4400 
L 3034 4400 
L 3034 3856 
L 1131 3856 
L 941 2613 
Q 1097 2731 1238 2791 
Q 1488 2894 1816 2894 
Q 2431 2894 2859 2497 
Q 3288 2100 3288 1491 
Q 3288 856 2895 371 
Q 2503 -113 1644 -113 
Q 1097 -113 676 195 
Q 256 503 206 1141 
L 791 1141 
z
" transform="scale(0.015625)"/>
       </defs>
       <use xlink:href="#Helvetica-2212"/>
       <use xlink:href="#Helvetica-35" x="58.398438"/>
      </g>
     </g>
    </g>
    <g id="ytick_11">
     <g id="line2d_39">
      <g>
       <use xlink:href="#mfa36e381a7" x="238.311563" y="43.398483" style="stroke: #000000; stroke-width: 0.8"/>
      </g>
     </g>
     <g id="text_25">
      <!-- 0 -->
      <g transform="translate(229.250625 46.985202) scale(0.1 -0.1)">
       <use xlink:href="#Helvetica-30"/>
      </g>
     </g>
    </g>
    <g id="ytick_12">
     <g id="line2d_40">
      <g>
       <use xlink:href="#mfa36e381a7" x="238.311563" y="10.786719" style="stroke: #000000; stroke-width: 0.8"/>
      </g>
     </g>
     <g id="text_26">
      <!-- 5 -->
      <g transform="translate(229.250625 14.373437) scale(0.1 -0.1)">
       <use xlink:href="#Helvetica-35"/>
      </g>
     </g>
    </g>
    <g id="text_27">
     <!-- $\Gamma_{\rm{drag}}$ -->
     <g transform="translate(203.29 54.398483) rotate(-90) scale(0.1 -0.1)">
      <defs>
       <path id="DejaVuSans-64" d="M 2906 2969 
L 2906 4863 
L 3481 4863 
L 3481 0 
L 2906 0 
L 2906 525 
Q 2725 213 2448 61 
Q 2172 -91 1784 -91 
Q 1150 -91 751 415 
Q 353 922 353 1747 
Q 353 2572 751 3078 
Q 1150 3584 1784 3584 
Q 2172 3584 2448 3432 
Q 2725 3281 2906 2969 
z
M 947 1747 
Q 947 1113 1208 752 
Q 1469 391 1925 391 
Q 2381 391 2643 752 
Q 2906 1113 2906 1747 
Q 2906 2381 2643 2742 
Q 2381 3103 1925 3103 
Q 1469 3103 1208 2742 
Q 947 2381 947 1747 
z
" transform="scale(0.015625)"/>
       <path id="DejaVuSans-61" d="M 2194 1759 
Q 1497 1759 1228 1600 
Q 959 1441 959 1056 
Q 959 750 1161 570 
Q 1363 391 1709 391 
Q 2188 391 2477 730 
Q 2766 1069 2766 1631 
L 2766 1759 
L 2194 1759 
z
M 3341 1997 
L 3341 0 
L 2766 0 
L 2766 531 
Q 2569 213 2275 61 
Q 1981 -91 1556 -91 
Q 1019 -91 701 211 
Q 384 513 384 1019 
Q 384 1609 779 1909 
Q 1175 2209 1959 2209 
L 2766 2209 
L 2766 2266 
Q 2766 2663 2505 2880 
Q 2244 3097 1772 3097 
Q 1472 3097 1187 3025 
Q 903 2953 641 2809 
L 641 3341 
Q 956 3463 1253 3523 
Q 1550 3584 1831 3584 
Q 2591 3584 2966 3190 
Q 3341 2797 3341 1997 
z
" transform="scale(0.015625)"/>
       <path id="DejaVuSans-67" d="M 2906 1791 
Q 2906 2416 2648 2759 
Q 2391 3103 1925 3103 
Q 1463 3103 1205 2759 
Q 947 2416 947 1791 
Q 947 1169 1205 825 
Q 1463 481 1925 481 
Q 2391 481 2648 825 
Q 2906 1169 2906 1791 
z
M 3481 434 
Q 3481 -459 3084 -895 
Q 2688 -1331 1869 -1331 
Q 1566 -1331 1297 -1286 
Q 1028 -1241 775 -1147 
L 775 -588 
Q 1028 -725 1275 -790 
Q 1522 -856 1778 -856 
Q 2344 -856 2625 -561 
Q 2906 -266 2906 331 
L 2906 616 
Q 2728 306 2450 153 
Q 2172 0 1784 0 
Q 1141 0 747 490 
Q 353 981 353 1791 
Q 353 2603 747 3093 
Q 1141 3584 1784 3584 
Q 2172 3584 2450 3431 
Q 2728 3278 2906 2969 
L 2906 3500 
L 3481 3500 
L 3481 434 
z
" transform="scale(0.015625)"/>
      </defs>
      <use xlink:href="#DejaVuSans-393" transform="translate(0 0.09375)"/>
      <use xlink:href="#DejaVuSans-64" transform="translate(56.669922 -16.3125) scale(0.7)"/>
      <use xlink:href="#DejaVuSans-72" transform="translate(101.103516 -16.3125) scale(0.7)"/>
      <use xlink:href="#DejaVuSans-61" transform="translate(129.882812 -16.3125) scale(0.7)"/>
      <use xlink:href="#DejaVuSans-67" transform="translate(172.77832 -16.3125) scale(0.7)"/>
     </g>
     <!--  (10$^{22}$ /m$^2$/s) -->
     <g transform="translate(217.31 71.598483) rotate(-90) scale(0.1 -0.1)">
      <use xlink:href="#Helvetica-20" transform="translate(0 0.765625)"/>
      <use xlink:href="#Helvetica-28" transform="translate(27.783203 0.765625)"/>
      <use xlink:href="#Helvetica-31" transform="translate(61.083984 0.765625)"/>
      <use xlink:href="#Helvetica-30" transform="translate(116.699219 0.765625)"/>
      <use xlink:href="#DejaVuSans-32" transform="translate(173.271484 39.046875) scale(0.7)"/>
      <use xlink:href="#DejaVuSans-32" transform="translate(217.807617 39.046875) scale(0.7)"/>
      <use xlink:href="#Helvetica-20" transform="translate(265.078125 0.765625)"/>
      <use xlink:href="#Helvetica-2f" transform="translate(292.861328 0.765625)"/>
      <use xlink:href="#Helvetica-6d" transform="translate(320.644531 0.765625)"/>
      <use xlink:href="#DejaVuSans-32" transform="translate(404.902344 39.046875) scale(0.7)"/>
      <use xlink:href="#Helvetica-2f" transform="translate(452.172852 0.765625)"/>
      <use xlink:href="#Helvetica-73" transform="translate(479.956055 0.765625)"/>
      <use xlink:href="#Helvetica-29" transform="translate(529.956055 0.765625)"/>
     </g>
    </g>
   </g>
   <g id="line2d_41">
    <path d="M 237.46875 43.398483 
L 239.154375 43.398483 
L 240.84 43.436598 
L 242.525625 43.476423 
L 244.21125 43.517788 
L 245.896875 43.560856 
L 247.5825 43.605766 
L 249.268125 43.652574 
L 250.95375 43.701226 
L 252.639375 43.752066 
L 254.325 43.804955 
L 256.010625 43.860226 
L 257.69625 43.917744 
L 259.381875 43.977747 
L 261.0675 44.040386 
L 262.753125 44.105718 
L 264.43875 44.173879 
L 266.124375 44.245036 
L 267.81 44.319322 
L 269.495625 44.3968 
L 271.18125 44.477717 
L 272.866875 44.562317 
L 274.5525 44.650578 
L 276.238125 44.742805 
L 277.92375 44.83912 
L 279.609375 44.939791 
L 281.295 45.044882 
L 282.980625 45.154721 
L 284.66625 45.269512 
L 286.351875 45.389457 
L 288.0375 45.514696 
L 289.723125 45.645597 
L 291.40875 45.782341 
L 293.094375 45.925176 
L 294.78 46.074308 
L 296.465625 46.23008 
L 298.15125 46.392811 
L 299.836875 46.562665 
L 301.5225 46.739858 
L 303.208125 46.924777 
L 304.89375 47.117738 
L 306.579375 47.318883 
L 308.265 47.528496 
L 309.950625 47.74699 
L 311.63625 47.974528 
L 313.321875 48.210828 
L 315.0075 48.456952 
L 316.693125 48.713244 
L 318.37875 48.97881 
L 320.064375 49.254775 
L 321.75 49.541426 
L 323.435625 49.838117 
L 325.12125 50.144803 
L 326.806875 50.461164 
L 328.4925 50.787939 
L 330.178125 51.125132 
L 331.86375 51.472502 
L 333.549375 51.828902 
L 335.235 52.193293 
L 336.920625 52.566841 
L 338.60625 52.947749 
L 340.291875 53.335135 
L 341.9775 53.728338 
L 343.663125 54.12572 
L 345.34875 54.525957 
L 347.034375 54.926719 
L 348.72 55.326749 
L 350.405625 55.724218 
L 352.09125 56.116292 
L 353.776875 56.499763 
L 355.4625 56.872723 
L 357.148125 57.231806 
L 358.83375 57.573868 
L 360.519375 57.896222 
L 362.205 58.195146 
L 363.890625 58.467839 
L 365.57625 58.71093 
L 367.261875 58.924536 
L 368.9475 59.10879 
L 370.633125 59.265963 
L 372.31875 59.404349 
L 374.004375 59.532358 
" clip-path="url(#p92e78f8d08)" style="fill: none; stroke: #1f77b4; stroke-width: 1.5; stroke-linecap: square"/>
   </g>
   <g id="line2d_42">
    <path d="M 237.46875 43.398483 
L 239.154375 43.398483 
L 240.84 43.425339 
L 242.525625 43.453387 
L 244.21125 43.482496 
L 245.896875 43.512791 
L 247.5825 43.544356 
L 249.268125 43.577244 
L 250.95375 43.611405 
L 252.639375 43.647089 
L 254.325 43.684193 
L 256.010625 43.722953 
L 257.69625 43.763273 
L 259.381875 43.80532 
L 261.0675 43.849201 
L 262.753125 43.894953 
L 264.43875 43.942677 
L 266.124375 43.992482 
L 267.81 44.04447 
L 269.495625 44.09868 
L 271.18125 44.155287 
L 272.866875 44.214461 
L 274.5525 44.276189 
L 276.238125 44.340683 
L 277.92375 44.408031 
L 279.609375 44.478421 
L 281.295 44.551896 
L 282.980625 44.628691 
L 284.66625 44.708947 
L 286.351875 44.792807 
L 288.0375 44.88037 
L 289.723125 44.971897 
L 291.40875 45.067515 
L 293.094375 45.1674 
L 294.78 45.271698 
L 296.465625 45.380652 
L 298.15125 45.494487 
L 299.836875 45.613323 
L 301.5225 45.737311 
L 303.208125 45.866726 
L 304.89375 46.001793 
L 306.579375 46.142615 
L 308.265 46.289395 
L 309.950625 46.442421 
L 311.63625 46.601817 
L 313.321875 46.767382 
L 315.0075 46.939861 
L 316.693125 47.119506 
L 318.37875 47.305679 
L 320.064375 47.499168 
L 321.75 47.700184 
L 323.435625 47.908248 
L 325.12125 48.12334 
L 326.806875 48.345201 
L 328.4925 48.574356 
L 330.178125 48.810778 
L 331.86375 49.054279 
L 333.549375 49.304034 
L 335.235 49.55925 
L 336.920625 49.820758 
L 338.60625 50.087207 
L 340.291875 50.357959 
L 341.9775 50.632489 
L 343.663125 50.909582 
L 345.34875 51.188273 
L 347.034375 51.466842 
L 348.72 51.744408 
L 350.405625 52.019632 
L 352.09125 52.290527 
L 353.776875 52.554814 
L 355.4625 52.811242 
L 357.148125 53.057465 
L 358.83375 53.291421 
L 360.519375 53.51143 
L 362.205 53.715123 
L 363.890625 53.901032 
L 365.57625 54.067374 
L 367.261875 54.215233 
L 368.9475 54.345796 
L 370.633125 54.461954 
L 372.31875 54.570933 
L 374.004375 54.67963 
" clip-path="url(#p92e78f8d08)" style="fill: none; stroke-dasharray: 5.55,2.4; stroke-dashoffset: 0; stroke: #2ca02c; stroke-width: 1.5"/>
   </g>
   <g id="patch_19">
    <path d="M 238.311563 76.010248 
L 238.311563 10.786719 
" style="fill: none; stroke: #000000; stroke-width: 0.8; stroke-linejoin: miter; stroke-linecap: square"/>
   </g>
   <g id="patch_20">
    <path d="M 373.161563 76.010248 
L 373.161563 10.786719 
" style="fill: none; stroke: #000000; stroke-width: 0.8; stroke-linejoin: miter; stroke-linecap: square"/>
   </g>
   <g id="patch_21">
    <path d="M 238.311563 76.010248 
L 373.161563 76.010248 
" style="fill: none; stroke: #000000; stroke-width: 0.8; stroke-linejoin: miter; stroke-linecap: square"/>
   </g>
   <g id="patch_22">
    <path d="M 238.311563 10.786719 
L 373.161563 10.786719 
" style="fill: none; stroke: #000000; stroke-width: 0.8; stroke-linejoin: miter; stroke-linecap: square"/>
   </g>
   <g id="text_28">
    <!-- (d) -->
    <g transform="translate(255.167813 59.704366) scale(0.1 -0.1)">
     <defs>
      <path id="Helvetica-64" d="M 769 1634 
Q 769 1097 997 734 
Q 1225 372 1728 372 
Q 2119 372 2370 708 
Q 2622 1044 2622 1672 
Q 2622 2306 2362 2611 
Q 2103 2916 1722 2916 
Q 1297 2916 1033 2591 
Q 769 2266 769 1634 
z
M 1616 3406 
Q 2000 3406 2259 3244 
Q 2409 3150 2600 2916 
L 2600 4606 
L 3141 4606 
L 3141 0 
L 2634 0 
L 2634 466 
Q 2438 156 2169 18 
Q 1900 -119 1553 -119 
Q 994 -119 584 351 
Q 175 822 175 1603 
Q 175 2334 548 2870 
Q 922 3406 1616 3406 
z
" transform="scale(0.015625)"/>
     </defs>
     <use xlink:href="#Helvetica-28"/>
     <use xlink:href="#Helvetica-64" x="33.300781"/>
     <use xlink:href="#Helvetica-29" x="88.916016"/>
    </g>
   </g>
  </g>
  <g id="axes_5">
   <g id="patch_23">
    <path d="M 238.311563 154.278483 
L 373.161563 154.278483 
L 373.161563 89.054954 
L 238.311563 89.054954 
z
" style="fill: #ffffff"/>
   </g>
   <g id="matplotlib.axis_9">
    <g id="xtick_21">
     <g id="line2d_43">
      <g>
       <use xlink:href="#m6582f74339" x="238.311563" y="154.278483" style="stroke: #000000; stroke-width: 0.8"/>
      </g>
     </g>
    </g>
    <g id="xtick_22">
     <g id="line2d_44">
      <g>
       <use xlink:href="#m6582f74339" x="272.024063" y="154.278483" style="stroke: #000000; stroke-width: 0.8"/>
      </g>
     </g>
    </g>
    <g id="xtick_23">
     <g id="line2d_45">
      <g>
       <use xlink:href="#m6582f74339" x="305.736563" y="154.278483" style="stroke: #000000; stroke-width: 0.8"/>
      </g>
     </g>
    </g>
    <g id="xtick_24">
     <g id="line2d_46">
      <g>
       <use xlink:href="#m6582f74339" x="339.449063" y="154.278483" style="stroke: #000000; stroke-width: 0.8"/>
      </g>
     </g>
    </g>
    <g id="xtick_25">
     <g id="line2d_47">
      <g>
       <use xlink:href="#m6582f74339" x="373.161563" y="154.278483" style="stroke: #000000; stroke-width: 0.8"/>
      </g>
     </g>
    </g>
   </g>
   <g id="matplotlib.axis_10">
    <g id="ytick_13">
     <g id="line2d_48">
      <g>
       <use xlink:href="#mfa36e381a7" x="238.311563" y="154.278483" style="stroke: #000000; stroke-width: 0.8"/>
      </g>
     </g>
     <g id="text_29">
      <!-- −5 -->
      <g transform="translate(223.41 157.865202) scale(0.1 -0.1)">
       <use xlink:href="#Helvetica-2212"/>
       <use xlink:href="#Helvetica-35" x="58.398438"/>
      </g>
     </g>
    </g>
    <g id="ytick_14">
     <g id="line2d_49">
      <g>
       <use xlink:href="#mfa36e381a7" x="238.311563" y="121.666719" style="stroke: #000000; stroke-width: 0.8"/>
      </g>
     </g>
     <g id="text_30">
      <!-- 0 -->
      <g transform="translate(229.250625 125.253437) scale(0.1 -0.1)">
       <use xlink:href="#Helvetica-30"/>
      </g>
     </g>
    </g>
    <g id="ytick_15">
     <g id="line2d_50">
      <g>
       <use xlink:href="#mfa36e381a7" x="238.311563" y="89.054954" style="stroke: #000000; stroke-width: 0.8"/>
      </g>
     </g>
     <g id="text_31">
      <!-- 5 -->
      <g transform="translate(229.250625 92.641673) scale(0.1 -0.1)">
       <use xlink:href="#Helvetica-35"/>
      </g>
     </g>
    </g>
    <g id="text_32">
     <!-- $\Gamma_{\rm{transf}}$ -->
     <g transform="translate(204.305625 134.916719) rotate(-90) scale(0.1 -0.1)">
      <defs>
       <path id="DejaVuSans-74" d="M 1172 4494 
L 1172 3500 
L 2356 3500 
L 2356 3053 
L 1172 3053 
L 1172 1153 
Q 1172 725 1289 603 
Q 1406 481 1766 481 
L 2356 481 
L 2356 0 
L 1766 0 
Q 1100 0 847 248 
Q 594 497 594 1153 
L 594 3053 
L 172 3053 
L 172 3500 
L 594 3500 
L 594 4494 
L 1172 4494 
z
" transform="scale(0.015625)"/>
       <path id="DejaVuSans-73" d="M 2834 3397 
L 2834 2853 
Q 2591 2978 2328 3040 
Q 2066 3103 1784 3103 
Q 1356 3103 1142 2972 
Q 928 2841 928 2578 
Q 928 2378 1081 2264 
Q 1234 2150 1697 2047 
L 1894 2003 
Q 2506 1872 2764 1633 
Q 3022 1394 3022 966 
Q 3022 478 2636 193 
Q 2250 -91 1575 -91 
Q 1294 -91 989 -36 
Q 684 19 347 128 
L 347 722 
Q 666 556 975 473 
Q 1284 391 1588 391 
Q 1994 391 2212 530 
Q 2431 669 2431 922 
Q 2431 1156 2273 1281 
Q 2116 1406 1581 1522 
L 1381 1569 
Q 847 1681 609 1914 
Q 372 2147 372 2553 
Q 372 3047 722 3315 
Q 1072 3584 1716 3584 
Q 2034 3584 2315 3537 
Q 2597 3491 2834 3397 
z
" transform="scale(0.015625)"/>
      </defs>
      <use xlink:href="#DejaVuSans-393" transform="translate(0 0.09375)"/>
      <use xlink:href="#DejaVuSans-74" transform="translate(56.669922 -16.3125) scale(0.7)"/>
      <use xlink:href="#DejaVuSans-72" transform="translate(84.116211 -16.3125) scale(0.7)"/>
      <use xlink:href="#DejaVuSans-61" transform="translate(112.895508 -16.3125) scale(0.7)"/>
      <use xlink:href="#DejaVuSans-6e" transform="translate(155.791016 -16.3125) scale(0.7)"/>
      <use xlink:href="#DejaVuSans-73" transform="translate(200.15625 -16.3125) scale(0.7)"/>
      <use xlink:href="#DejaVuSans-66" transform="translate(236.625977 -16.3125) scale(0.7)"/>
     </g>
     <!--  (10$^{22}$ /m$^2$/s) -->
     <g transform="translate(217.31 149.866719) rotate(-90) scale(0.1 -0.1)">
      <use xlink:href="#Helvetica-20" transform="translate(0 0.765625)"/>
      <use xlink:href="#Helvetica-28" transform="translate(27.783203 0.765625)"/>
      <use xlink:href="#Helvetica-31" transform="translate(61.083984 0.765625)"/>
      <use xlink:href="#Helvetica-30" transform="translate(116.699219 0.765625)"/>
      <use xlink:href="#DejaVuSans-32" transform="translate(173.271484 39.046875) scale(0.7)"/>
      <use xlink:href="#DejaVuSans-32" transform="translate(217.807617 39.046875) scale(0.7)"/>
      <use xlink:href="#Helvetica-20" transform="translate(265.078125 0.765625)"/>
      <use xlink:href="#Helvetica-2f" transform="translate(292.861328 0.765625)"/>
      <use xlink:href="#Helvetica-6d" transform="translate(320.644531 0.765625)"/>
      <use xlink:href="#DejaVuSans-32" transform="translate(404.902344 39.046875) scale(0.7)"/>
      <use xlink:href="#Helvetica-2f" transform="translate(452.172852 0.765625)"/>
      <use xlink:href="#Helvetica-73" transform="translate(479.956055 0.765625)"/>
      <use xlink:href="#Helvetica-29" transform="translate(529.956055 0.765625)"/>
     </g>
    </g>
   </g>
   <g id="line2d_51">
    <path d="M 237.46875 121.666719 
L 239.154375 121.666719 
L 240.84 121.699681 
L 242.525625 121.731847 
L 244.21125 121.763331 
L 245.896875 121.794039 
L 247.5825 121.82408 
L 249.268125 121.853364 
L 250.95375 121.881993 
L 252.639375 121.909881 
L 254.325 121.937121 
L 256.010625 121.963637 
L 257.69625 121.989511 
L 259.381875 122.014674 
L 261.0675 122.039203 
L 262.753125 122.063032 
L 264.43875 122.086235 
L 266.124375 122.108753 
L 267.81 122.13065 
L 269.495625 122.151879 
L 271.18125 122.172495 
L 272.866875 122.192461 
L 274.5525 122.211824 
L 276.238125 122.230557 
L 277.92375 122.248698 
L 279.609375 122.266234 
L 281.295 122.283192 
L 282.980625 122.299569 
L 284.66625 122.315388 
L 286.351875 122.330651 
L 288.0375 122.345378 
L 289.723125 122.359579 
L 291.40875 122.373267 
L 293.094375 122.386457 
L 294.78 122.399163 
L 296.465625 122.411401 
L 298.15125 122.423184 
L 299.836875 122.434529 
L 301.5225 122.44545 
L 303.208125 122.455964 
L 304.89375 122.466084 
L 306.579375 122.475828 
L 308.265 122.485211 
L 309.950625 122.494246 
L 311.63625 122.502951 
L 313.321875 122.511338 
L 315.0075 122.519423 
L 316.693125 122.527219 
L 318.37875 122.534739 
L 320.064375 122.541997 
L 321.75 122.549006 
L 323.435625 122.555775 
L 325.12125 122.56232 
L 326.806875 122.568648 
L 328.4925 122.574773 
L 330.178125 122.580702 
L 331.86375 122.586446 
L 333.549375 122.592012 
L 335.235 122.597409 
L 336.920625 122.602646 
L 338.60625 122.607728 
L 340.291875 122.612663 
L 341.9775 122.617457 
L 343.663125 122.622115 
L 345.34875 122.626642 
L 347.034375 122.631043 
L 348.72 122.635324 
L 350.405625 122.639486 
L 352.09125 122.643535 
L 353.776875 122.647473 
L 355.4625 122.651305 
L 357.148125 122.655031 
L 358.83375 122.658655 
L 360.519375 122.662178 
L 362.205 122.665603 
L 363.890625 122.668932 
L 365.57625 122.672166 
L 367.261875 122.675304 
L 368.9475 122.678349 
L 370.633125 122.681298 
L 372.31875 122.684152 
L 374.004375 122.68691 
" clip-path="url(#pb6963968a0)" style="fill: none; stroke: #1f77b4; stroke-width: 1.5; stroke-linecap: square"/>
   </g>
   <g id="line2d_52">
    <path d="M 237.46875 121.666719 
L 239.154375 121.666719 
L 240.84 121.644208 
L 242.525625 121.622175 
L 244.21125 121.60057 
L 245.896875 121.579437 
L 247.5825 121.558731 
L 249.268125 121.538491 
L 250.95375 121.518675 
L 252.639375 121.499317 
L 254.325 121.480379 
L 256.010625 121.461891 
L 257.69625 121.443819 
L 259.381875 121.426186 
L 261.0675 121.408965 
L 262.753125 121.392171 
L 264.43875 121.375783 
L 266.124375 121.359811 
L 267.81 121.344236 
L 269.495625 121.329066 
L 271.18125 121.314283 
L 272.866875 121.299894 
L 274.5525 121.285881 
L 276.238125 121.272249 
L 277.92375 121.258982 
L 279.609375 121.246082 
L 281.295 121.233535 
L 282.980625 121.221341 
L 284.66625 121.209487 
L 286.351875 121.197972 
L 288.0375 121.186785 
L 289.723125 121.175921 
L 291.40875 121.16537 
L 293.094375 121.155128 
L 294.78 121.145185 
L 296.465625 121.135535 
L 298.15125 121.12617 
L 299.836875 121.117083 
L 301.5225 121.108265 
L 303.208125 121.099711 
L 304.89375 121.091412 
L 306.579375 121.083361 
L 308.265 121.075551 
L 309.950625 121.067973 
L 311.63625 121.060623 
L 313.321875 121.05349 
L 315.0075 121.046569 
L 316.693125 121.039854 
L 318.37875 121.033337 
L 320.064375 121.027011 
L 321.75 121.02087 
L 323.435625 121.014907 
L 325.12125 121.009117 
L 326.806875 121.003492 
L 328.4925 120.998026 
L 330.178125 120.992715 
L 331.86375 120.987551 
L 333.549375 120.98253 
L 335.235 120.977645 
L 336.920625 120.972891 
L 338.60625 120.968264 
L 340.291875 120.963756 
L 341.9775 120.959365 
L 343.663125 120.955084 
L 345.34875 120.950909 
L 347.034375 120.946834 
L 348.72 120.942855 
L 350.405625 120.938966 
L 352.09125 120.935164 
L 353.776875 120.931443 
L 355.4625 120.927797 
L 357.148125 120.924224 
L 358.83375 120.920717 
L 360.519375 120.917272 
L 362.205 120.913885 
L 363.890625 120.910549 
L 365.57625 120.907262 
L 367.261875 120.904018 
L 368.9475 120.900812 
L 370.633125 120.897641 
L 372.31875 120.894499 
L 374.004375 120.891385 
" clip-path="url(#pb6963968a0)" style="fill: none; stroke-dasharray: 5.55,2.4; stroke-dashoffset: 0; stroke: #2ca02c; stroke-width: 1.5"/>
   </g>
   <g id="patch_24">
    <path d="M 238.311563 154.278483 
L 238.311563 89.054954 
" style="fill: none; stroke: #000000; stroke-width: 0.8; stroke-linejoin: miter; stroke-linecap: square"/>
   </g>
   <g id="patch_25">
    <path d="M 373.161563 154.278483 
L 373.161563 89.054954 
" style="fill: none; stroke: #000000; stroke-width: 0.8; stroke-linejoin: miter; stroke-linecap: square"/>
   </g>
   <g id="patch_26">
    <path d="M 238.311563 154.278483 
L 373.161563 154.278483 
" style="fill: none; stroke: #000000; stroke-width: 0.8; stroke-linejoin: miter; stroke-linecap: square"/>
   </g>
   <g id="patch_27">
    <path d="M 238.311563 89.054954 
L 373.161563 89.054954 
" style="fill: none; stroke: #000000; stroke-width: 0.8; stroke-linejoin: miter; stroke-linecap: square"/>
   </g>
   <g id="text_33">
    <!-- (e) -->
    <g transform="translate(255.167813 137.972601) scale(0.1 -0.1)">
     <defs>
      <path id="Helvetica-65" d="M 1806 3422 
Q 2163 3422 2497 3255 
Q 2831 3088 3006 2822 
Q 3175 2569 3231 2231 
Q 3281 2000 3281 1494 
L 828 1494 
Q 844 984 1069 676 
Q 1294 369 1766 369 
Q 2206 369 2469 659 
Q 2619 828 2681 1050 
L 3234 1050 
Q 3213 866 3089 639 
Q 2966 413 2813 269 
Q 2556 19 2178 -69 
Q 1975 -119 1719 -119 
Q 1094 -119 659 336 
Q 225 791 225 1609 
Q 225 2416 662 2919 
Q 1100 3422 1806 3422 
z
M 2703 1941 
Q 2669 2306 2544 2525 
Q 2313 2931 1772 2931 
Q 1384 2931 1121 2651 
Q 859 2372 844 1941 
L 2703 1941 
z
M 1753 3428 
L 1753 3428 
z
" transform="scale(0.015625)"/>
     </defs>
     <use xlink:href="#Helvetica-28"/>
     <use xlink:href="#Helvetica-65" x="33.300781"/>
     <use xlink:href="#Helvetica-29" x="88.916016"/>
    </g>
   </g>
  </g>
  <g id="axes_6">
   <g id="patch_28">
    <path d="M 238.311563 232.546719 
L 373.161563 232.546719 
L 373.161563 167.323189 
L 238.311563 167.323189 
z
" style="fill: #ffffff"/>
   </g>
   <g id="matplotlib.axis_11">
    <g id="xtick_26">
     <g id="line2d_53">
      <g>
       <use xlink:href="#m6582f74339" x="238.311563" y="232.546719" style="stroke: #000000; stroke-width: 0.8"/>
      </g>
     </g>
     <g id="text_34">
      <!-- 2.0 -->
      <g transform="translate(231.361563 243.220156) scale(0.1 -0.1)">
       <use xlink:href="#Helvetica-32"/>
       <use xlink:href="#Helvetica-2e" x="55.615234"/>
       <use xlink:href="#Helvetica-30" x="83.398438"/>
      </g>
     </g>
    </g>
    <g id="xtick_27">
     <g id="line2d_54">
      <g>
       <use xlink:href="#m6582f74339" x="272.024063" y="232.546719" style="stroke: #000000; stroke-width: 0.8"/>
      </g>
     </g>
     <g id="text_35">
      <!-- 2.2 -->
      <g transform="translate(265.074063 243.220156) scale(0.1 -0.1)">
       <use xlink:href="#Helvetica-32"/>
       <use xlink:href="#Helvetica-2e" x="55.615234"/>
       <use xlink:href="#Helvetica-32" x="83.398438"/>
      </g>
     </g>
    </g>
    <g id="xtick_28">
     <g id="line2d_55">
      <g>
       <use xlink:href="#m6582f74339" x="305.736563" y="232.546719" style="stroke: #000000; stroke-width: 0.8"/>
      </g>
     </g>
     <g id="text_36">
      <!-- 2.4 -->
      <g transform="translate(298.786563 243.220156) scale(0.1 -0.1)">
       <use xlink:href="#Helvetica-32"/>
       <use xlink:href="#Helvetica-2e" x="55.615234"/>
       <use xlink:href="#Helvetica-34" x="83.398438"/>
      </g>
     </g>
    </g>
    <g id="xtick_29">
     <g id="line2d_56">
      <g>
       <use xlink:href="#m6582f74339" x="339.449063" y="232.546719" style="stroke: #000000; stroke-width: 0.8"/>
      </g>
     </g>
     <g id="text_37">
      <!-- 2.6 -->
      <g transform="translate(332.499063 243.220156) scale(0.1 -0.1)">
       <use xlink:href="#Helvetica-32"/>
       <use xlink:href="#Helvetica-2e" x="55.615234"/>
       <use xlink:href="#Helvetica-36" x="83.398438"/>
      </g>
     </g>
    </g>
    <g id="xtick_30">
     <g id="line2d_57">
      <g>
       <use xlink:href="#m6582f74339" x="373.161563" y="232.546719" style="stroke: #000000; stroke-width: 0.8"/>
      </g>
     </g>
     <g id="text_38">
      <!-- 2.8 -->
      <g transform="translate(366.211563 243.220156) scale(0.1 -0.1)">
       <use xlink:href="#Helvetica-32"/>
       <use xlink:href="#Helvetica-2e" x="55.615234"/>
       <use xlink:href="#Helvetica-38" x="83.398438"/>
      </g>
     </g>
    </g>
    <g id="text_39">
     <!-- s (m) -->
     <g transform="translate(294.352969 256.551406) scale(0.1 -0.1)">
      <use xlink:href="#Helvetica-73"/>
      <use xlink:href="#Helvetica-20" x="50"/>
      <use xlink:href="#Helvetica-28" x="77.783203"/>
      <use xlink:href="#Helvetica-6d" x="111.083984"/>
      <use xlink:href="#Helvetica-29" x="194.384766"/>
     </g>
    </g>
   </g>
   <g id="matplotlib.axis_12">
    <g id="ytick_16">
     <g id="line2d_58">
      <g>
       <use xlink:href="#mfa36e381a7" x="238.311563" y="232.546719" style="stroke: #000000; stroke-width: 0.8"/>
      </g>
     </g>
     <g id="text_40">
      <!-- −5 -->
      <g transform="translate(223.41 236.133437) scale(0.1 -0.1)">
       <use xlink:href="#Helvetica-2212"/>
       <use xlink:href="#Helvetica-35" x="58.398438"/>
      </g>
     </g>
    </g>
    <g id="ytick_17">
     <g id="line2d_59">
      <g>
       <use xlink:href="#mfa36e381a7" x="238.311563" y="199.934954" style="stroke: #000000; stroke-width: 0.8"/>
      </g>
     </g>
     <g id="text_41">
      <!-- 0 -->
      <g transform="translate(229.250625 203.521673) scale(0.1 -0.1)">
       <use xlink:href="#Helvetica-30"/>
      </g>
     </g>
    </g>
    <g id="ytick_18">
     <g id="line2d_60">
      <g>
       <use xlink:href="#mfa36e381a7" x="238.311563" y="167.323189" style="stroke: #000000; stroke-width: 0.8"/>
      </g>
     </g>
     <g id="text_42">
      <!-- 5 -->
      <g transform="translate(229.250625 170.909908) scale(0.1 -0.1)">
       <use xlink:href="#Helvetica-35"/>
      </g>
     </g>
    </g>
    <g id="text_43">
     <!-- $\Gamma_{\rm{sum}}$ -->
     <g transform="translate(204.305625 210.384954) rotate(-90) scale(0.1 -0.1)">
      <defs>
       <path id="DejaVuSans-75" d="M 544 1381 
L 544 3500 
L 1119 3500 
L 1119 1403 
Q 1119 906 1312 657 
Q 1506 409 1894 409 
Q 2359 409 2629 706 
Q 2900 1003 2900 1516 
L 2900 3500 
L 3475 3500 
L 3475 0 
L 2900 0 
L 2900 538 
Q 2691 219 2414 64 
Q 2138 -91 1772 -91 
Q 1169 -91 856 284 
Q 544 659 544 1381 
z
M 1991 3584 
L 1991 3584 
z
" transform="scale(0.015625)"/>
      </defs>
      <use xlink:href="#DejaVuSans-393" transform="translate(0 0.09375)"/>
      <use xlink:href="#DejaVuSans-73" transform="translate(56.669922 -16.3125) scale(0.7)"/>
      <use xlink:href="#DejaVuSans-75" transform="translate(93.139648 -16.3125) scale(0.7)"/>
      <use xlink:href="#DejaVuSans-6d" transform="translate(137.504883 -16.3125) scale(0.7)"/>
     </g>
     <!--  (10$^{22}$ /m$^2$/s) -->
     <g transform="translate(217.31 228.134954) rotate(-90) scale(0.1 -0.1)">
      <use xlink:href="#Helvetica-20" transform="translate(0 0.765625)"/>
      <use xlink:href="#Helvetica-28" transform="translate(27.783203 0.765625)"/>
      <use xlink:href="#Helvetica-31" transform="translate(61.083984 0.765625)"/>
      <use xlink:href="#Helvetica-30" transform="translate(116.699219 0.765625)"/>
      <use xlink:href="#DejaVuSans-32" transform="translate(173.271484 39.046875) scale(0.7)"/>
      <use xlink:href="#DejaVuSans-32" transform="translate(217.807617 39.046875) scale(0.7)"/>
      <use xlink:href="#Helvetica-20" transform="translate(265.078125 0.765625)"/>
      <use xlink:href="#Helvetica-2f" transform="translate(292.861328 0.765625)"/>
      <use xlink:href="#Helvetica-6d" transform="translate(320.644531 0.765625)"/>
      <use xlink:href="#DejaVuSans-32" transform="translate(404.902344 39.046875) scale(0.7)"/>
      <use xlink:href="#Helvetica-2f" transform="translate(452.172852 0.765625)"/>
      <use xlink:href="#Helvetica-73" transform="translate(479.956055 0.765625)"/>
      <use xlink:href="#Helvetica-29" transform="translate(529.956055 0.765625)"/>
     </g>
    </g>
   </g>
   <g id="line2d_61">
    <path d="M 237.46875 191.60162 
L 239.154375 191.60162 
L 240.84 191.562774 
L 242.525625 191.492399 
L 244.21125 191.435982 
L 245.896875 191.393936 
L 247.5825 191.321146 
L 249.268125 191.251923 
L 250.95375 191.202894 
L 252.639375 191.118561 
L 254.325 191.061209 
L 256.010625 190.970754 
L 257.69625 190.896382 
L 259.381875 190.824066 
L 261.0675 190.725684 
L 262.753125 190.643471 
L 264.43875 190.545034 
L 266.124375 190.452822 
L 267.81 190.338057 
L 269.495625 190.242104 
L 271.18125 190.130146 
L 272.866875 190.004646 
L 274.5525 189.885775 
L 276.238125 189.755554 
L 277.92375 189.622883 
L 279.609375 189.475523 
L 281.295 189.332909 
L 282.980625 189.177412 
L 284.66625 189.01439 
L 286.351875 188.840087 
L 288.0375 188.668235 
L 289.723125 188.478658 
L 291.40875 188.28493 
L 293.094375 188.078231 
L 294.78 187.868774 
L 296.465625 187.646449 
L 298.15125 187.411471 
L 299.836875 187.165907 
L 301.5225 186.915008 
L 303.208125 186.65032 
L 304.89375 186.371074 
L 306.579375 186.082814 
L 308.265 185.784731 
L 309.950625 185.470657 
L 311.63625 185.136296 
L 313.321875 184.810594 
L 315.0075 184.461037 
L 316.693125 184.083447 
L 318.37875 183.716504 
L 320.064375 183.327808 
L 321.75 182.916169 
L 323.435625 182.498609 
L 325.12125 182.06535 
L 326.806875 181.630746 
L 328.4925 181.178271 
L 330.178125 180.714528 
L 331.86375 180.234198 
L 333.549375 179.745693 
L 335.235 179.261659 
L 336.920625 178.756847 
L 338.60625 178.251324 
L 340.291875 177.742476 
L 341.9775 177.229114 
L 343.663125 176.716528 
L 345.34875 176.203401 
L 347.034375 175.698217 
L 348.72 175.198937 
L 350.405625 174.706784 
L 352.09125 174.225224 
L 353.776875 173.761852 
L 355.4625 173.313286 
L 357.148125 172.885426 
L 358.83375 172.481133 
L 360.519375 172.100603 
L 362.205 171.748843 
L 363.890625 171.426039 
L 365.57625 171.140295 
L 367.261875 170.889106 
L 368.9475 170.676476 
L 370.633125 170.511807 
L 372.31875 170.392493 
L 374.004375 170.323422 
" clip-path="url(#p84973433f1)" style="fill: none; stroke: #1f77b4; stroke-width: 1.5; stroke-linecap: square"/>
   </g>
   <g id="line2d_62">
    <path d="M 237.46875 192.84829 
L 239.154375 192.84829 
L 240.84 192.810629 
L 242.525625 192.749224 
L 244.21125 192.699214 
L 245.896875 192.653829 
L 247.5825 192.592357 
L 249.268125 192.529493 
L 250.95375 192.480561 
L 252.639375 192.407378 
L 254.325 192.351505 
L 256.010625 192.273167 
L 257.69625 192.205026 
L 259.381875 192.136134 
L 261.0675 192.05136 
L 262.753125 191.974526 
L 264.43875 191.887671 
L 266.124375 191.802678 
L 267.81 191.703369 
L 269.495625 191.613916 
L 271.18125 191.514011 
L 272.866875 191.403747 
L 274.5525 191.296898 
L 276.238125 191.18122 
L 277.92375 191.062891 
L 279.609375 190.933619 
L 281.295 190.806024 
L 282.980625 190.668701 
L 284.66625 190.524976 
L 286.351875 190.372373 
L 288.0375 190.219677 
L 289.723125 190.053867 
L 291.40875 189.883512 
L 293.094375 189.702984 
L 294.78 189.518721 
L 296.465625 189.32421 
L 298.15125 189.119257 
L 299.836875 188.905348 
L 301.5225 188.685848 
L 303.208125 188.455167 
L 304.89375 188.212511 
L 306.579375 187.961713 
L 308.265 187.702129 
L 309.950625 187.429539 
L 311.63625 187.140728 
L 313.321875 186.856058 
L 315.0075 186.552842 
L 316.693125 186.227543 
L 318.37875 185.908023 
L 320.064375 185.57127 
L 321.75 185.215924 
L 323.435625 184.854744 
L 325.12125 184.480424 
L 326.806875 184.10386 
L 328.4925 183.712679 
L 330.178125 183.311813 
L 331.86375 182.897445 
L 333.549375 182.475801 
L 335.235 182.05724 
L 336.920625 181.621764 
L 338.60625 181.185568 
L 340.291875 180.746495 
L 341.9775 180.303778 
L 343.663125 179.861925 
L 345.34875 179.419783 
L 347.034375 178.984681 
L 348.72 178.554761 
L 350.405625 178.131435 
L 352.09125 177.717558 
L 353.776875 177.319808 
L 355.4625 176.935066 
L 357.148125 176.568789 
L 358.83375 176.223367 
L 360.519375 175.898921 
L 362.205 175.600215 
L 363.890625 175.327139 
L 365.57625 175.08726 
L 367.261875 174.877825 
L 368.9475 174.70268 
L 370.633125 174.569785 
L 372.31875 174.47547 
L 374.004375 174.424087 
" clip-path="url(#p84973433f1)" style="fill: none; stroke-dasharray: 5.55,2.4; stroke-dashoffset: 0; stroke: #2ca02c; stroke-width: 1.5"/>
   </g>
   <g id="patch_29">
    <path d="M 238.311563 232.546719 
L 238.311563 167.323189 
" style="fill: none; stroke: #000000; stroke-width: 0.8; stroke-linejoin: miter; stroke-linecap: square"/>
   </g>
   <g id="patch_30">
    <path d="M 373.161563 232.546719 
L 373.161563 167.323189 
" style="fill: none; stroke: #000000; stroke-width: 0.8; stroke-linejoin: miter; stroke-linecap: square"/>
   </g>
   <g id="patch_31">
    <path d="M 238.311563 232.546719 
L 373.161563 232.546719 
" style="fill: none; stroke: #000000; stroke-width: 0.8; stroke-linejoin: miter; stroke-linecap: square"/>
   </g>
   <g id="patch_32">
    <path d="M 238.311563 167.323189 
L 373.161563 167.323189 
" style="fill: none; stroke: #000000; stroke-width: 0.8; stroke-linejoin: miter; stroke-linecap: square"/>
   </g>
   <g id="text_44">
    <!-- (f) -->
    <g transform="translate(255.167813 216.240836) scale(0.1 -0.1)">
     <defs>
      <path id="Helvetica-66" d="M 553 3856 
Q 566 4206 675 4369 
Q 872 4656 1434 4656 
Q 1488 4656 1544 4653 
Q 1600 4650 1672 4644 
L 1672 4131 
Q 1584 4138 1545 4139 
Q 1506 4141 1472 4141 
Q 1216 4141 1166 4008 
Q 1116 3875 1116 3331 
L 1672 3331 
L 1672 2888 
L 1109 2888 
L 1109 0 
L 553 0 
L 553 2888 
L 88 2888 
L 88 3331 
L 553 3331 
L 553 3856 
z
" transform="scale(0.015625)"/>
     </defs>
     <use xlink:href="#Helvetica-28"/>
     <use xlink:href="#Helvetica-66" x="33.300781"/>
     <use xlink:href="#Helvetica-29" x="61.083984"/>
    </g>
   </g>
  </g>
 </g>
 <defs>
  <clipPath id="p88698ef220">
   <rect x="49.521563" y="10.786719" width="134.85" height="65.223529"/>
  </clipPath>
  <clipPath id="pefd751f410">
   <rect x="49.521563" y="89.054954" width="134.85" height="65.223529"/>
  </clipPath>
  <clipPath id="p37d6125822">
   <rect x="49.521563" y="167.323189" width="134.85" height="65.223529"/>
  </clipPath>
  <clipPath id="p92e78f8d08">
   <rect x="238.311563" y="10.786719" width="134.85" height="65.223529"/>
  </clipPath>
  <clipPath id="pb6963968a0">
   <rect x="238.311563" y="89.054954" width="134.85" height="65.223529"/>
  </clipPath>
  <clipPath id="p84973433f1">
   <rect x="238.311563" y="167.323189" width="134.85" height="65.223529"/>
  </clipPath>
 </defs>
</svg>
