<?xml version="1.0" encoding="utf-8" standalone="no"?>
<!DOCTYPE svg PUBLIC "-//W3C//DTD SVG 1.1//EN"
  "http://www.w3.org/Graphics/SVG/1.1/DTD/svg11.dtd">
<svg xmlns:xlink="http://www.w3.org/1999/xlink" width="414.474813pt" height="276.369381pt" viewBox="0 0 414.474813 276.369381" xmlns="http://www.w3.org/2000/svg" version="1.1">
 <metadata>
  <rdf:RDF xmlns:dc="http://purl.org/dc/elements/1.1/" xmlns:cc="http://creativecommons.org/ns#" xmlns:rdf="http://www.w3.org/1999/02/22-rdf-syntax-ns#">
   <cc:Work>
    <dc:type rdf:resource="http://purl.org/dc/dcmitype/StillImage"/>
    <dc:date>2024-11-10T12:15:16.125859</dc:date>
    <dc:format>image/svg+xml</dc:format>
    <dc:creator>
     <cc:Agent>
      <dc:title>Matplotlib v3.7.1, https://matplotlib.org/</dc:title>
     </cc:Agent>
    </dc:creator>
   </cc:Work>
  </rdf:RDF>
 </metadata>
 <defs>
  <style type="text/css">*{stroke-linejoin: round; stroke-linecap: butt}</style>
 </defs>
 <g id="figure_1">
  <g id="patch_1">
   <path d="M -0 276.369381 
L 414.474813 276.369381 
L 414.474813 0 
L -0 0 
z
" style="fill: #ffffff"/>
  </g>
  <g id="axes_1">
   <g id="patch_2">
    <path d="M 51.572813 79.108366 
L 335.594813 79.108366 
L 335.594813 10.786719 
L 51.572813 10.786719 
z
" style="fill: #ffffff"/>
   </g>
   <g id="matplotlib.axis_1">
    <g id="xtick_1">
     <g id="line2d_1">
      <defs>
       <path id="mffa6375322" d="M 0 0 
L 0 -3.5 
" style="stroke: #000000; stroke-width: 0.8"/>
      </defs>
      <g>
       <use xlink:href="#mffa6375322" x="51.572813" y="79.108366" style="stroke: #000000; stroke-width: 0.8"/>
      </g>
     </g>
    </g>
    <g id="xtick_2">
     <g id="line2d_2">
      <g>
       <use xlink:href="#mffa6375322" x="108.377213" y="79.108366" style="stroke: #000000; stroke-width: 0.8"/>
      </g>
     </g>
    </g>
    <g id="xtick_3">
     <g id="line2d_3">
      <g>
       <use xlink:href="#mffa6375322" x="165.181613" y="79.108366" style="stroke: #000000; stroke-width: 0.8"/>
      </g>
     </g>
    </g>
    <g id="xtick_4">
     <g id="line2d_4">
      <g>
       <use xlink:href="#mffa6375322" x="221.986013" y="79.108366" style="stroke: #000000; stroke-width: 0.8"/>
      </g>
     </g>
    </g>
    <g id="xtick_5">
     <g id="line2d_5">
      <g>
       <use xlink:href="#mffa6375322" x="278.790413" y="79.108366" style="stroke: #000000; stroke-width: 0.8"/>
      </g>
     </g>
    </g>
    <g id="xtick_6">
     <g id="line2d_6">
      <g>
       <use xlink:href="#mffa6375322" x="335.594813" y="79.108366" style="stroke: #000000; stroke-width: 0.8"/>
      </g>
     </g>
    </g>
   </g>
   <g id="matplotlib.axis_2">
    <g id="ytick_1">
     <g id="line2d_7">
      <defs>
       <path id="m5a0e45235b" d="M 0 0 
L 3.5 0 
" style="stroke: #000000; stroke-width: 0.8"/>
      </defs>
      <g>
       <use xlink:href="#m5a0e45235b" x="51.572813" y="48.743189" style="stroke: #000000; stroke-width: 0.8"/>
      </g>
     </g>
     <g id="text_1">
      <!-- 4 -->
      <g transform="translate(42.511875 52.329908) scale(0.1 -0.1)">
       <defs>
        <path id="Helvetica-34" d="M 2116 1584 
L 2116 3613 
L 681 1584 
L 2116 1584 
z
M 2125 0 
L 2125 1094 
L 163 1094 
L 163 1644 
L 2213 4488 
L 2688 4488 
L 2688 1584 
L 3347 1584 
L 3347 1094 
L 2688 1094 
L 2688 0 
L 2125 0 
z
" transform="scale(0.015625)"/>
       </defs>
       <use xlink:href="#Helvetica-34"/>
      </g>
     </g>
    </g>
    <g id="ytick_2">
     <g id="line2d_8">
      <g>
       <use xlink:href="#m5a0e45235b" x="51.572813" y="10.786719" style="stroke: #000000; stroke-width: 0.8"/>
      </g>
     </g>
     <g id="text_2">
      <!-- 5 -->
      <g transform="translate(42.511875 14.373438) scale(0.1 -0.1)">
       <defs>
        <path id="Helvetica-35" d="M 791 1141 
Q 847 659 1238 475 
Q 1438 381 1700 381 
Q 2200 381 2440 700 
Q 2681 1019 2681 1406 
Q 2681 1875 2395 2131 
Q 2109 2388 1709 2388 
Q 1419 2388 1211 2275 
Q 1003 2163 856 1963 
L 369 1991 
L 709 4400 
L 3034 4400 
L 3034 3856 
L 1131 3856 
L 941 2613 
Q 1097 2731 1238 2791 
Q 1488 2894 1816 2894 
Q 2431 2894 2859 2497 
Q 3288 2100 3288 1491 
Q 3288 856 2895 371 
Q 2503 -113 1644 -113 
Q 1097 -113 676 195 
Q 256 503 206 1141 
L 791 1141 
z
" transform="scale(0.015625)"/>
       </defs>
       <use xlink:href="#Helvetica-35"/>
      </g>
     </g>
    </g>
    <g id="text_3">
     <!-- stored ion number -->
     <g transform="translate(23.4075 85.244417) rotate(-90) scale(0.1 -0.1)">
      <defs>
       <path id="Helvetica-73" d="M 747 1050 
Q 772 769 888 619 
Q 1100 347 1625 347 
Q 1938 347 2175 483 
Q 2413 619 2413 903 
Q 2413 1119 2222 1231 
Q 2100 1300 1741 1391 
L 1294 1503 
Q 866 1609 663 1741 
Q 300 1969 300 2372 
Q 300 2847 642 3140 
Q 984 3434 1563 3434 
Q 2319 3434 2653 2991 
Q 2863 2709 2856 2384 
L 2325 2384 
Q 2309 2575 2191 2731 
Q 1997 2953 1519 2953 
Q 1200 2953 1036 2831 
Q 872 2709 872 2509 
Q 872 2291 1088 2159 
Q 1213 2081 1456 2022 
L 1828 1931 
Q 2434 1784 2641 1647 
Q 2969 1431 2969 969 
Q 2969 522 2630 197 
Q 2291 -128 1597 -128 
Q 850 -128 539 211 
Q 228 550 206 1050 
L 747 1050 
z
M 1578 3428 
L 1578 3428 
z
" transform="scale(0.015625)"/>
       <path id="Helvetica-74" d="M 525 4281 
L 1094 4281 
L 1094 3347 
L 1628 3347 
L 1628 2888 
L 1094 2888 
L 1094 703 
Q 1094 528 1213 469 
Q 1278 434 1431 434 
Q 1472 434 1519 436 
Q 1566 438 1628 444 
L 1628 0 
Q 1531 -28 1426 -40 
Q 1322 -53 1200 -53 
Q 806 -53 665 148 
Q 525 350 525 672 
L 525 2888 
L 72 2888 
L 72 3347 
L 525 3347 
L 525 4281 
z
" transform="scale(0.015625)"/>
       <path id="Helvetica-6f" d="M 1741 363 
Q 2300 363 2508 786 
Q 2716 1209 2716 1728 
Q 2716 2197 2566 2491 
Q 2328 2953 1747 2953 
Q 1231 2953 997 2559 
Q 763 2166 763 1609 
Q 763 1075 997 719 
Q 1231 363 1741 363 
z
M 1763 3444 
Q 2409 3444 2856 3012 
Q 3303 2581 3303 1744 
Q 3303 934 2909 406 
Q 2516 -122 1688 -122 
Q 997 -122 590 345 
Q 184 813 184 1600 
Q 184 2444 612 2944 
Q 1041 3444 1763 3444 
z
M 1744 3428 
L 1744 3428 
z
" transform="scale(0.015625)"/>
       <path id="Helvetica-72" d="M 428 3347 
L 963 3347 
L 963 2769 
Q 1028 2938 1284 3180 
Q 1541 3422 1875 3422 
Q 1891 3422 1928 3419 
Q 1966 3416 2056 3406 
L 2056 2813 
Q 2006 2822 1964 2825 
Q 1922 2828 1872 2828 
Q 1447 2828 1219 2554 
Q 991 2281 991 1925 
L 991 0 
L 428 0 
L 428 3347 
z
" transform="scale(0.015625)"/>
       <path id="Helvetica-65" d="M 1806 3422 
Q 2163 3422 2497 3255 
Q 2831 3088 3006 2822 
Q 3175 2569 3231 2231 
Q 3281 2000 3281 1494 
L 828 1494 
Q 844 984 1069 676 
Q 1294 369 1766 369 
Q 2206 369 2469 659 
Q 2619 828 2681 1050 
L 3234 1050 
Q 3213 866 3089 639 
Q 2966 413 2813 269 
Q 2556 19 2178 -69 
Q 1975 -119 1719 -119 
Q 1094 -119 659 336 
Q 225 791 225 1609 
Q 225 2416 662 2919 
Q 1100 3422 1806 3422 
z
M 2703 1941 
Q 2669 2306 2544 2525 
Q 2313 2931 1772 2931 
Q 1384 2931 1121 2651 
Q 859 2372 844 1941 
L 2703 1941 
z
M 1753 3428 
L 1753 3428 
z
" transform="scale(0.015625)"/>
       <path id="Helvetica-64" d="M 769 1634 
Q 769 1097 997 734 
Q 1225 372 1728 372 
Q 2119 372 2370 708 
Q 2622 1044 2622 1672 
Q 2622 2306 2362 2611 
Q 2103 2916 1722 2916 
Q 1297 2916 1033 2591 
Q 769 2266 769 1634 
z
M 1616 3406 
Q 2000 3406 2259 3244 
Q 2409 3150 2600 2916 
L 2600 4606 
L 3141 4606 
L 3141 0 
L 2634 0 
L 2634 466 
Q 2438 156 2169 18 
Q 1900 -119 1553 -119 
Q 994 -119 584 351 
Q 175 822 175 1603 
Q 175 2334 548 2870 
Q 922 3406 1616 3406 
z
" transform="scale(0.015625)"/>
       <path id="Helvetica-20" transform="scale(0.015625)"/>
       <path id="Helvetica-69" d="M 413 3331 
L 984 3331 
L 984 0 
L 413 0 
L 413 3331 
z
M 413 4591 
L 984 4591 
L 984 3953 
L 413 3953 
L 413 4591 
z
" transform="scale(0.015625)"/>
       <path id="Helvetica-6e" d="M 413 3347 
L 947 3347 
L 947 2872 
Q 1184 3166 1450 3294 
Q 1716 3422 2041 3422 
Q 2753 3422 3003 2925 
Q 3141 2653 3141 2147 
L 3141 0 
L 2569 0 
L 2569 2109 
Q 2569 2416 2478 2603 
Q 2328 2916 1934 2916 
Q 1734 2916 1606 2875 
Q 1375 2806 1200 2600 
Q 1059 2434 1017 2257 
Q 975 2081 975 1753 
L 975 0 
L 413 0 
L 413 3347 
z
M 1734 3428 
L 1734 3428 
z
" transform="scale(0.015625)"/>
       <path id="Helvetica-75" d="M 975 3347 
L 975 1125 
Q 975 869 1056 706 
Q 1206 406 1616 406 
Q 2203 406 2416 931 
Q 2531 1213 2531 1703 
L 2531 3347 
L 3094 3347 
L 3094 0 
L 2563 0 
L 2569 494 
Q 2459 303 2297 172 
Q 1975 -91 1516 -91 
Q 800 -91 541 388 
Q 400 644 400 1072 
L 400 3347 
L 975 3347 
z
M 1747 3428 
L 1747 3428 
z
" transform="scale(0.015625)"/>
       <path id="Helvetica-6d" d="M 413 3347 
L 969 3347 
L 969 2872 
Q 1169 3119 1331 3231 
Q 1609 3422 1963 3422 
Q 2363 3422 2606 3225 
Q 2744 3113 2856 2894 
Q 3044 3163 3297 3292 
Q 3550 3422 3866 3422 
Q 4541 3422 4784 2934 
Q 4916 2672 4916 2228 
L 4916 0 
L 4331 0 
L 4331 2325 
Q 4331 2659 4164 2784 
Q 3997 2909 3756 2909 
Q 3425 2909 3186 2687 
Q 2947 2466 2947 1947 
L 2947 0 
L 2375 0 
L 2375 2184 
Q 2375 2525 2294 2681 
Q 2166 2916 1816 2916 
Q 1497 2916 1236 2669 
Q 975 2422 975 1775 
L 975 0 
L 413 0 
L 413 3347 
z
" transform="scale(0.015625)"/>
       <path id="Helvetica-62" d="M 369 4606 
L 916 4606 
L 916 2941 
Q 1100 3181 1356 3307 
Q 1613 3434 1913 3434 
Q 2538 3434 2927 3004 
Q 3316 2575 3316 1738 
Q 3316 944 2931 419 
Q 2547 -106 1866 -106 
Q 1484 -106 1222 78 
Q 1066 188 888 428 
L 888 0 
L 369 0 
L 369 4606 
z
M 1831 391 
Q 2288 391 2514 753 
Q 2741 1116 2741 1709 
Q 2741 2238 2514 2584 
Q 2288 2931 1847 2931 
Q 1463 2931 1173 2647 
Q 884 2363 884 1709 
Q 884 1238 1003 944 
Q 1225 391 1831 391 
z
" transform="scale(0.015625)"/>
      </defs>
      <use xlink:href="#Helvetica-73"/>
      <use xlink:href="#Helvetica-74" x="50"/>
      <use xlink:href="#Helvetica-6f" x="77.783203"/>
      <use xlink:href="#Helvetica-72" x="133.398438"/>
      <use xlink:href="#Helvetica-65" x="166.699219"/>
      <use xlink:href="#Helvetica-64" x="222.314453"/>
      <use xlink:href="#Helvetica-20" x="277.929688"/>
      <use xlink:href="#Helvetica-69" x="305.712891"/>
      <use xlink:href="#Helvetica-6f" x="327.929688"/>
      <use xlink:href="#Helvetica-6e" x="383.544922"/>
      <use xlink:href="#Helvetica-20" x="439.160156"/>
      <use xlink:href="#Helvetica-6e" x="466.943359"/>
      <use xlink:href="#Helvetica-75" x="522.558594"/>
      <use xlink:href="#Helvetica-6d" x="578.173828"/>
      <use xlink:href="#Helvetica-62" x="661.474609"/>
      <use xlink:href="#Helvetica-65" x="717.089844"/>
      <use xlink:href="#Helvetica-72" x="772.705078"/>
     </g>
     <!--  (10$^{18}$) -->
     <g transform="translate(36.411875 59.897542) rotate(-90) scale(0.1 -0.1)">
      <defs>
       <path id="Helvetica-28" d="M 1894 4666 
Q 1403 3713 1256 3263 
Q 1034 2578 1034 1681 
Q 1034 775 1288 25 
Q 1444 -438 1903 -1306 
L 1525 -1306 
Q 1069 -594 959 -397 
Q 850 -200 722 138 
Q 547 600 478 1125 
Q 444 1397 444 1644 
Q 444 2569 734 3291 
Q 919 3750 1503 4666 
L 1894 4666 
z
" transform="scale(0.015625)"/>
       <path id="Helvetica-31" d="M 613 3169 
L 613 3600 
Q 1222 3659 1462 3798 
Q 1703 3938 1822 4456 
L 2266 4456 
L 2266 0 
L 1666 0 
L 1666 3169 
L 613 3169 
z
" transform="scale(0.015625)"/>
       <path id="Helvetica-30" d="M 1731 4475 
Q 2600 4475 2988 3759 
Q 3288 3206 3288 2244 
Q 3288 1331 3016 734 
Q 2622 -122 1728 -122 
Q 922 -122 528 578 
Q 200 1163 200 2147 
Q 200 2909 397 3456 
Q 766 4475 1731 4475 
z
M 1725 391 
Q 2163 391 2422 778 
Q 2681 1166 2681 2222 
Q 2681 2984 2493 3476 
Q 2306 3969 1766 3969 
Q 1269 3969 1039 3501 
Q 809 3034 809 2125 
Q 809 1441 956 1025 
Q 1181 391 1725 391 
z
" transform="scale(0.015625)"/>
       <path id="DejaVuSans-31" d="M 794 531 
L 1825 531 
L 1825 4091 
L 703 3866 
L 703 4441 
L 1819 4666 
L 2450 4666 
L 2450 531 
L 3481 531 
L 3481 0 
L 794 0 
L 794 531 
z
" transform="scale(0.015625)"/>
       <path id="DejaVuSans-38" d="M 2034 2216 
Q 1584 2216 1326 1975 
Q 1069 1734 1069 1313 
Q 1069 891 1326 650 
Q 1584 409 2034 409 
Q 2484 409 2743 651 
Q 3003 894 3003 1313 
Q 3003 1734 2745 1975 
Q 2488 2216 2034 2216 
z
M 1403 2484 
Q 997 2584 770 2862 
Q 544 3141 544 3541 
Q 544 4100 942 4425 
Q 1341 4750 2034 4750 
Q 2731 4750 3128 4425 
Q 3525 4100 3525 3541 
Q 3525 3141 3298 2862 
Q 3072 2584 2669 2484 
Q 3125 2378 3379 2068 
Q 3634 1759 3634 1313 
Q 3634 634 3220 271 
Q 2806 -91 2034 -91 
Q 1263 -91 848 271 
Q 434 634 434 1313 
Q 434 1759 690 2068 
Q 947 2378 1403 2484 
z
M 1172 3481 
Q 1172 3119 1398 2916 
Q 1625 2713 2034 2713 
Q 2441 2713 2670 2916 
Q 2900 3119 2900 3481 
Q 2900 3844 2670 4047 
Q 2441 4250 2034 4250 
Q 1625 4250 1398 4047 
Q 1172 3844 1172 3481 
z
" transform="scale(0.015625)"/>
       <path id="Helvetica-29" d="M 222 -1306 
Q 719 -338 863 106 
Q 1081 778 1081 1681 
Q 1081 2584 828 3334 
Q 672 3797 213 4666 
L 591 4666 
Q 1072 3897 1173 3717 
Q 1275 3538 1394 3222 
Q 1544 2831 1608 2450 
Q 1672 2069 1672 1716 
Q 1672 791 1378 66 
Q 1194 -400 613 -1306 
L 222 -1306 
z
" transform="scale(0.015625)"/>
      </defs>
      <use xlink:href="#Helvetica-20" transform="translate(0 0.765625)"/>
      <use xlink:href="#Helvetica-28" transform="translate(27.783203 0.765625)"/>
      <use xlink:href="#Helvetica-31" transform="translate(61.083984 0.765625)"/>
      <use xlink:href="#Helvetica-30" transform="translate(116.699219 0.765625)"/>
      <use xlink:href="#DejaVuSans-31" transform="translate(173.271484 39.046875) scale(0.7)"/>
      <use xlink:href="#DejaVuSans-38" transform="translate(217.807617 39.046875) scale(0.7)"/>
      <use xlink:href="#Helvetica-29" transform="translate(265.078125 0.765625)"/>
     </g>
    </g>
   </g>
   <g id="line2d_9">
    <path d="M 51.587014 60.674175 
L 52.524286 55.241423 
L 55.478115 42.500602 
L 57.011834 37.173862 
L 58.360938 33.248744 
L 60.022467 29.290761 
L 61.399974 26.686508 
L 62.280442 25.354078 
L 63.686351 23.583125 
L 65.305276 22.132333 
L 67.03781 21.173926 
L 68.614133 20.719301 
L 69.679215 24.615734 
L 71.55376 29.713817 
L 75.317052 37.781326 
L 77.461418 41.320716 
L 79.321762 43.972085 
L 81.096899 46.171712 
L 83.113456 48.362359 
L 85.10161 50.25145 
L 87.274378 52.058973 
L 89.929984 53.969617 
L 92.59979 55.632606 
L 95.752435 57.315214 
L 98.976084 58.780684 
L 102.384348 60.099419 
L 106.090835 61.307143 
L 110.166551 62.403464 
L 114.625697 63.368779 
L 119.454071 64.179643 
L 124.694276 64.82936 
L 130.502526 65.319266 
L 136.921424 65.63448 
L 144.291794 65.769781 
L 153.053873 65.700438 
L 164.102329 65.377931 
L 180.206376 64.663729 
L 225.081852 62.5871 
L 246.3551 61.879623 
L 269.304078 61.346756 
L 294.653041 60.983584 
L 326.151081 60.758399 
L 335.594813 60.723328 
L 335.594813 60.723328 
" clip-path="url(#p01888ed120)" style="fill: none; stroke: #1f77b4; stroke-width: 1.5; stroke-linecap: square"/>
   </g>
   <g id="line2d_10">
    <path d="M 51.587014 60.674175 
L 52.538487 55.140228 
L 55.591724 41.911843 
L 57.026035 36.968524 
L 58.389341 33.052514 
L 59.951462 29.438255 
L 60.988142 27.536226 
L 62.110029 25.791843 
L 63.586943 24.058281 
L 64.978651 22.923544 
L 65.859119 22.455005 
L 67.208224 21.947243 
L 68.628334 21.784622 
L 69.750221 25.844117 
L 72.221212 32.266688 
L 74.081556 36.387219 
L 75.785688 39.607661 
L 78.12887 43.298347 
L 79.705192 45.419048 
L 81.423525 47.459436 
L 83.42588 49.5497 
L 85.442436 51.389263 
L 87.629405 53.133342 
L 90.256609 54.944298 
L 93.068427 56.618064 
L 96.292076 58.255261 
L 99.615134 59.689543 
L 103.165409 60.98697 
L 107.028108 62.164643 
L 111.288438 63.223041 
L 115.719181 64.095317 
L 120.632762 64.832315 
L 126.014979 65.407462 
L 131.922636 65.81068 
L 138.639757 66.039515 
L 146.379356 66.073739 
L 155.709479 65.884828 
L 167.979229 65.40094 
L 190.076141 64.263827 
L 217.541068 62.916982 
L 238.558696 62.116903 
L 260.030759 61.5268 
L 283.647189 61.103527 
L 312.205601 60.822082 
L 335.594813 60.713626 
L 335.594813 60.713626 
" clip-path="url(#p01888ed120)" style="fill: none; stroke-dasharray: 1.5,2.475; stroke-dashoffset: 0; stroke: #ff7f0e; stroke-width: 1.5"/>
   </g>
   <g id="line2d_11">
    <path d="M 51.587014 60.674285 
L 52.268666 56.919221 
L 52.808308 55.11833 
L 53.930195 51.930813 
L 54.839066 50.015121 
L 55.960952 48.085512 
L 57.040236 46.817586 
L 57.622481 46.419467 
L 59.014189 45.887411 
L 59.710043 45.867984 
L 61.002343 46.006058 
L 62.805883 46.380667 
L 64.027177 46.352904 
L 68.642535 46.253332 
L 69.423595 48.284628 
L 69.977438 49.172944 
L 74.365578 53.751123 
L 76.154917 55.294199 
L 78.569104 56.983512 
L 80.798676 58.334584 
L 83.156059 59.52418 
L 86.01048 60.720202 
L 89.120521 61.787171 
L 92.827008 62.807904 
L 96.902724 63.682905 
L 104.954747 65.316848 
L 108.916854 66.069627 
L 113.148782 66.658898 
L 117.934553 67.100579 
L 123.387775 67.374743 
L 129.678863 67.461952 
L 137.162842 67.33569 
L 146.521367 66.94521 
L 159.799396 66.149325 
L 206.151786 63.215395 
L 224.485406 62.371005 
L 243.472277 61.722989 
L 264.362095 61.2372 
L 288.716981 60.89865 
L 320.07301 60.697908 
L 335.594813 60.658031 
L 335.594813 60.658031 
" clip-path="url(#p01888ed120)" style="fill: none; stroke-dasharray: 5.55,2.4; stroke-dashoffset: 0; stroke: #2ca02c; stroke-width: 1.5"/>
   </g>
   <g id="line2d_12">
    <path d="M 51.587014 60.674285 
L 52.282868 56.84014 
L 52.83671 54.964554 
L 53.930195 51.771698 
L 54.839066 49.781807 
L 55.960952 47.771719 
L 56.955029 46.559843 
L 57.594079 46.072975 
L 58.843776 45.58122 
L 59.568032 45.537238 
L 61.059147 45.791913 
L 63.842563 46.686344 
L 66.228348 46.828209 
L 68.557328 46.878084 
L 68.642535 46.959194 
L 69.451997 48.975569 
L 70.00584 49.844983 
L 71.326543 51.435512 
L 72.136005 52.275597 
L 73.3573 53.458975 
L 75.061432 55.178663 
L 76.595151 56.435947 
L 79.009338 58.100704 
L 81.040095 59.288929 
L 83.326472 60.404644 
L 86.095687 61.51653 
L 89.305135 62.563041 
L 93.125231 63.551238 
L 97.271952 64.377449 
L 101.773701 65.043297 
L 104.98315 65.573975 
L 109.37129 66.45003 
L 113.589016 67.042483 
L 118.261178 67.463976 
L 123.558188 67.710429 
L 129.707265 67.767061 
L 137.091837 67.604855 
L 146.464563 67.165128 
L 160.012412 66.287414 
L 200.386139 63.560608 
L 218.364732 62.637249 
L 236.726754 61.92376 
L 256.594093 61.381769 
L 279.287451 60.992354 
L 307.135808 60.74541 
L 335.594813 60.649832 
L 335.594813 60.649832 
" clip-path="url(#p01888ed120)" style="fill: none; stroke-dasharray: 9.6,2.4,1.5,2.4; stroke-dashoffset: 0; stroke: #d62728; stroke-width: 1.5"/>
   </g>
   <g id="LineCollection_1">
    <path d="M 68.628334 79.252949 
L 68.628334 2.734324 
" clip-path="url(#p01888ed120)" style="fill: none; stroke-dasharray: 3.2,0.8,0.5,0.8; stroke-dashoffset: 0; stroke: #000000; stroke-width: 0.5"/>
   </g>
   <g id="LineCollection_2">
    <path d="M 51.572813 60.723328 
L 335.594813 60.723328 
" clip-path="url(#p01888ed120)" style="fill: none; stroke-dasharray: 3.2,0.8,0.5,0.8; stroke-dashoffset: 0; stroke: #000000; stroke-width: 0.5"/>
   </g>
   <g id="patch_3">
    <path d="M 51.572813 79.108366 
L 51.572813 10.786719 
" style="fill: none; stroke: #000000; stroke-width: 0.8; stroke-linejoin: miter; stroke-linecap: square"/>
   </g>
   <g id="patch_4">
    <path d="M 335.594813 79.108366 
L 335.594813 10.786719 
" style="fill: none; stroke: #000000; stroke-width: 0.8; stroke-linejoin: miter; stroke-linecap: square"/>
   </g>
   <g id="patch_5">
    <path d="M 51.572813 79.108366 
L 335.594813 79.108366 
" style="fill: none; stroke: #000000; stroke-width: 0.8; stroke-linejoin: miter; stroke-linecap: square"/>
   </g>
   <g id="patch_6">
    <path d="M 51.572813 10.786719 
L 335.594813 10.786719 
" style="fill: none; stroke: #000000; stroke-width: 0.8; stroke-linejoin: miter; stroke-linecap: square"/>
   </g>
   <g id="text_4">
    <!-- (a) -->
    <g transform="translate(278.790413 29.764954) scale(0.1 -0.1)">
     <defs>
      <path id="Helvetica-61" d="M 844 891 
Q 844 647 1022 506 
Q 1200 366 1444 366 
Q 1741 366 2019 503 
Q 2488 731 2488 1250 
L 2488 1703 
Q 2384 1638 2221 1594 
Q 2059 1550 1903 1531 
L 1563 1488 
Q 1256 1447 1103 1359 
Q 844 1213 844 891 
z
M 2206 2028 
Q 2400 2053 2466 2191 
Q 2503 2266 2503 2406 
Q 2503 2694 2298 2823 
Q 2094 2953 1713 2953 
Q 1272 2953 1088 2716 
Q 984 2584 953 2325 
L 428 2325 
Q 444 2944 830 3186 
Q 1216 3428 1725 3428 
Q 2316 3428 2684 3203 
Q 3050 2978 3050 2503 
L 3050 575 
Q 3050 488 3086 434 
Q 3122 381 3238 381 
Q 3275 381 3322 386 
Q 3369 391 3422 400 
L 3422 -16 
Q 3291 -53 3222 -62 
Q 3153 -72 3034 -72 
Q 2744 -72 2613 134 
Q 2544 244 2516 444 
Q 2344 219 2022 53 
Q 1700 -113 1313 -113 
Q 847 -113 551 170 
Q 256 453 256 878 
Q 256 1344 547 1600 
Q 838 1856 1309 1916 
L 2206 2028 
z
M 1741 3428 
L 1741 3428 
z
" transform="scale(0.015625)"/>
     </defs>
     <use xlink:href="#Helvetica-28"/>
     <use xlink:href="#Helvetica-61" x="33.300781"/>
     <use xlink:href="#Helvetica-29" x="88.916016"/>
    </g>
   </g>
   <g id="legend_1">
    <g id="patch_7">
     <path d="M 341.194813 63.266719 
L 405.674813 63.266719 
Q 407.274813 63.266719 407.274813 61.666719 
L 407.274813 16.386719 
Q 407.274813 14.786719 405.674813 14.786719 
L 341.194813 14.786719 
Q 339.594813 14.786719 339.594813 16.386719 
L 339.594813 61.666719 
Q 339.594813 63.266719 341.194813 63.266719 
z
" style="fill: #ffffff; opacity: 0.8; stroke: #cccccc; stroke-linejoin: miter"/>
    </g>
    <g id="line2d_13">
     <path d="M 342.794813 21.026719 
L 350.794813 21.026719 
L 358.794813 21.026719 
" style="fill: none; stroke: #1f77b4; stroke-width: 1.5; stroke-linecap: square"/>
    </g>
    <g id="text_5">
     <!-- (cx$_{\rm{off}}$, iz$_{\rm{off}}$) -->
     <g transform="translate(365.194813 23.826719) scale(0.08 -0.08)">
      <defs>
       <path id="Helvetica-63" d="M 1703 3444 
Q 2269 3444 2623 3169 
Q 2978 2894 3050 2222 
L 2503 2222 
Q 2453 2531 2275 2736 
Q 2097 2941 1703 2941 
Q 1166 2941 934 2416 
Q 784 2075 784 1575 
Q 784 1072 996 728 
Q 1209 384 1666 384 
Q 2016 384 2220 598 
Q 2425 813 2503 1184 
L 3050 1184 
Q 2956 519 2581 211 
Q 2206 -97 1622 -97 
Q 966 -97 575 383 
Q 184 863 184 1581 
Q 184 2463 612 2953 
Q 1041 3444 1703 3444 
z
M 1616 3428 
L 1616 3428 
z
" transform="scale(0.015625)"/>
       <path id="Helvetica-78" d="M 94 3347 
L 822 3347 
L 1591 2169 
L 2369 3347 
L 3053 3331 
L 1925 1716 
L 3103 0 
L 2384 0 
L 1553 1256 
L 747 0 
L 34 0 
L 1213 1716 
L 94 3347 
z
" transform="scale(0.015625)"/>
       <path id="DejaVuSans-6f" d="M 1959 3097 
Q 1497 3097 1228 2736 
Q 959 2375 959 1747 
Q 959 1119 1226 758 
Q 1494 397 1959 397 
Q 2419 397 2687 759 
Q 2956 1122 2956 1747 
Q 2956 2369 2687 2733 
Q 2419 3097 1959 3097 
z
M 1959 3584 
Q 2709 3584 3137 3096 
Q 3566 2609 3566 1747 
Q 3566 888 3137 398 
Q 2709 -91 1959 -91 
Q 1206 -91 779 398 
Q 353 888 353 1747 
Q 353 2609 779 3096 
Q 1206 3584 1959 3584 
z
" transform="scale(0.015625)"/>
       <path id="DejaVuSans-66" d="M 2375 4863 
L 2375 4384 
L 1825 4384 
Q 1516 4384 1395 4259 
Q 1275 4134 1275 3809 
L 1275 3500 
L 2222 3500 
L 2222 3053 
L 1275 3053 
L 1275 0 
L 697 0 
L 697 3053 
L 147 3053 
L 147 3500 
L 697 3500 
L 697 3744 
Q 697 4328 969 4595 
Q 1241 4863 1831 4863 
L 2375 4863 
z
" transform="scale(0.015625)"/>
       <path id="Helvetica-2c" d="M 531 -653 
Q 747 -616 834 -350 
Q 881 -209 881 -78 
Q 881 -56 879 -39 
Q 878 -22 872 0 
L 531 0 
L 531 681 
L 1200 681 
L 1200 50 
Q 1200 -322 1050 -603 
Q 900 -884 531 -950 
L 531 -653 
z
" transform="scale(0.015625)"/>
       <path id="Helvetica-7a" d="M 163 444 
L 2147 2844 
L 309 2844 
L 309 3347 
L 2903 3347 
L 2903 2888 
L 931 503 
L 2963 503 
L 2963 0 
L 163 0 
L 163 444 
z
M 1609 3428 
L 1609 3428 
z
" transform="scale(0.015625)"/>
      </defs>
      <use xlink:href="#Helvetica-28" transform="translate(0 0.09375)"/>
      <use xlink:href="#Helvetica-63" transform="translate(33.300781 0.09375)"/>
      <use xlink:href="#Helvetica-78" transform="translate(83.300781 0.09375)"/>
      <use xlink:href="#DejaVuSans-6f" transform="translate(134.257812 -16.3125) scale(0.7)"/>
      <use xlink:href="#DejaVuSans-66" transform="translate(177.084961 -16.3125) scale(0.7)"/>
      <use xlink:href="#DejaVuSans-66" transform="translate(201.728516 -16.3125) scale(0.7)"/>
      <use xlink:href="#Helvetica-2c" transform="translate(229.106445 0.09375)"/>
      <use xlink:href="#Helvetica-20" transform="translate(256.889648 0.09375)"/>
      <use xlink:href="#Helvetica-69" transform="translate(284.672852 0.09375)"/>
      <use xlink:href="#Helvetica-7a" transform="translate(306.889648 0.09375)"/>
      <use xlink:href="#DejaVuSans-6f" transform="translate(357.84668 -16.3125) scale(0.7)"/>
      <use xlink:href="#DejaVuSans-66" transform="translate(400.673828 -16.3125) scale(0.7)"/>
      <use xlink:href="#DejaVuSans-66" transform="translate(425.317383 -16.3125) scale(0.7)"/>
      <use xlink:href="#Helvetica-29" transform="translate(452.695312 0.09375)"/>
     </g>
    </g>
    <g id="line2d_14">
     <path d="M 342.794813 32.546719 
L 350.794813 32.546719 
L 358.794813 32.546719 
" style="fill: none; stroke-dasharray: 1.5,2.475; stroke-dashoffset: 0; stroke: #ff7f0e; stroke-width: 1.5"/>
    </g>
    <g id="text_6">
     <!-- (cx$_{\rm{off}}$, iz$_{\rm{on}}$) -->
     <g transform="translate(365.194813 35.346719) scale(0.08 -0.08)">
      <defs>
       <path id="DejaVuSans-6e" d="M 3513 2113 
L 3513 0 
L 2938 0 
L 2938 2094 
Q 2938 2591 2744 2837 
Q 2550 3084 2163 3084 
Q 1697 3084 1428 2787 
Q 1159 2491 1159 1978 
L 1159 0 
L 581 0 
L 581 3500 
L 1159 3500 
L 1159 2956 
Q 1366 3272 1645 3428 
Q 1925 3584 2291 3584 
Q 2894 3584 3203 3211 
Q 3513 2838 3513 2113 
z
" transform="scale(0.015625)"/>
      </defs>
      <use xlink:href="#Helvetica-28" transform="translate(0 0.09375)"/>
      <use xlink:href="#Helvetica-63" transform="translate(33.300781 0.09375)"/>
      <use xlink:href="#Helvetica-78" transform="translate(83.300781 0.09375)"/>
      <use xlink:href="#DejaVuSans-6f" transform="translate(134.257812 -16.3125) scale(0.7)"/>
      <use xlink:href="#DejaVuSans-66" transform="translate(177.084961 -16.3125) scale(0.7)"/>
      <use xlink:href="#DejaVuSans-66" transform="translate(201.728516 -16.3125) scale(0.7)"/>
      <use xlink:href="#Helvetica-2c" transform="translate(229.106445 0.09375)"/>
      <use xlink:href="#Helvetica-20" transform="translate(256.889648 0.09375)"/>
      <use xlink:href="#Helvetica-69" transform="translate(284.672852 0.09375)"/>
      <use xlink:href="#Helvetica-7a" transform="translate(306.889648 0.09375)"/>
      <use xlink:href="#DejaVuSans-6f" transform="translate(357.84668 -16.3125) scale(0.7)"/>
      <use xlink:href="#DejaVuSans-6e" transform="translate(400.673828 -16.3125) scale(0.7)"/>
      <use xlink:href="#Helvetica-29" transform="translate(447.773438 0.09375)"/>
     </g>
    </g>
    <g id="line2d_15">
     <path d="M 342.794813 44.066719 
L 350.794813 44.066719 
L 358.794813 44.066719 
" style="fill: none; stroke-dasharray: 5.55,2.4; stroke-dashoffset: 0; stroke: #2ca02c; stroke-width: 1.5"/>
    </g>
    <g id="text_7">
     <!-- (cx$_{\rm{on}}$, iz$_{\rm{off}}$) -->
     <g transform="translate(365.194813 46.866719) scale(0.08 -0.08)">
      <use xlink:href="#Helvetica-28" transform="translate(0 0.09375)"/>
      <use xlink:href="#Helvetica-63" transform="translate(33.300781 0.09375)"/>
      <use xlink:href="#Helvetica-78" transform="translate(83.300781 0.09375)"/>
      <use xlink:href="#DejaVuSans-6f" transform="translate(134.257812 -16.3125) scale(0.7)"/>
      <use xlink:href="#DejaVuSans-6e" transform="translate(177.084961 -16.3125) scale(0.7)"/>
      <use xlink:href="#Helvetica-2c" transform="translate(224.18457 0.09375)"/>
      <use xlink:href="#Helvetica-20" transform="translate(251.967773 0.09375)"/>
      <use xlink:href="#Helvetica-69" transform="translate(279.750977 0.09375)"/>
      <use xlink:href="#Helvetica-7a" transform="translate(301.967773 0.09375)"/>
      <use xlink:href="#DejaVuSans-6f" transform="translate(352.924805 -16.3125) scale(0.7)"/>
      <use xlink:href="#DejaVuSans-66" transform="translate(395.751953 -16.3125) scale(0.7)"/>
      <use xlink:href="#DejaVuSans-66" transform="translate(420.395508 -16.3125) scale(0.7)"/>
      <use xlink:href="#Helvetica-29" transform="translate(447.773438 0.09375)"/>
     </g>
    </g>
    <g id="line2d_16">
     <path d="M 342.794813 55.586719 
L 350.794813 55.586719 
L 358.794813 55.586719 
" style="fill: none; stroke-dasharray: 9.6,2.4,1.5,2.4; stroke-dashoffset: 0; stroke: #d62728; stroke-width: 1.5"/>
    </g>
    <g id="text_8">
     <!-- (cx$_{\rm{on}}$, iz$_{\rm{on}}$) -->
     <g transform="translate(365.194813 58.386719) scale(0.08 -0.08)">
      <use xlink:href="#Helvetica-28" transform="translate(0 0.09375)"/>
      <use xlink:href="#Helvetica-63" transform="translate(33.300781 0.09375)"/>
      <use xlink:href="#Helvetica-78" transform="translate(83.300781 0.09375)"/>
      <use xlink:href="#DejaVuSans-6f" transform="translate(134.257812 -16.3125) scale(0.7)"/>
      <use xlink:href="#DejaVuSans-6e" transform="translate(177.084961 -16.3125) scale(0.7)"/>
      <use xlink:href="#Helvetica-2c" transform="translate(224.18457 0.09375)"/>
      <use xlink:href="#Helvetica-20" transform="translate(251.967773 0.09375)"/>
      <use xlink:href="#Helvetica-69" transform="translate(279.750977 0.09375)"/>
      <use xlink:href="#Helvetica-7a" transform="translate(301.967773 0.09375)"/>
      <use xlink:href="#DejaVuSans-6f" transform="translate(352.924805 -16.3125) scale(0.7)"/>
      <use xlink:href="#DejaVuSans-6e" transform="translate(395.751953 -16.3125) scale(0.7)"/>
      <use xlink:href="#Helvetica-29" transform="translate(442.851562 0.09375)"/>
     </g>
    </g>
   </g>
  </g>
  <g id="axes_2">
   <g id="patch_8">
    <path d="M 51.572813 243.080319 
L 335.594813 243.080319 
L 335.594813 174.758672 
L 51.572813 174.758672 
z
" style="fill: #ffffff"/>
   </g>
   <g id="matplotlib.axis_3">
    <g id="xtick_7">
     <g id="line2d_17">
      <g>
       <use xlink:href="#mffa6375322" x="51.572813" y="243.080319" style="stroke: #000000; stroke-width: 0.8"/>
      </g>
     </g>
     <g id="text_9">
      <!-- 0 -->
      <g transform="translate(48.792344 253.753756) scale(0.1 -0.1)">
       <use xlink:href="#Helvetica-30"/>
      </g>
     </g>
    </g>
    <g id="xtick_8">
     <g id="line2d_18">
      <g>
       <use xlink:href="#mffa6375322" x="108.377213" y="243.080319" style="stroke: #000000; stroke-width: 0.8"/>
      </g>
     </g>
     <g id="text_10">
      <!-- 2 -->
      <g transform="translate(105.596744 253.753756) scale(0.1 -0.1)">
       <defs>
        <path id="Helvetica-32" d="M 200 0 
Q 231 578 439 1006 
Q 647 1434 1250 1784 
L 1850 2131 
Q 2253 2366 2416 2531 
Q 2672 2791 2672 3125 
Q 2672 3516 2437 3745 
Q 2203 3975 1813 3975 
Q 1234 3975 1013 3538 
Q 894 3303 881 2888 
L 309 2888 
Q 319 3472 525 3841 
Q 891 4491 1816 4491 
Q 2584 4491 2939 4075 
Q 3294 3659 3294 3150 
Q 3294 2613 2916 2231 
Q 2697 2009 2131 1694 
L 1703 1456 
Q 1397 1288 1222 1134 
Q 909 863 828 531 
L 3272 531 
L 3272 0 
L 200 0 
z
" transform="scale(0.015625)"/>
       </defs>
       <use xlink:href="#Helvetica-32"/>
      </g>
     </g>
    </g>
    <g id="xtick_9">
     <g id="line2d_19">
      <g>
       <use xlink:href="#mffa6375322" x="165.181613" y="243.080319" style="stroke: #000000; stroke-width: 0.8"/>
      </g>
     </g>
     <g id="text_11">
      <!-- 4 -->
      <g transform="translate(162.401144 253.753756) scale(0.1 -0.1)">
       <use xlink:href="#Helvetica-34"/>
      </g>
     </g>
    </g>
    <g id="xtick_10">
     <g id="line2d_20">
      <g>
       <use xlink:href="#mffa6375322" x="221.986013" y="243.080319" style="stroke: #000000; stroke-width: 0.8"/>
      </g>
     </g>
     <g id="text_12">
      <!-- 6 -->
      <g transform="translate(219.205544 253.753756) scale(0.1 -0.1)">
       <defs>
        <path id="Helvetica-36" d="M 1872 4494 
Q 2622 4494 2917 4105 
Q 3213 3716 3213 3303 
L 2656 3303 
Q 2606 3569 2497 3719 
Q 2294 4000 1881 4000 
Q 1409 4000 1131 3564 
Q 853 3128 822 2316 
Q 1016 2600 1309 2741 
Q 1578 2866 1909 2866 
Q 2472 2866 2890 2506 
Q 3309 2147 3309 1434 
Q 3309 825 2912 354 
Q 2516 -116 1781 -116 
Q 1153 -116 697 361 
Q 241 838 241 1966 
Q 241 2800 444 3381 
Q 834 4494 1872 4494 
z
M 1831 384 
Q 2275 384 2495 682 
Q 2716 981 2716 1388 
Q 2716 1731 2519 2042 
Q 2322 2353 1803 2353 
Q 1441 2353 1167 2112 
Q 894 1872 894 1388 
Q 894 963 1142 673 
Q 1391 384 1831 384 
z
" transform="scale(0.015625)"/>
       </defs>
       <use xlink:href="#Helvetica-36"/>
      </g>
     </g>
    </g>
    <g id="xtick_11">
     <g id="line2d_21">
      <g>
       <use xlink:href="#mffa6375322" x="278.790413" y="243.080319" style="stroke: #000000; stroke-width: 0.8"/>
      </g>
     </g>
     <g id="text_13">
      <!-- 8 -->
      <g transform="translate(276.009944 253.753756) scale(0.1 -0.1)">
       <defs>
        <path id="Helvetica-38" d="M 1741 2600 
Q 2113 2600 2322 2808 
Q 2531 3016 2531 3303 
Q 2531 3553 2331 3762 
Q 2131 3972 1722 3972 
Q 1316 3972 1134 3762 
Q 953 3553 953 3272 
Q 953 2956 1187 2778 
Q 1422 2600 1741 2600 
z
M 1775 384 
Q 2166 384 2423 595 
Q 2681 806 2681 1225 
Q 2681 1659 2415 1884 
Q 2150 2109 1734 2109 
Q 1331 2109 1076 1879 
Q 822 1650 822 1244 
Q 822 894 1055 639 
Q 1288 384 1775 384 
z
M 975 2384 
Q 741 2484 609 2619 
Q 363 2869 363 3269 
Q 363 3769 725 4128 
Q 1088 4488 1753 4488 
Q 2397 4488 2762 4148 
Q 3128 3809 3128 3356 
Q 3128 2938 2916 2678 
Q 2797 2531 2547 2391 
Q 2825 2263 2984 2097 
Q 3281 1784 3281 1284 
Q 3281 694 2884 283 
Q 2488 -128 1763 -128 
Q 1109 -128 657 226 
Q 206 581 206 1256 
Q 206 1653 400 1942 
Q 594 2231 975 2384 
z
" transform="scale(0.015625)"/>
       </defs>
       <use xlink:href="#Helvetica-38"/>
      </g>
     </g>
    </g>
    <g id="xtick_12">
     <g id="line2d_22">
      <g>
       <use xlink:href="#mffa6375322" x="335.594813" y="243.080319" style="stroke: #000000; stroke-width: 0.8"/>
      </g>
     </g>
     <g id="text_14">
      <!-- 10 -->
      <g transform="translate(330.033875 253.753756) scale(0.1 -0.1)">
       <use xlink:href="#Helvetica-31"/>
       <use xlink:href="#Helvetica-30" x="55.615234"/>
      </g>
     </g>
    </g>
    <g id="text_15">
     <!-- time (ms) -->
     <g transform="translate(172.754906 267.085006) scale(0.1 -0.1)">
      <use xlink:href="#Helvetica-74"/>
      <use xlink:href="#Helvetica-69" x="27.783203"/>
      <use xlink:href="#Helvetica-6d" x="50"/>
      <use xlink:href="#Helvetica-65" x="133.300781"/>
      <use xlink:href="#Helvetica-20" x="188.916016"/>
      <use xlink:href="#Helvetica-28" x="216.699219"/>
      <use xlink:href="#Helvetica-6d" x="250"/>
      <use xlink:href="#Helvetica-73" x="333.300781"/>
      <use xlink:href="#Helvetica-29" x="383.300781"/>
     </g>
    </g>
   </g>
   <g id="matplotlib.axis_4">
    <g id="ytick_3">
     <g id="line2d_23">
      <g>
       <use xlink:href="#m5a0e45235b" x="51.572813" y="231.693378" style="stroke: #000000; stroke-width: 0.8"/>
      </g>
     </g>
     <g id="text_16">
      <!-- 60 -->
      <g transform="translate(36.950938 235.280096) scale(0.1 -0.1)">
       <use xlink:href="#Helvetica-36"/>
       <use xlink:href="#Helvetica-30" x="55.615234"/>
      </g>
     </g>
    </g>
    <g id="ytick_4">
     <g id="line2d_24">
      <g>
       <use xlink:href="#m5a0e45235b" x="51.572813" y="208.919495" style="stroke: #000000; stroke-width: 0.8"/>
      </g>
     </g>
     <g id="text_17">
      <!-- 80 -->
      <g transform="translate(36.950938 212.506214) scale(0.1 -0.1)">
       <use xlink:href="#Helvetica-38"/>
       <use xlink:href="#Helvetica-30" x="55.615234"/>
      </g>
     </g>
    </g>
    <g id="ytick_5">
     <g id="line2d_25">
      <g>
       <use xlink:href="#m5a0e45235b" x="51.572813" y="186.145613" style="stroke: #000000; stroke-width: 0.8"/>
      </g>
     </g>
     <g id="text_18">
      <!-- 100 -->
      <g transform="translate(31.39 189.732332) scale(0.1 -0.1)">
       <use xlink:href="#Helvetica-31"/>
       <use xlink:href="#Helvetica-30" x="55.615234"/>
       <use xlink:href="#Helvetica-30" x="111.230469"/>
      </g>
     </g>
    </g>
    <g id="text_19">
     <!-- stored energy -->
     <g transform="translate(14.396875 239.490589) rotate(-90) scale(0.1 -0.1)">
      <defs>
       <path id="Helvetica-67" d="M 1594 3406 
Q 1988 3406 2281 3213 
Q 2441 3103 2606 2894 
L 2606 3316 
L 3125 3316 
L 3125 272 
Q 3125 -366 2938 -734 
Q 2588 -1416 1616 -1416 
Q 1075 -1416 706 -1173 
Q 338 -931 294 -416 
L 866 -416 
Q 906 -641 1028 -763 
Q 1219 -950 1628 -950 
Q 2275 -950 2475 -494 
Q 2594 -225 2584 466 
Q 2416 209 2178 84 
Q 1941 -41 1550 -41 
Q 1006 -41 598 345 
Q 191 731 191 1622 
Q 191 2463 602 2934 
Q 1013 3406 1594 3406 
z
M 2606 1688 
Q 2606 2309 2350 2609 
Q 2094 2909 1697 2909 
Q 1103 2909 884 2353 
Q 769 2056 769 1575 
Q 769 1009 998 714 
Q 1228 419 1616 419 
Q 2222 419 2469 966 
Q 2606 1275 2606 1688 
z
M 1659 3428 
L 1659 3428 
z
" transform="scale(0.015625)"/>
       <path id="Helvetica-79" d="M 2503 3347 
L 3125 3347 
Q 3006 3025 2597 1878 
Q 2291 1016 2084 472 
Q 1597 -809 1397 -1090 
Q 1197 -1372 709 -1372 
Q 591 -1372 527 -1362 
Q 463 -1353 369 -1328 
L 369 -816 
Q 516 -856 581 -865 
Q 647 -875 697 -875 
Q 853 -875 926 -823 
Q 1000 -772 1050 -697 
Q 1066 -672 1162 -440 
Q 1259 -209 1303 -97 
L 66 3347 
L 703 3347 
L 1600 622 
L 2503 3347 
z
M 1597 3428 
L 1597 3428 
z
" transform="scale(0.015625)"/>
      </defs>
      <use xlink:href="#Helvetica-73"/>
      <use xlink:href="#Helvetica-74" x="50"/>
      <use xlink:href="#Helvetica-6f" x="77.783203"/>
      <use xlink:href="#Helvetica-72" x="133.398438"/>
      <use xlink:href="#Helvetica-65" x="166.699219"/>
      <use xlink:href="#Helvetica-64" x="222.314453"/>
      <use xlink:href="#Helvetica-20" x="277.929688"/>
      <use xlink:href="#Helvetica-65" x="305.712891"/>
      <use xlink:href="#Helvetica-6e" x="361.328125"/>
      <use xlink:href="#Helvetica-65" x="416.943359"/>
      <use xlink:href="#Helvetica-72" x="472.558594"/>
      <use xlink:href="#Helvetica-67" x="505.859375"/>
      <use xlink:href="#Helvetica-79" x="561.474609"/>
     </g>
     <!--  (J) -->
     <g transform="translate(25.305625 216.138245) rotate(-90) scale(0.1 -0.1)">
      <defs>
       <path id="Helvetica-4a" d="M 2741 1369 
Q 2741 788 2569 466 
Q 2250 -122 1356 -122 
Q 841 -122 475 158 
Q 109 438 109 1153 
L 109 1481 
L 694 1481 
L 694 1153 
Q 694 778 861 589 
Q 1028 400 1381 400 
Q 1878 400 2031 741 
Q 2125 950 2125 1531 
L 2125 4591 
L 2741 4591 
L 2741 1369 
z
" transform="scale(0.015625)"/>
      </defs>
      <use xlink:href="#Helvetica-20"/>
      <use xlink:href="#Helvetica-28" x="27.783203"/>
      <use xlink:href="#Helvetica-4a" x="61.083984"/>
      <use xlink:href="#Helvetica-29" x="111.083984"/>
     </g>
    </g>
   </g>
   <g id="line2d_26">
    <path d="M 51.587014 179.429847 
L 51.785829 179.149496 
L 52.155058 178.829217 
L 52.453281 178.856844 
L 52.96452 179.036994 
L 53.745581 179.051415 
L 54.143212 179.322373 
L 54.611848 179.709798 
L 56.528996 181.171102 
L 57.650883 182.488304 
L 58.502949 183.617485 
L 61.811806 189.12619 
L 68.656736 203.060137 
L 70.162052 206.295048 
L 71.411749 208.549487 
L 74.77741 213.089306 
L 76.225922 214.545262 
L 77.546624 215.649308 
L 79.03774 216.712103 
L 81.011693 217.813929 
L 82.886238 218.596988 
L 84.774984 219.168414 
L 86.748937 219.568247 
L 88.864901 219.807676 
L 91.378496 219.874692 
L 94.303922 219.721779 
L 97.598578 219.298897 
L 101.191456 218.598671 
L 105.366579 217.539879 
L 109.967736 216.141716 
L 115.747583 214.137018 
L 122.904938 211.409333 
L 137.546272 205.519701 
L 149.262179 200.927789 
L 158.208872 197.659165 
L 166.331902 194.926687 
L 174.199311 192.516959 
L 181.853704 190.404611 
L 189.522298 188.517516 
L 197.361305 186.818651 
L 205.384927 185.308458 
L 213.735173 183.96521 
L 222.497252 182.784011 
L 231.727967 181.765374 
L 241.668737 180.894313 
L 252.54678 180.168917 
L 264.660318 179.590622 
L 278.250771 179.167117 
L 294.354818 178.891281 
L 314.577185 178.773292 
L 335.594813 178.803549 
L 335.594813 178.803549 
" clip-path="url(#p35da64a2e2)" style="fill: none; stroke: #1f77b4; stroke-width: 1.5; stroke-linecap: square"/>
   </g>
   <g id="line2d_27">
    <path d="M 51.587014 179.442346 
L 51.729025 179.34985 
L 52.05565 179.215513 
L 52.31127 179.317576 
L 52.637895 179.696663 
L 52.936118 179.892922 
L 53.518363 180.202266 
L 54.058005 180.679438 
L 56.955029 184.374373 
L 59.014189 187.887418 
L 61.698197 193.178389 
L 67.463843 205.967663 
L 69.636612 210.532328 
L 71.29814 213.152038 
L 72.19281 214.212861 
L 74.010551 216.393527 
L 75.799889 218.099665 
L 77.901652 219.607965 
L 79.378566 220.424655 
L 81.324117 221.236956 
L 83.283869 221.805361 
L 85.243621 222.16439 
L 87.316981 222.353176 
L 89.645962 222.367348 
L 92.642394 222.140255 
L 95.610424 221.692092 
L 99.004487 220.966643 
L 102.938191 219.899465 
L 107.368934 218.470871 
L 112.878961 216.452061 
L 119.667087 213.721398 
L 130.772347 208.98987 
L 145.214866 202.900357 
L 154.17576 199.373956 
L 162.170979 196.464493 
L 169.782769 193.928818 
L 177.28095 191.665407 
L 184.693924 189.658005 
L 192.234708 187.845921 
L 199.917503 186.227949 
L 207.898521 184.776062 
L 216.191964 183.494907 
L 224.968244 182.367283 
L 234.298366 181.396041 
L 244.295941 180.580157 
L 255.188184 179.91366 
L 267.40113 179.389843 
L 281.47442 179.012038 
L 298.558344 178.785149 
L 320.882473 178.727034 
L 335.594813 178.771182 
L 335.594813 178.771182 
" clip-path="url(#p35da64a2e2)" style="fill: none; stroke-dasharray: 1.5,2.475; stroke-dashoffset: 0; stroke: #ff7f0e; stroke-width: 1.5"/>
   </g>
   <g id="line2d_28">
    <path d="M 51.587014 179.520518 
L 53.617771 190.756234 
L 55.40711 199.679759 
L 57.437867 208.036169 
L 59.02839 213.809197 
L 60.917136 219.720466 
L 62.990497 225.413221 
L 64.524216 228.938392 
L 66.00113 231.939286 
L 67.705262 234.944954 
L 68.741942 236.407922 
L 69.807025 236.661571 
L 71.525358 236.259084 
L 76.339531 234.762326 
L 81.36672 232.777528 
L 86.763138 230.339617 
L 95.908647 225.913196 
L 109.726317 219.001648 
L 137.191244 204.74252 
L 144.519012 201.339603 
L 151.449149 198.364152 
L 158.194671 195.708451 
L 164.883389 193.313598 
L 171.586309 191.149719 
L 178.374434 189.192138 
L 185.276169 187.432002 
L 192.419322 185.840001 
L 199.860699 184.411548 
L 207.614499 183.150704 
L 215.808534 182.044544 
L 224.584814 181.086687 
L 234.042746 180.280528 
L 244.508957 179.617227 
L 256.196462 179.105894 
L 269.545496 178.749372 
L 285.777354 178.548693 
L 306.482558 178.524477 
L 335.594813 178.69767 
L 335.594813 178.69767 
" clip-path="url(#p35da64a2e2)" style="fill: none; stroke-dasharray: 5.55,2.4; stroke-dashoffset: 0; stroke: #2ca02c; stroke-width: 1.5"/>
   </g>
   <g id="line2d_29">
    <path d="M 51.587014 179.533023 
L 55.2793 201.148991 
L 57.111242 209.416467 
L 59.02839 216.890904 
L 60.817729 222.773953 
L 62.763279 228.299643 
L 64.112384 231.614216 
L 66.043733 235.637009 
L 67.889876 238.931308 
L 68.699339 240.024878 
L 70.38927 239.745811 
L 72.519435 238.832089 
L 73.967947 238.263084 
L 76.311129 237.273716 
L 82.332395 234.341019 
L 90.498028 230.016473 
L 137.872897 204.722336 
L 144.945045 201.359837 
L 151.676366 198.403515 
L 158.251476 195.756931 
L 164.798183 193.361151 
L 171.330689 191.205348 
L 177.948401 189.252875 
L 184.750728 187.477171 
L 191.766072 185.87629 
L 199.051236 184.442892 
L 206.705629 183.165921 
L 214.757653 182.049754 
L 223.391921 181.080641 
L 232.636838 180.268167 
L 242.932635 179.59318 
L 254.321917 179.075078 
L 267.415331 178.708447 
L 283.036541 178.501345 
L 303.216305 178.468873 
L 334.27411 178.662554 
L 335.594813 178.673486 
L 335.594813 178.673486 
" clip-path="url(#p35da64a2e2)" style="fill: none; stroke-dasharray: 9.6,2.4,1.5,2.4; stroke-dashoffset: 0; stroke: #d62728; stroke-width: 1.5"/>
   </g>
   <g id="LineCollection_3">
    <path d="M 68.628334 243.080319 
L 68.628334 174.758672 
" clip-path="url(#p35da64a2e2)" style="fill: none; stroke-dasharray: 3.2,0.8,0.5,0.8; stroke-dashoffset: 0; stroke: #000000; stroke-width: 0.5"/>
   </g>
   <g id="LineCollection_4">
    <path d="M 51.572813 178.673486 
L 335.594813 178.673486 
" clip-path="url(#p35da64a2e2)" style="fill: none; stroke-dasharray: 3.2,0.8,0.5,0.8; stroke-dashoffset: 0; stroke: #000000; stroke-width: 0.5"/>
   </g>
   <g id="patch_9">
    <path d="M 51.572813 243.080319 
L 51.572813 174.758672 
" style="fill: none; stroke: #000000; stroke-width: 0.8; stroke-linejoin: miter; stroke-linecap: square"/>
   </g>
   <g id="patch_10">
    <path d="M 335.594813 243.080319 
L 335.594813 174.758672 
" style="fill: none; stroke: #000000; stroke-width: 0.8; stroke-linejoin: miter; stroke-linecap: square"/>
   </g>
   <g id="patch_11">
    <path d="M 51.572813 243.080319 
L 335.594813 243.080319 
" style="fill: none; stroke: #000000; stroke-width: 0.8; stroke-linejoin: miter; stroke-linecap: square"/>
   </g>
   <g id="patch_12">
    <path d="M 51.572813 174.758672 
L 335.594813 174.758672 
" style="fill: none; stroke: #000000; stroke-width: 0.8; stroke-linejoin: miter; stroke-linecap: square"/>
   </g>
   <g id="text_20">
    <!-- (c) -->
    <g transform="translate(278.790413 197.532554) scale(0.1 -0.1)">
     <use xlink:href="#Helvetica-28"/>
     <use xlink:href="#Helvetica-63" x="33.300781"/>
     <use xlink:href="#Helvetica-29" x="83.300781"/>
    </g>
   </g>
  </g>
  <g id="axes_3">
   <g id="patch_13">
    <path d="M 51.572813 161.094342 
L 335.594813 161.094342 
L 335.594813 92.772695 
L 51.572813 92.772695 
z
" style="fill: #ffffff"/>
   </g>
   <g id="matplotlib.axis_5">
    <g id="xtick_13">
     <g id="line2d_30">
      <g>
       <use xlink:href="#mffa6375322" x="51.572813" y="161.094342" style="stroke: #000000; stroke-width: 0.8"/>
      </g>
     </g>
    </g>
    <g id="xtick_14">
     <g id="line2d_31">
      <g>
       <use xlink:href="#mffa6375322" x="108.377213" y="161.094342" style="stroke: #000000; stroke-width: 0.8"/>
      </g>
     </g>
    </g>
    <g id="xtick_15">
     <g id="line2d_32">
      <g>
       <use xlink:href="#mffa6375322" x="165.181613" y="161.094342" style="stroke: #000000; stroke-width: 0.8"/>
      </g>
     </g>
    </g>
    <g id="xtick_16">
     <g id="line2d_33">
      <g>
       <use xlink:href="#mffa6375322" x="221.986013" y="161.094342" style="stroke: #000000; stroke-width: 0.8"/>
      </g>
     </g>
    </g>
    <g id="xtick_17">
     <g id="line2d_34">
      <g>
       <use xlink:href="#mffa6375322" x="278.790413" y="161.094342" style="stroke: #000000; stroke-width: 0.8"/>
      </g>
     </g>
    </g>
    <g id="xtick_18">
     <g id="line2d_35">
      <g>
       <use xlink:href="#mffa6375322" x="335.594813" y="161.094342" style="stroke: #000000; stroke-width: 0.8"/>
      </g>
     </g>
    </g>
   </g>
   <g id="matplotlib.axis_6">
    <g id="ytick_6">
     <g id="line2d_36">
      <g>
       <use xlink:href="#m5a0e45235b" x="51.572813" y="144.013931" style="stroke: #000000; stroke-width: 0.8"/>
      </g>
     </g>
     <g id="text_21">
      <!-- 1 -->
      <g transform="translate(42.511875 147.600649) scale(0.1 -0.1)">
       <use xlink:href="#Helvetica-31"/>
      </g>
     </g>
    </g>
    <g id="ytick_7">
     <g id="line2d_37">
      <g>
       <use xlink:href="#m5a0e45235b" x="51.572813" y="109.853107" style="stroke: #000000; stroke-width: 0.8"/>
      </g>
     </g>
     <g id="text_22">
      <!-- 2 -->
      <g transform="translate(42.511875 113.439826) scale(0.1 -0.1)">
       <use xlink:href="#Helvetica-32"/>
      </g>
     </g>
    </g>
    <g id="text_23">
     <!-- $\Gamma$A (10$^{21}$ /s) -->
     <g transform="translate(36.411875 153.283519) rotate(-90) scale(0.1 -0.1)">
      <defs>
       <path id="DejaVuSans-393" d="M 628 0 
L 628 4666 
L 3531 4666 
L 3531 4134 
L 1259 4134 
L 1259 0 
L 628 0 
z
" transform="scale(0.015625)"/>
       <path id="Helvetica-41" d="M 2844 1881 
L 2147 3909 
L 1406 1881 
L 2844 1881 
z
M 1822 4591 
L 2525 4591 
L 4191 0 
L 3509 0 
L 3044 1375 
L 1228 1375 
L 731 0 
L 94 0 
L 1822 4591 
z
" transform="scale(0.015625)"/>
       <path id="DejaVuSans-32" d="M 1228 531 
L 3431 531 
L 3431 0 
L 469 0 
L 469 531 
Q 828 903 1448 1529 
Q 2069 2156 2228 2338 
Q 2531 2678 2651 2914 
Q 2772 3150 2772 3378 
Q 2772 3750 2511 3984 
Q 2250 4219 1831 4219 
Q 1534 4219 1204 4116 
Q 875 4013 500 3803 
L 500 4441 
Q 881 4594 1212 4672 
Q 1544 4750 1819 4750 
Q 2544 4750 2975 4387 
Q 3406 4025 3406 3419 
Q 3406 3131 3298 2873 
Q 3191 2616 2906 2266 
Q 2828 2175 2409 1742 
Q 1991 1309 1228 531 
z
" transform="scale(0.015625)"/>
       <path id="Helvetica-2f" d="M 1456 4591 
L 1931 4591 
L 475 0 
L 0 0 
L 1456 4591 
z
" transform="scale(0.015625)"/>
      </defs>
      <use xlink:href="#DejaVuSans-393" transform="translate(0 0.765625)"/>
      <use xlink:href="#Helvetica-41" transform="translate(55.712891 0.765625)"/>
      <use xlink:href="#Helvetica-20" transform="translate(122.412109 0.765625)"/>
      <use xlink:href="#Helvetica-28" transform="translate(150.195312 0.765625)"/>
      <use xlink:href="#Helvetica-31" transform="translate(183.496094 0.765625)"/>
      <use xlink:href="#Helvetica-30" transform="translate(239.111328 0.765625)"/>
      <use xlink:href="#DejaVuSans-32" transform="translate(295.683594 39.046875) scale(0.7)"/>
      <use xlink:href="#DejaVuSans-31" transform="translate(340.219727 39.046875) scale(0.7)"/>
      <use xlink:href="#Helvetica-20" transform="translate(387.490234 0.765625)"/>
      <use xlink:href="#Helvetica-2f" transform="translate(415.273438 0.765625)"/>
      <use xlink:href="#Helvetica-73" transform="translate(443.056641 0.765625)"/>
      <use xlink:href="#Helvetica-29" transform="translate(493.056641 0.765625)"/>
     </g>
    </g>
   </g>
   <g id="line2d_38">
    <path d="M 51.601215 150.86447 
L 51.856835 150.092716 
L 52.56689 146.364362 
L 52.822509 145.134835 
L 53.546765 143.76264 
L 54.001201 142.968995 
L 54.398831 142.073118 
L 54.51244 132.302781 
L 55.108886 128.094082 
L 55.478115 126.957282 
L 55.691132 126.27966 
L 56.713611 122.59661 
L 57.111242 121.883545 
L 57.281655 121.55131 
L 60.405897 112.582809 
L 61.385773 110.316211 
L 62.081627 108.793812 
L 63.061502 106.737237 
L 63.558541 105.857566 
L 64.680428 103.866 
L 65.319477 103.014979 
L 66.12894 101.835372 
L 67.222425 100.717906 
L 67.747865 100.158765 
L 68.145496 99.997101 
L 68.543127 99.793809 
L 69.011763 99.558489 
L 69.210579 99.744442 
L 69.494601 100.398219 
L 69.807025 101.701044 
L 70.304063 104.396285 
L 71.070923 108.563761 
L 71.610565 112.662678 
L 72.150206 116.366745 
L 72.633044 118.142423 
L 72.803457 118.327483 
L 73.073278 119.090954 
L 74.109958 122.140204 
L 74.450785 122.443388 
L 74.791611 122.77785 
L 75.16084 123.685001 
L 76.495743 126.904129 
L 76.964379 127.912669 
L 77.731239 129.564631 
L 79.719393 132.528553 
L 80.571459 133.65595 
L 81.338318 134.680225 
L 82.460205 135.936358 
L 83.156059 136.677628 
L 84.33475 137.747439 
L 85.087409 138.357595 
L 86.053083 139.137718 
L 86.862546 139.71395 
L 92.187959 142.673462 
L 97.655382 144.694133 
L 102.086125 145.904022 
L 107.383136 147.022957 
L 114.512088 148.182156 
L 122.038671 149.113117 
L 129.77827 149.833438 
L 138.284729 150.41575 
L 148.694135 150.901799 
L 160.821875 151.241689 
L 176.11646 151.440269 
L 197.105685 151.475634 
L 236.272319 151.276302 
L 308.129885 150.945102 
L 335.594813 150.888205 
L 335.594813 150.888205 
" clip-path="url(#p30abeddaea)" style="fill: none; stroke: #1f77b4; stroke-width: 1.5; stroke-linecap: square"/>
   </g>
   <g id="line2d_39">
    <path d="M 51.587014 150.843181 
L 51.80003 148.196807 
L 52.368074 137.65117 
L 52.396476 137.692709 
L 52.453281 137.916873 
L 52.467482 137.882541 
L 52.495884 136.580125 
L 52.552688 125.962361 
L 52.637895 128.942039 
L 52.879314 134.671321 
L 52.921917 134.497682 
L 53.22014 131.73349 
L 53.305347 132.055695 
L 53.461559 132.375543 
L 53.47576 132.365739 
L 53.575168 131.916387 
L 53.688776 130.51938 
L 54.271022 122.03677 
L 54.313625 122.199512 
L 54.398831 123.809887 
L 54.413033 133.923077 
L 54.51244 133.033714 
L 55.123088 128.796031 
L 55.492316 127.642427 
L 55.719534 126.876822 
L 56.742013 123.134693 
L 57.168046 122.336198 
L 57.35266 121.867818 
L 57.99171 120.104843 
L 59.255608 115.888564 
L 59.837853 114.383156 
L 62.209436 108.636424 
L 63.16091 106.684428 
L 63.728954 105.684997 
L 64.694629 103.94981 
L 65.532494 102.940865 
L 66.285152 101.916674 
L 67.520648 100.796574 
L 68.031887 100.375988 
L 68.954959 100.159142 
L 69.196378 100.280458 
L 69.451997 100.700604 
L 69.778623 101.716655 
L 71.80938 113.890915 
L 72.306419 116.963384 
L 72.689848 118.234331 
L 72.902865 118.559734 
L 73.3573 119.870735 
L 74.422382 122.757936 
L 74.933622 123.21779 
L 75.345454 124.188926 
L 76.481542 127.144746 
L 77.10639 128.286713 
L 78.043663 130.307835 
L 81.650742 135.286943 
L 82.872037 136.619446 
L 83.55369 137.28472 
L 84.561968 138.161158 
L 85.371431 138.833384 
L 86.479116 139.686429 
L 87.288579 140.224535 
L 92.542986 143.024916 
L 98.124018 144.975805 
L 102.909789 146.200748 
L 109.996138 147.575456 
L 117.196096 148.636526 
L 123.671797 149.376969 
L 131.382995 150.05353 
L 140.798324 150.643815 
L 151.676366 151.085748 
L 164.712976 151.37911 
L 181.228856 151.517153 
L 205.384927 151.47736 
L 335.594813 150.886711 
L 335.594813 150.886711 
" clip-path="url(#p30abeddaea)" style="fill: none; stroke-dasharray: 1.5,2.475; stroke-dashoffset: 0; stroke: #ff7f0e; stroke-width: 1.5"/>
   </g>
   <g id="line2d_40">
    <path d="M 51.601215 150.844498 
L 51.956242 148.600333 
L 53.007124 139.319628 
L 53.60357 137.235092 
L 54.398831 135.362988 
L 54.51244 118.373064 
L 55.009479 113.074508 
L 55.350305 111.454991 
L 55.591724 111.25435 
L 56.18817 109.467683 
L 57.011834 107.349105 
L 57.395264 106.532932 
L 58.460346 102.918543 
L 60.164478 99.231229 
L 60.661517 98.943057 
L 61.229561 98.368581 
L 61.598789 98.046017 
L 61.939616 98.031899 
L 62.237839 98.308762 
L 62.919491 99.297336 
L 63.41653 100.348908 
L 65.901722 106.884227 
L 66.483968 107.797276 
L 67.16562 108.755249 
L 68.273306 110.490338 
L 68.997562 111.290458 
L 69.309986 112.404397 
L 69.764422 114.965116 
L 70.162052 118.397045 
L 72.249614 135.658136 
L 72.675647 137.444217 
L 72.874463 137.616405 
L 74.678002 138.443126 
L 75.373856 138.300219 
L 75.799889 138.505189 
L 76.211721 139.050904 
L 77.205798 140.43094 
L 78.540701 141.711411 
L 79.932409 142.510581 
L 80.997492 143.056835 
L 82.00577 143.679384 
L 83.04245 144.198095 
L 85.896871 145.451907 
L 88.793896 146.408111 
L 91.747724 147.187476 
L 97.428164 148.299342 
L 100.353591 148.635286 
L 101.574886 148.553312 
L 102.682571 148.250851 
L 104.287296 147.826027 
L 105.181965 147.825566 
L 106.658879 148.106024 
L 109.357088 148.575609 
L 117.920352 149.782207 
L 124.623271 150.426813 
L 132.433876 150.945401 
L 141.991216 151.346557 
L 153.820733 151.609607 
L 169.271529 151.717528 
L 192.234708 151.633285 
L 312.660036 150.909207 
L 335.594813 150.869807 
L 335.594813 150.869807 
" clip-path="url(#p30abeddaea)" style="fill: none; stroke-dasharray: 5.55,2.4; stroke-dashoffset: 0; stroke: #2ca02c; stroke-width: 1.5"/>
   </g>
   <g id="line2d_41">
    <path d="M 51.601215 150.843894 
L 51.956242 148.663555 
L 53.007124 139.682897 
L 53.60357 137.669191 
L 54.398831 135.887038 
L 54.51244 119.460079 
L 55.009479 114.340957 
L 55.350305 112.766292 
L 55.620126 112.543439 
L 56.642605 109.54416 
L 57.196448 108.380225 
L 57.409465 107.804172 
L 58.630759 103.655126 
L 60.107674 100.194218 
L 60.434299 99.906725 
L 60.846131 99.583711 
L 61.272164 99.036073 
L 61.7408 98.472092 
L 62.081627 98.341012 
L 62.465056 98.524905 
L 63.104106 99.034972 
L 63.459133 99.611116 
L 63.913568 100.892724 
L 65.546695 105.999839 
L 66.341957 107.918848 
L 66.810593 108.499629 
L 67.378637 109.197773 
L 68.145496 110.607054 
L 69.182177 112.788227 
L 69.60821 114.967075 
L 70.062645 118.457951 
L 71.042521 126.395484 
L 72.32062 135.516186 
L 72.732452 136.996821 
L 72.97387 137.131189 
L 74.152562 137.847854 
L 74.635399 138.198638 
L 74.947823 138.13317 
L 75.331253 138.088724 
L 75.828291 138.33446 
L 76.254324 138.885986 
L 77.305206 140.322638 
L 78.952533 141.860257 
L 84.888593 145.197003 
L 89.276733 146.731019 
L 91.605713 147.324991 
L 95.269597 148.06964 
L 100.481401 148.912785 
L 102.881387 149.129298 
L 104.003274 149.019829 
L 104.98315 148.67839 
L 106.644678 148.093647 
L 107.43994 148.062918 
L 108.561827 148.282365 
L 111.047019 148.761466 
L 124.239841 150.432924 
L 131.482402 150.954529 
L 140.287084 151.358766 
L 151.392344 151.635631 
L 165.891668 151.761006 
L 186.852491 151.700414 
L 328.096632 150.878793 
L 335.594813 150.868298 
L 335.594813 150.868298 
" clip-path="url(#p30abeddaea)" style="fill: none; stroke-dasharray: 9.6,2.4,1.5,2.4; stroke-dashoffset: 0; stroke: #d62728; stroke-width: 1.5"/>
   </g>
   <g id="LineCollection_5">
    <path d="M 68.628334 178.174754 
L 68.628334 -1 
" clip-path="url(#p30abeddaea)" style="fill: none; stroke-dasharray: 3.2,0.8,0.5,0.8; stroke-dashoffset: 0; stroke: #000000; stroke-width: 0.5"/>
   </g>
   <g id="LineCollection_6">
    <path d="M 51.572813 150.868298 
L 335.594813 150.868298 
" clip-path="url(#p30abeddaea)" style="fill: none; stroke-dasharray: 3.2,0.8,0.5,0.8; stroke-dashoffset: 0; stroke: #000000; stroke-width: 0.5"/>
   </g>
   <g id="patch_14">
    <path d="M 51.572813 161.094342 
L 51.572813 92.772695 
" style="fill: none; stroke: #000000; stroke-width: 0.8; stroke-linejoin: miter; stroke-linecap: square"/>
   </g>
   <g id="patch_15">
    <path d="M 335.594813 161.094342 
L 335.594813 92.772695 
" style="fill: none; stroke: #000000; stroke-width: 0.8; stroke-linejoin: miter; stroke-linecap: square"/>
   </g>
   <g id="patch_16">
    <path d="M 51.572813 161.094342 
L 335.594813 161.094342 
" style="fill: none; stroke: #000000; stroke-width: 0.8; stroke-linejoin: miter; stroke-linecap: square"/>
   </g>
   <g id="patch_17">
    <path d="M 51.572813 92.772695 
L 335.594813 92.772695 
" style="fill: none; stroke: #000000; stroke-width: 0.8; stroke-linejoin: miter; stroke-linecap: square"/>
   </g>
   <g id="text_24">
    <!-- (b) -->
    <g transform="translate(278.790413 109.853107) scale(0.1 -0.1)">
     <use xlink:href="#Helvetica-28"/>
     <use xlink:href="#Helvetica-62" x="33.300781"/>
     <use xlink:href="#Helvetica-29" x="88.916016"/>
    </g>
   </g>
  </g>
 </g>
 <defs>
  <clipPath id="p01888ed120">
   <rect x="51.572813" y="10.786719" width="284.022" height="68.321647"/>
  </clipPath>
  <clipPath id="p35da64a2e2">
   <rect x="51.572813" y="174.758672" width="284.022" height="68.321647"/>
  </clipPath>
  <clipPath id="p30abeddaea">
   <rect x="51.572813" y="92.772695" width="284.022" height="68.321647"/>
  </clipPath>
 </defs>
</svg>
