<?xml version="1.0" encoding="utf-8" standalone="no"?>
<!DOCTYPE svg PUBLIC "-//W3C//DTD SVG 1.1//EN"
  "http://www.w3.org/Graphics/SVG/1.1/DTD/svg11.dtd">
<svg xmlns:xlink="http://www.w3.org/1999/xlink" width="377.19pt" height="316.7745pt" viewBox="0 0 377.19 316.7745" xmlns="http://www.w3.org/2000/svg" version="1.1">
 <metadata>
  <rdf:RDF xmlns:dc="http://purl.org/dc/elements/1.1/" xmlns:cc="http://creativecommons.org/ns#" xmlns:rdf="http://www.w3.org/1999/02/22-rdf-syntax-ns#">
   <cc:Work>
    <dc:type rdf:resource="http://purl.org/dc/dcmitype/StillImage"/>
    <dc:date>2024-11-07T21:37:13.971098</dc:date>
    <dc:format>image/svg+xml</dc:format>
    <dc:creator>
     <cc:Agent>
      <dc:title>Matplotlib v3.7.1, https://matplotlib.org/</dc:title>
     </cc:Agent>
    </dc:creator>
   </cc:Work>
  </rdf:RDF>
 </metadata>
 <defs>
  <style type="text/css">*{stroke-linejoin: round; stroke-linecap: butt}</style>
 </defs>
 <g id="figure_1">
  <g id="patch_1">
   <path d="M 0 316.7745 
L 377.19 316.7745 
L 377.19 0 
L 0 0 
z
" style="fill: #ffffff"/>
  </g>
  <g id="axes_1">
   <g id="patch_2">
    <path d="M 39.4 75.223872 
L 172.585185 75.223872 
L 172.585185 17.373437 
L 39.4 17.373437 
z
" style="fill: #ffffff"/>
   </g>
   <g id="matplotlib.axis_1">
    <g id="xtick_1">
     <g id="line2d_1">
      <defs>
       <path id="m763f000d59" d="M 0 0 
L 0 -3.5 
" style="stroke: #000000; stroke-width: 0.8"/>
      </defs>
      <g>
       <use xlink:href="#m763f000d59" x="39.4" y="75.223872" style="stroke: #000000; stroke-width: 0.8"/>
      </g>
     </g>
    </g>
    <g id="xtick_2">
     <g id="line2d_2">
      <g>
       <use xlink:href="#m763f000d59" x="72.696296" y="75.223872" style="stroke: #000000; stroke-width: 0.8"/>
      </g>
     </g>
    </g>
    <g id="xtick_3">
     <g id="line2d_3">
      <g>
       <use xlink:href="#m763f000d59" x="105.992593" y="75.223872" style="stroke: #000000; stroke-width: 0.8"/>
      </g>
     </g>
    </g>
    <g id="xtick_4">
     <g id="line2d_4">
      <g>
       <use xlink:href="#m763f000d59" x="139.288889" y="75.223872" style="stroke: #000000; stroke-width: 0.8"/>
      </g>
     </g>
    </g>
    <g id="xtick_5">
     <g id="line2d_5">
      <g>
       <use xlink:href="#m763f000d59" x="172.585185" y="75.223872" style="stroke: #000000; stroke-width: 0.8"/>
      </g>
     </g>
    </g>
   </g>
   <g id="matplotlib.axis_2">
    <g id="ytick_1">
     <g id="line2d_6">
      <defs>
       <path id="m5e45c44e2c" d="M 0 0 
L 3.5 0 
" style="stroke: #000000; stroke-width: 0.8"/>
      </defs>
      <g>
       <use xlink:href="#m5e45c44e2c" x="39.4" y="75.223872" style="stroke: #000000; stroke-width: 0.8"/>
      </g>
     </g>
     <g id="text_1">
      <!-- 1 -->
      <g transform="translate(30.339063 78.810591) scale(0.1 -0.1)">
       <defs>
        <path id="Helvetica-31" d="M 613 3169 
L 613 3600 
Q 1222 3659 1462 3798 
Q 1703 3938 1822 4456 
L 2266 4456 
L 2266 0 
L 1666 0 
L 1666 3169 
L 613 3169 
z
" transform="scale(0.015625)"/>
       </defs>
       <use xlink:href="#Helvetica-31"/>
      </g>
     </g>
    </g>
    <g id="ytick_2">
     <g id="line2d_7">
      <g>
       <use xlink:href="#m5e45c44e2c" x="39.4" y="46.298655" style="stroke: #000000; stroke-width: 0.8"/>
      </g>
     </g>
     <g id="text_2">
      <!-- 2 -->
      <g transform="translate(30.339063 49.885374) scale(0.1 -0.1)">
       <defs>
        <path id="Helvetica-32" d="M 200 0 
Q 231 578 439 1006 
Q 647 1434 1250 1784 
L 1850 2131 
Q 2253 2366 2416 2531 
Q 2672 2791 2672 3125 
Q 2672 3516 2437 3745 
Q 2203 3975 1813 3975 
Q 1234 3975 1013 3538 
Q 894 3303 881 2888 
L 309 2888 
Q 319 3472 525 3841 
Q 891 4491 1816 4491 
Q 2584 4491 2939 4075 
Q 3294 3659 3294 3150 
Q 3294 2613 2916 2231 
Q 2697 2009 2131 1694 
L 1703 1456 
Q 1397 1288 1222 1134 
Q 909 863 828 531 
L 3272 531 
L 3272 0 
L 200 0 
z
" transform="scale(0.015625)"/>
       </defs>
       <use xlink:href="#Helvetica-32"/>
      </g>
     </g>
    </g>
    <g id="ytick_3">
     <g id="line2d_8">
      <g>
       <use xlink:href="#m5e45c44e2c" x="39.4" y="17.373437" style="stroke: #000000; stroke-width: 0.8"/>
      </g>
     </g>
     <g id="text_3">
      <!-- 3 -->
      <g transform="translate(30.339063 20.960156) scale(0.1 -0.1)">
       <defs>
        <path id="Helvetica-33" d="M 1663 -122 
Q 869 -122 511 314 
Q 153 750 153 1375 
L 741 1375 
Q 778 941 903 744 
Q 1122 391 1694 391 
Q 2138 391 2406 628 
Q 2675 866 2675 1241 
Q 2675 1703 2392 1887 
Q 2109 2072 1606 2072 
Q 1550 2072 1492 2070 
Q 1434 2069 1375 2066 
L 1375 2563 
Q 1463 2553 1522 2550 
Q 1581 2547 1650 2547 
Q 1966 2547 2169 2647 
Q 2525 2822 2525 3272 
Q 2525 3606 2287 3787 
Q 2050 3969 1734 3969 
Q 1172 3969 956 3594 
Q 838 3388 822 3006 
L 266 3006 
Q 266 3506 466 3856 
Q 809 4481 1675 4481 
Q 2359 4481 2734 4176 
Q 3109 3872 3109 3294 
Q 3109 2881 2888 2625 
Q 2750 2466 2531 2375 
Q 2884 2278 3082 2001 
Q 3281 1725 3281 1325 
Q 3281 684 2859 281 
Q 2438 -122 1663 -122 
z
" transform="scale(0.015625)"/>
       </defs>
       <use xlink:href="#Helvetica-33"/>
      </g>
     </g>
    </g>
    <g id="text_4">
     <!-- $n$ -->
     <g transform="translate(24.254688 49.498655) rotate(-90) scale(0.1 -0.1)">
      <defs>
       <path id="DejaVuSans-Oblique-6e" d="M 3566 2113 
L 3156 0 
L 2578 0 
L 2988 2091 
Q 3016 2238 3031 2350 
Q 3047 2463 3047 2528 
Q 3047 2791 2881 2937 
Q 2716 3084 2419 3084 
Q 1956 3084 1622 2776 
Q 1288 2469 1184 1941 
L 800 0 
L 225 0 
L 903 3500 
L 1478 3500 
L 1363 2950 
Q 1603 3253 1940 3418 
Q 2278 3584 2650 3584 
Q 3113 3584 3367 3334 
Q 3622 3084 3622 2631 
Q 3622 2519 3608 2391 
Q 3594 2263 3566 2113 
z
" transform="scale(0.015625)"/>
      </defs>
      <use xlink:href="#DejaVuSans-Oblique-6e"/>
     </g>
    </g>
   </g>
   <g id="line2d_9">
    <path clip-path="url(#pdac44190f3)" style="fill: none; stroke: #1f77b4; stroke-width: 1.5; stroke-linecap: square"/>
   </g>
   <g id="line2d_10">
    <path clip-path="url(#pdac44190f3)" style="fill: none; stroke-dasharray: 5.55,2.4; stroke-dashoffset: 0; stroke: #2ca02c; stroke-width: 1.5"/>
   </g>
   <g id="line2d_11">
    <path clip-path="url(#pdac44190f3)" style="fill: none; stroke: #000000; stroke-width: 1.5; stroke-linecap: square"/>
   </g>
   <g id="LineCollection_1">
    <path d="M 172.585185 104.14909 
L 172.585185 -1 
" clip-path="url(#pdac44190f3)" style="fill: none; stroke-dasharray: 3.2,0.8,0.5,0.8; stroke-dashoffset: 0; stroke: #000000; stroke-width: 0.5"/>
   </g>
   <g id="patch_3">
    <path d="M 39.4 75.223872 
L 39.4 17.373437 
" style="fill: none; stroke: #000000; stroke-width: 0.8; stroke-linejoin: miter; stroke-linecap: square"/>
   </g>
   <g id="patch_4">
    <path d="M 172.585185 75.223872 
L 172.585185 17.373437 
" style="fill: none; stroke: #000000; stroke-width: 0.8; stroke-linejoin: miter; stroke-linecap: square"/>
   </g>
   <g id="patch_5">
    <path d="M 39.4 75.223872 
L 172.585185 75.223872 
" style="fill: none; stroke: #000000; stroke-width: 0.8; stroke-linejoin: miter; stroke-linecap: square"/>
   </g>
   <g id="patch_6">
    <path d="M 39.4 17.373437 
L 172.585185 17.373437 
" style="fill: none; stroke: #000000; stroke-width: 0.8; stroke-linejoin: miter; stroke-linecap: square"/>
   </g>
   <g id="text_5">
    <!-- (a) -->
    <g transform="translate(72.696296 43.406133) scale(0.1 -0.1)">
     <defs>
      <path id="Helvetica-28" d="M 1894 4666 
Q 1403 3713 1256 3263 
Q 1034 2578 1034 1681 
Q 1034 775 1288 25 
Q 1444 -438 1903 -1306 
L 1525 -1306 
Q 1069 -594 959 -397 
Q 850 -200 722 138 
Q 547 600 478 1125 
Q 444 1397 444 1644 
Q 444 2569 734 3291 
Q 919 3750 1503 4666 
L 1894 4666 
z
" transform="scale(0.015625)"/>
      <path id="Helvetica-61" d="M 844 891 
Q 844 647 1022 506 
Q 1200 366 1444 366 
Q 1741 366 2019 503 
Q 2488 731 2488 1250 
L 2488 1703 
Q 2384 1638 2221 1594 
Q 2059 1550 1903 1531 
L 1563 1488 
Q 1256 1447 1103 1359 
Q 844 1213 844 891 
z
M 2206 2028 
Q 2400 2053 2466 2191 
Q 2503 2266 2503 2406 
Q 2503 2694 2298 2823 
Q 2094 2953 1713 2953 
Q 1272 2953 1088 2716 
Q 984 2584 953 2325 
L 428 2325 
Q 444 2944 830 3186 
Q 1216 3428 1725 3428 
Q 2316 3428 2684 3203 
Q 3050 2978 3050 2503 
L 3050 575 
Q 3050 488 3086 434 
Q 3122 381 3238 381 
Q 3275 381 3322 386 
Q 3369 391 3422 400 
L 3422 -16 
Q 3291 -53 3222 -62 
Q 3153 -72 3034 -72 
Q 2744 -72 2613 134 
Q 2544 244 2516 444 
Q 2344 219 2022 53 
Q 1700 -113 1313 -113 
Q 847 -113 551 170 
Q 256 453 256 878 
Q 256 1344 547 1600 
Q 838 1856 1309 1916 
L 2206 2028 
z
M 1741 3428 
L 1741 3428 
z
" transform="scale(0.015625)"/>
      <path id="Helvetica-29" d="M 222 -1306 
Q 719 -338 863 106 
Q 1081 778 1081 1681 
Q 1081 2584 828 3334 
Q 672 3797 213 4666 
L 591 4666 
Q 1072 3897 1173 3717 
Q 1275 3538 1394 3222 
Q 1544 2831 1608 2450 
Q 1672 2069 1672 1716 
Q 1672 791 1378 66 
Q 1194 -400 613 -1306 
L 222 -1306 
z
" transform="scale(0.015625)"/>
     </defs>
     <use xlink:href="#Helvetica-28"/>
     <use xlink:href="#Helvetica-61" x="33.300781"/>
     <use xlink:href="#Helvetica-29" x="88.916016"/>
    </g>
   </g>
  </g>
  <g id="axes_2">
   <g id="patch_7">
    <path d="M 39.4 144.644394 
L 172.585185 144.644394 
L 172.585185 86.793959 
L 39.4 86.793959 
z
" style="fill: #ffffff"/>
   </g>
   <g id="matplotlib.axis_3">
    <g id="xtick_6">
     <g id="line2d_12">
      <g>
       <use xlink:href="#m763f000d59" x="39.4" y="144.644394" style="stroke: #000000; stroke-width: 0.8"/>
      </g>
     </g>
    </g>
    <g id="xtick_7">
     <g id="line2d_13">
      <g>
       <use xlink:href="#m763f000d59" x="72.696296" y="144.644394" style="stroke: #000000; stroke-width: 0.8"/>
      </g>
     </g>
    </g>
    <g id="xtick_8">
     <g id="line2d_14">
      <g>
       <use xlink:href="#m763f000d59" x="105.992593" y="144.644394" style="stroke: #000000; stroke-width: 0.8"/>
      </g>
     </g>
    </g>
    <g id="xtick_9">
     <g id="line2d_15">
      <g>
       <use xlink:href="#m763f000d59" x="139.288889" y="144.644394" style="stroke: #000000; stroke-width: 0.8"/>
      </g>
     </g>
    </g>
    <g id="xtick_10">
     <g id="line2d_16">
      <g>
       <use xlink:href="#m763f000d59" x="172.585185" y="144.644394" style="stroke: #000000; stroke-width: 0.8"/>
      </g>
     </g>
    </g>
   </g>
   <g id="matplotlib.axis_4">
    <g id="ytick_4">
     <g id="line2d_17">
      <g>
       <use xlink:href="#m5e45c44e2c" x="39.4" y="144.644394" style="stroke: #000000; stroke-width: 0.8"/>
      </g>
     </g>
     <g id="text_6">
      <!-- 0.0 -->
      <g transform="translate(22 148.231113) scale(0.1 -0.1)">
       <defs>
        <path id="Helvetica-30" d="M 1731 4475 
Q 2600 4475 2988 3759 
Q 3288 3206 3288 2244 
Q 3288 1331 3016 734 
Q 2622 -122 1728 -122 
Q 922 -122 528 578 
Q 200 1163 200 2147 
Q 200 2909 397 3456 
Q 766 4475 1731 4475 
z
M 1725 391 
Q 2163 391 2422 778 
Q 2681 1166 2681 2222 
Q 2681 2984 2493 3476 
Q 2306 3969 1766 3969 
Q 1269 3969 1039 3501 
Q 809 3034 809 2125 
Q 809 1441 956 1025 
Q 1181 391 1725 391 
z
" transform="scale(0.015625)"/>
        <path id="Helvetica-2e" d="M 547 681 
L 1200 681 
L 1200 0 
L 547 0 
L 547 681 
z
" transform="scale(0.015625)"/>
       </defs>
       <use xlink:href="#Helvetica-30"/>
       <use xlink:href="#Helvetica-2e" x="55.615234"/>
       <use xlink:href="#Helvetica-30" x="83.398438"/>
      </g>
     </g>
    </g>
    <g id="ytick_5">
     <g id="line2d_18">
      <g>
       <use xlink:href="#m5e45c44e2c" x="39.4" y="115.719177" style="stroke: #000000; stroke-width: 0.8"/>
      </g>
     </g>
     <g id="text_7">
      <!-- 0.5 -->
      <g transform="translate(22 119.305895) scale(0.1 -0.1)">
       <defs>
        <path id="Helvetica-35" d="M 791 1141 
Q 847 659 1238 475 
Q 1438 381 1700 381 
Q 2200 381 2440 700 
Q 2681 1019 2681 1406 
Q 2681 1875 2395 2131 
Q 2109 2388 1709 2388 
Q 1419 2388 1211 2275 
Q 1003 2163 856 1963 
L 369 1991 
L 709 4400 
L 3034 4400 
L 3034 3856 
L 1131 3856 
L 941 2613 
Q 1097 2731 1238 2791 
Q 1488 2894 1816 2894 
Q 2431 2894 2859 2497 
Q 3288 2100 3288 1491 
Q 3288 856 2895 371 
Q 2503 -113 1644 -113 
Q 1097 -113 676 195 
Q 256 503 206 1141 
L 791 1141 
z
" transform="scale(0.015625)"/>
       </defs>
       <use xlink:href="#Helvetica-30"/>
       <use xlink:href="#Helvetica-2e" x="55.615234"/>
       <use xlink:href="#Helvetica-35" x="83.398438"/>
      </g>
     </g>
    </g>
    <g id="ytick_6">
     <g id="line2d_19">
      <g>
       <use xlink:href="#m5e45c44e2c" x="39.4" y="86.793959" style="stroke: #000000; stroke-width: 0.8"/>
      </g>
     </g>
     <g id="text_8">
      <!-- 1.0 -->
      <g transform="translate(22 90.380678) scale(0.1 -0.1)">
       <use xlink:href="#Helvetica-31"/>
       <use xlink:href="#Helvetica-2e" x="55.615234"/>
       <use xlink:href="#Helvetica-30" x="83.398438"/>
      </g>
     </g>
    </g>
    <g id="text_9">
     <!-- $T_{\rm{i}\parallel}$ -->
     <g transform="translate(14.8 123.019177) rotate(-90) scale(0.1 -0.1)">
      <defs>
       <path id="DejaVuSans-Oblique-54" d="M 378 4666 
L 4325 4666 
L 4225 4134 
L 2559 4134 
L 1759 0 
L 1125 0 
L 1925 4134 
L 275 4134 
L 378 4666 
z
" transform="scale(0.015625)"/>
       <path id="DejaVuSans-69" d="M 603 3500 
L 1178 3500 
L 1178 0 
L 603 0 
L 603 3500 
z
M 603 4863 
L 1178 4863 
L 1178 4134 
L 603 4134 
L 603 4863 
z
" transform="scale(0.015625)"/>
       <path id="DejaVuSans-2225" d="M 850 4934 
L 1350 4934 
L 1350 -1369 
L 850 -1369 
L 850 4934 
z
M 1850 4934 
L 2350 4934 
L 2350 -1369 
L 1850 -1369 
L 1850 4934 
z
" transform="scale(0.015625)"/>
      </defs>
      <use xlink:href="#DejaVuSans-Oblique-54" transform="translate(0 0.09375)"/>
      <use xlink:href="#DejaVuSans-69" transform="translate(61.083984 -16.3125) scale(0.7)"/>
      <use xlink:href="#DejaVuSans-2225" transform="translate(94.169922 -16.3125) scale(0.7)"/>
     </g>
    </g>
   </g>
   <g id="line2d_20">
    <path clip-path="url(#p611fa56341)" style="fill: none; stroke: #1f77b4; stroke-width: 1.5; stroke-linecap: square"/>
   </g>
   <g id="line2d_21">
    <path clip-path="url(#p611fa56341)" style="fill: none; stroke-dasharray: 5.55,2.4; stroke-dashoffset: 0; stroke: #2ca02c; stroke-width: 1.5"/>
   </g>
   <g id="line2d_22">
    <path clip-path="url(#p611fa56341)" style="fill: none; stroke: #000000; stroke-width: 1.5; stroke-linecap: square"/>
   </g>
   <g id="LineCollection_2">
    <path d="M 172.585185 144.644394 
L 172.585185 -1 
" clip-path="url(#p611fa56341)" style="fill: none; stroke-dasharray: 3.2,0.8,0.5,0.8; stroke-dashoffset: 0; stroke: #000000; stroke-width: 0.5"/>
   </g>
   <g id="patch_8">
    <path d="M 39.4 144.644394 
L 39.4 86.793959 
" style="fill: none; stroke: #000000; stroke-width: 0.8; stroke-linejoin: miter; stroke-linecap: square"/>
   </g>
   <g id="patch_9">
    <path d="M 172.585185 144.644394 
L 172.585185 86.793959 
" style="fill: none; stroke: #000000; stroke-width: 0.8; stroke-linejoin: miter; stroke-linecap: square"/>
   </g>
   <g id="patch_10">
    <path d="M 39.4 144.644394 
L 172.585185 144.644394 
" style="fill: none; stroke: #000000; stroke-width: 0.8; stroke-linejoin: miter; stroke-linecap: square"/>
   </g>
   <g id="patch_11">
    <path d="M 39.4 86.793959 
L 172.585185 86.793959 
" style="fill: none; stroke: #000000; stroke-width: 0.8; stroke-linejoin: miter; stroke-linecap: square"/>
   </g>
   <g id="text_10">
    <!-- (b) -->
    <g transform="translate(72.696296 130.181785) scale(0.1 -0.1)">
     <defs>
      <path id="Helvetica-62" d="M 369 4606 
L 916 4606 
L 916 2941 
Q 1100 3181 1356 3307 
Q 1613 3434 1913 3434 
Q 2538 3434 2927 3004 
Q 3316 2575 3316 1738 
Q 3316 944 2931 419 
Q 2547 -106 1866 -106 
Q 1484 -106 1222 78 
Q 1066 188 888 428 
L 888 0 
L 369 0 
L 369 4606 
z
M 1831 391 
Q 2288 391 2514 753 
Q 2741 1116 2741 1709 
Q 2741 2238 2514 2584 
Q 2288 2931 1847 2931 
Q 1463 2931 1173 2647 
Q 884 2363 884 1709 
Q 884 1238 1003 944 
Q 1225 391 1831 391 
z
" transform="scale(0.015625)"/>
     </defs>
     <use xlink:href="#Helvetica-28"/>
     <use xlink:href="#Helvetica-62" x="33.300781"/>
     <use xlink:href="#Helvetica-29" x="88.916016"/>
    </g>
   </g>
  </g>
  <g id="axes_3">
   <g id="patch_12">
    <path d="M 39.4 214.064916 
L 172.585185 214.064916 
L 172.585185 156.214481 
L 39.4 156.214481 
z
" style="fill: #ffffff"/>
   </g>
   <g id="matplotlib.axis_5">
    <g id="xtick_11">
     <g id="line2d_23">
      <g>
       <use xlink:href="#m763f000d59" x="39.4" y="214.064916" style="stroke: #000000; stroke-width: 0.8"/>
      </g>
     </g>
    </g>
    <g id="xtick_12">
     <g id="line2d_24">
      <g>
       <use xlink:href="#m763f000d59" x="72.696296" y="214.064916" style="stroke: #000000; stroke-width: 0.8"/>
      </g>
     </g>
    </g>
    <g id="xtick_13">
     <g id="line2d_25">
      <g>
       <use xlink:href="#m763f000d59" x="105.992593" y="214.064916" style="stroke: #000000; stroke-width: 0.8"/>
      </g>
     </g>
    </g>
    <g id="xtick_14">
     <g id="line2d_26">
      <g>
       <use xlink:href="#m763f000d59" x="139.288889" y="214.064916" style="stroke: #000000; stroke-width: 0.8"/>
      </g>
     </g>
    </g>
    <g id="xtick_15">
     <g id="line2d_27">
      <g>
       <use xlink:href="#m763f000d59" x="172.585185" y="214.064916" style="stroke: #000000; stroke-width: 0.8"/>
      </g>
     </g>
    </g>
   </g>
   <g id="matplotlib.axis_6">
    <g id="ytick_7">
     <g id="line2d_28">
      <g>
       <use xlink:href="#m5e45c44e2c" x="39.4" y="214.064916" style="stroke: #000000; stroke-width: 0.8"/>
      </g>
     </g>
     <g id="text_11">
      <!-- 0.0 -->
      <g transform="translate(22 217.651635) scale(0.1 -0.1)">
       <use xlink:href="#Helvetica-30"/>
       <use xlink:href="#Helvetica-2e" x="55.615234"/>
       <use xlink:href="#Helvetica-30" x="83.398438"/>
      </g>
     </g>
    </g>
    <g id="ytick_8">
     <g id="line2d_29">
      <g>
       <use xlink:href="#m5e45c44e2c" x="39.4" y="185.139698" style="stroke: #000000; stroke-width: 0.8"/>
      </g>
     </g>
     <g id="text_12">
      <!-- 0.5 -->
      <g transform="translate(22 188.726417) scale(0.1 -0.1)">
       <use xlink:href="#Helvetica-30"/>
       <use xlink:href="#Helvetica-2e" x="55.615234"/>
       <use xlink:href="#Helvetica-35" x="83.398438"/>
      </g>
     </g>
    </g>
    <g id="ytick_9">
     <g id="line2d_30">
      <g>
       <use xlink:href="#m5e45c44e2c" x="39.4" y="156.214481" style="stroke: #000000; stroke-width: 0.8"/>
      </g>
     </g>
     <g id="text_13">
      <!-- 1.0 -->
      <g transform="translate(22 159.8012) scale(0.1 -0.1)">
       <use xlink:href="#Helvetica-31"/>
       <use xlink:href="#Helvetica-2e" x="55.615234"/>
       <use xlink:href="#Helvetica-30" x="83.398438"/>
      </g>
     </g>
    </g>
    <g id="text_14">
     <!-- $T_{\rm{e}}$ -->
     <g transform="translate(15.915625 190.489698) rotate(-90) scale(0.1 -0.1)">
      <defs>
       <path id="DejaVuSans-65" d="M 3597 1894 
L 3597 1613 
L 953 1613 
Q 991 1019 1311 708 
Q 1631 397 2203 397 
Q 2534 397 2845 478 
Q 3156 559 3463 722 
L 3463 178 
Q 3153 47 2828 -22 
Q 2503 -91 2169 -91 
Q 1331 -91 842 396 
Q 353 884 353 1716 
Q 353 2575 817 3079 
Q 1281 3584 2069 3584 
Q 2775 3584 3186 3129 
Q 3597 2675 3597 1894 
z
M 3022 2063 
Q 3016 2534 2758 2815 
Q 2500 3097 2075 3097 
Q 1594 3097 1305 2825 
Q 1016 2553 972 2059 
L 3022 2063 
z
" transform="scale(0.015625)"/>
      </defs>
      <use xlink:href="#DejaVuSans-Oblique-54" transform="translate(0 0.09375)"/>
      <use xlink:href="#DejaVuSans-65" transform="translate(61.083984 -16.3125) scale(0.7)"/>
     </g>
    </g>
   </g>
   <g id="line2d_31">
    <path clip-path="url(#p7f370add09)" style="fill: none; stroke: #1f77b4; stroke-width: 1.5; stroke-linecap: square"/>
   </g>
   <g id="line2d_32">
    <path clip-path="url(#p7f370add09)" style="fill: none; stroke-dasharray: 5.55,2.4; stroke-dashoffset: 0; stroke: #2ca02c; stroke-width: 1.5"/>
   </g>
   <g id="line2d_33">
    <path clip-path="url(#p7f370add09)" style="fill: none; stroke: #000000; stroke-width: 1.5; stroke-linecap: square"/>
   </g>
   <g id="LineCollection_3">
    <path d="M 172.585185 214.064916 
L 172.585185 -1 
" clip-path="url(#p7f370add09)" style="fill: none; stroke-dasharray: 3.2,0.8,0.5,0.8; stroke-dashoffset: 0; stroke: #000000; stroke-width: 0.5"/>
   </g>
   <g id="patch_13">
    <path d="M 39.4 214.064916 
L 39.4 156.214481 
" style="fill: none; stroke: #000000; stroke-width: 0.8; stroke-linejoin: miter; stroke-linecap: square"/>
   </g>
   <g id="patch_14">
    <path d="M 172.585185 214.064916 
L 172.585185 156.214481 
" style="fill: none; stroke: #000000; stroke-width: 0.8; stroke-linejoin: miter; stroke-linecap: square"/>
   </g>
   <g id="patch_15">
    <path d="M 39.4 214.064916 
L 172.585185 214.064916 
" style="fill: none; stroke: #000000; stroke-width: 0.8; stroke-linejoin: miter; stroke-linecap: square"/>
   </g>
   <g id="patch_16">
    <path d="M 39.4 156.214481 
L 172.585185 156.214481 
" style="fill: none; stroke: #000000; stroke-width: 0.8; stroke-linejoin: miter; stroke-linecap: square"/>
   </g>
   <g id="text_15">
    <!-- (c) -->
    <g transform="translate(72.696296 199.602307) scale(0.1 -0.1)">
     <defs>
      <path id="Helvetica-63" d="M 1703 3444 
Q 2269 3444 2623 3169 
Q 2978 2894 3050 2222 
L 2503 2222 
Q 2453 2531 2275 2736 
Q 2097 2941 1703 2941 
Q 1166 2941 934 2416 
Q 784 2075 784 1575 
Q 784 1072 996 728 
Q 1209 384 1666 384 
Q 2016 384 2220 598 
Q 2425 813 2503 1184 
L 3050 1184 
Q 2956 519 2581 211 
Q 2206 -97 1622 -97 
Q 966 -97 575 383 
Q 184 863 184 1581 
Q 184 2463 612 2953 
Q 1041 3444 1703 3444 
z
M 1616 3428 
L 1616 3428 
z
" transform="scale(0.015625)"/>
     </defs>
     <use xlink:href="#Helvetica-28"/>
     <use xlink:href="#Helvetica-63" x="33.300781"/>
     <use xlink:href="#Helvetica-29" x="83.300781"/>
    </g>
   </g>
  </g>
  <g id="axes_4">
   <g id="patch_17">
    <path d="M 39.4 283.485437 
L 172.585185 283.485437 
L 172.585185 225.635003 
L 39.4 225.635003 
z
" style="fill: #ffffff"/>
   </g>
   <g id="matplotlib.axis_7">
    <g id="xtick_16">
     <g id="line2d_34">
      <g>
       <use xlink:href="#m763f000d59" x="39.4" y="283.485437" style="stroke: #000000; stroke-width: 0.8"/>
      </g>
     </g>
     <g id="text_16">
      <!-- 2.0 -->
      <g transform="translate(32.45 294.158875) scale(0.1 -0.1)">
       <use xlink:href="#Helvetica-32"/>
       <use xlink:href="#Helvetica-2e" x="55.615234"/>
       <use xlink:href="#Helvetica-30" x="83.398438"/>
      </g>
     </g>
    </g>
    <g id="xtick_17">
     <g id="line2d_35">
      <g>
       <use xlink:href="#m763f000d59" x="72.696296" y="283.485437" style="stroke: #000000; stroke-width: 0.8"/>
      </g>
     </g>
     <g id="text_17">
      <!-- 2.2 -->
      <g transform="translate(65.746296 294.158875) scale(0.1 -0.1)">
       <use xlink:href="#Helvetica-32"/>
       <use xlink:href="#Helvetica-2e" x="55.615234"/>
       <use xlink:href="#Helvetica-32" x="83.398438"/>
      </g>
     </g>
    </g>
    <g id="xtick_18">
     <g id="line2d_36">
      <g>
       <use xlink:href="#m763f000d59" x="105.992593" y="283.485437" style="stroke: #000000; stroke-width: 0.8"/>
      </g>
     </g>
     <g id="text_18">
      <!-- 2.4 -->
      <g transform="translate(99.042593 294.158875) scale(0.1 -0.1)">
       <defs>
        <path id="Helvetica-34" d="M 2116 1584 
L 2116 3613 
L 681 1584 
L 2116 1584 
z
M 2125 0 
L 2125 1094 
L 163 1094 
L 163 1644 
L 2213 4488 
L 2688 4488 
L 2688 1584 
L 3347 1584 
L 3347 1094 
L 2688 1094 
L 2688 0 
L 2125 0 
z
" transform="scale(0.015625)"/>
       </defs>
       <use xlink:href="#Helvetica-32"/>
       <use xlink:href="#Helvetica-2e" x="55.615234"/>
       <use xlink:href="#Helvetica-34" x="83.398438"/>
      </g>
     </g>
    </g>
    <g id="xtick_19">
     <g id="line2d_37">
      <g>
       <use xlink:href="#m763f000d59" x="139.288889" y="283.485437" style="stroke: #000000; stroke-width: 0.8"/>
      </g>
     </g>
     <g id="text_19">
      <!-- 2.6 -->
      <g transform="translate(132.338889 294.158875) scale(0.1 -0.1)">
       <defs>
        <path id="Helvetica-36" d="M 1872 4494 
Q 2622 4494 2917 4105 
Q 3213 3716 3213 3303 
L 2656 3303 
Q 2606 3569 2497 3719 
Q 2294 4000 1881 4000 
Q 1409 4000 1131 3564 
Q 853 3128 822 2316 
Q 1016 2600 1309 2741 
Q 1578 2866 1909 2866 
Q 2472 2866 2890 2506 
Q 3309 2147 3309 1434 
Q 3309 825 2912 354 
Q 2516 -116 1781 -116 
Q 1153 -116 697 361 
Q 241 838 241 1966 
Q 241 2800 444 3381 
Q 834 4494 1872 4494 
z
M 1831 384 
Q 2275 384 2495 682 
Q 2716 981 2716 1388 
Q 2716 1731 2519 2042 
Q 2322 2353 1803 2353 
Q 1441 2353 1167 2112 
Q 894 1872 894 1388 
Q 894 963 1142 673 
Q 1391 384 1831 384 
z
" transform="scale(0.015625)"/>
       </defs>
       <use xlink:href="#Helvetica-32"/>
       <use xlink:href="#Helvetica-2e" x="55.615234"/>
       <use xlink:href="#Helvetica-36" x="83.398438"/>
      </g>
     </g>
    </g>
    <g id="xtick_20">
     <g id="line2d_38">
      <g>
       <use xlink:href="#m763f000d59" x="172.585185" y="283.485437" style="stroke: #000000; stroke-width: 0.8"/>
      </g>
     </g>
     <g id="text_20">
      <!-- 2.8 -->
      <g transform="translate(165.635185 294.158875) scale(0.1 -0.1)">
       <defs>
        <path id="Helvetica-38" d="M 1741 2600 
Q 2113 2600 2322 2808 
Q 2531 3016 2531 3303 
Q 2531 3553 2331 3762 
Q 2131 3972 1722 3972 
Q 1316 3972 1134 3762 
Q 953 3553 953 3272 
Q 953 2956 1187 2778 
Q 1422 2600 1741 2600 
z
M 1775 384 
Q 2166 384 2423 595 
Q 2681 806 2681 1225 
Q 2681 1659 2415 1884 
Q 2150 2109 1734 2109 
Q 1331 2109 1076 1879 
Q 822 1650 822 1244 
Q 822 894 1055 639 
Q 1288 384 1775 384 
z
M 975 2384 
Q 741 2484 609 2619 
Q 363 2869 363 3269 
Q 363 3769 725 4128 
Q 1088 4488 1753 4488 
Q 2397 4488 2762 4148 
Q 3128 3809 3128 3356 
Q 3128 2938 2916 2678 
Q 2797 2531 2547 2391 
Q 2825 2263 2984 2097 
Q 3281 1784 3281 1284 
Q 3281 694 2884 283 
Q 2488 -128 1763 -128 
Q 1109 -128 657 226 
Q 206 581 206 1256 
Q 206 1653 400 1942 
Q 594 2231 975 2384 
z
" transform="scale(0.015625)"/>
       </defs>
       <use xlink:href="#Helvetica-32"/>
       <use xlink:href="#Helvetica-2e" x="55.615234"/>
       <use xlink:href="#Helvetica-38" x="83.398438"/>
      </g>
     </g>
    </g>
    <g id="text_21">
     <!-- s (m) -->
     <g transform="translate(94.608999 307.490125) scale(0.1 -0.1)">
      <defs>
       <path id="Helvetica-73" d="M 747 1050 
Q 772 769 888 619 
Q 1100 347 1625 347 
Q 1938 347 2175 483 
Q 2413 619 2413 903 
Q 2413 1119 2222 1231 
Q 2100 1300 1741 1391 
L 1294 1503 
Q 866 1609 663 1741 
Q 300 1969 300 2372 
Q 300 2847 642 3140 
Q 984 3434 1563 3434 
Q 2319 3434 2653 2991 
Q 2863 2709 2856 2384 
L 2325 2384 
Q 2309 2575 2191 2731 
Q 1997 2953 1519 2953 
Q 1200 2953 1036 2831 
Q 872 2709 872 2509 
Q 872 2291 1088 2159 
Q 1213 2081 1456 2022 
L 1828 1931 
Q 2434 1784 2641 1647 
Q 2969 1431 2969 969 
Q 2969 522 2630 197 
Q 2291 -128 1597 -128 
Q 850 -128 539 211 
Q 228 550 206 1050 
L 747 1050 
z
M 1578 3428 
L 1578 3428 
z
" transform="scale(0.015625)"/>
       <path id="Helvetica-20" transform="scale(0.015625)"/>
       <path id="Helvetica-6d" d="M 413 3347 
L 969 3347 
L 969 2872 
Q 1169 3119 1331 3231 
Q 1609 3422 1963 3422 
Q 2363 3422 2606 3225 
Q 2744 3113 2856 2894 
Q 3044 3163 3297 3292 
Q 3550 3422 3866 3422 
Q 4541 3422 4784 2934 
Q 4916 2672 4916 2228 
L 4916 0 
L 4331 0 
L 4331 2325 
Q 4331 2659 4164 2784 
Q 3997 2909 3756 2909 
Q 3425 2909 3186 2687 
Q 2947 2466 2947 1947 
L 2947 0 
L 2375 0 
L 2375 2184 
Q 2375 2525 2294 2681 
Q 2166 2916 1816 2916 
Q 1497 2916 1236 2669 
Q 975 2422 975 1775 
L 975 0 
L 413 0 
L 413 3347 
z
" transform="scale(0.015625)"/>
      </defs>
      <use xlink:href="#Helvetica-73"/>
      <use xlink:href="#Helvetica-20" x="50"/>
      <use xlink:href="#Helvetica-28" x="77.783203"/>
      <use xlink:href="#Helvetica-6d" x="111.083984"/>
      <use xlink:href="#Helvetica-29" x="194.384766"/>
     </g>
    </g>
   </g>
   <g id="matplotlib.axis_8">
    <g id="ytick_10">
     <g id="line2d_39">
      <g>
       <use xlink:href="#m5e45c44e2c" x="39.4" y="283.485437" style="stroke: #000000; stroke-width: 0.8"/>
      </g>
     </g>
     <g id="text_22">
      <!-- 0.0 -->
      <g transform="translate(22 287.072156) scale(0.1 -0.1)">
       <use xlink:href="#Helvetica-30"/>
       <use xlink:href="#Helvetica-2e" x="55.615234"/>
       <use xlink:href="#Helvetica-30" x="83.398438"/>
      </g>
     </g>
    </g>
    <g id="ytick_11">
     <g id="line2d_40">
      <g>
       <use xlink:href="#m5e45c44e2c" x="39.4" y="254.56022" style="stroke: #000000; stroke-width: 0.8"/>
      </g>
     </g>
     <g id="text_23">
      <!-- 0.5 -->
      <g transform="translate(22 258.146939) scale(0.1 -0.1)">
       <use xlink:href="#Helvetica-30"/>
       <use xlink:href="#Helvetica-2e" x="55.615234"/>
       <use xlink:href="#Helvetica-35" x="83.398438"/>
      </g>
     </g>
    </g>
    <g id="ytick_12">
     <g id="line2d_41">
      <g>
       <use xlink:href="#m5e45c44e2c" x="39.4" y="225.635003" style="stroke: #000000; stroke-width: 0.8"/>
      </g>
     </g>
     <g id="text_24">
      <!-- 1.0 -->
      <g transform="translate(22 229.221721) scale(0.1 -0.1)">
       <use xlink:href="#Helvetica-31"/>
       <use xlink:href="#Helvetica-2e" x="55.615234"/>
       <use xlink:href="#Helvetica-30" x="83.398438"/>
      </g>
     </g>
    </g>
    <g id="text_25">
     <!-- $(T_{\rm{i}\parallel}-T_{\rm{i}\perp})}$ -->
     <g transform="translate(14.8 279.86022) rotate(-90) scale(0.1 -0.1)">
      <defs>
       <path id="DejaVuSans-28" d="M 1984 4856 
Q 1566 4138 1362 3434 
Q 1159 2731 1159 2009 
Q 1159 1288 1364 580 
Q 1569 -128 1984 -844 
L 1484 -844 
Q 1016 -109 783 600 
Q 550 1309 550 2009 
Q 550 2706 781 3412 
Q 1013 4119 1484 4856 
L 1984 4856 
z
" transform="scale(0.015625)"/>
       <path id="DejaVuSans-2212" d="M 678 2272 
L 4684 2272 
L 4684 1741 
L 678 1741 
L 678 2272 
z
" transform="scale(0.015625)"/>
       <path id="STIXGeneral-Regular-27c2" d="M 4102 0 
L 333 0 
L 333 422 
L 2010 422 
L 2010 4237 
L 2432 4237 
L 2432 422 
L 4102 422 
L 4102 0 
z
" transform="scale(0.015625)"/>
       <path id="DejaVuSans-29" d="M 513 4856 
L 1013 4856 
Q 1481 4119 1714 3412 
Q 1947 2706 1947 2009 
Q 1947 1309 1714 600 
Q 1481 -109 1013 -844 
L 513 -844 
Q 928 -128 1133 580 
Q 1338 1288 1338 2009 
Q 1338 2731 1133 3434 
Q 928 4138 513 4856 
z
" transform="scale(0.015625)"/>
      </defs>
      <use xlink:href="#DejaVuSans-28" transform="translate(0 0.125)"/>
      <use xlink:href="#DejaVuSans-Oblique-54" transform="translate(39.013672 0.125)"/>
      <use xlink:href="#DejaVuSans-69" transform="translate(100.097656 -16.28125) scale(0.7)"/>
      <use xlink:href="#DejaVuSans-2225" transform="translate(133.183594 -16.28125) scale(0.7)"/>
      <use xlink:href="#DejaVuSans-2212" transform="translate(204.038086 0.125)"/>
      <use xlink:href="#DejaVuSans-Oblique-54" transform="translate(307.30957 0.125)"/>
      <use xlink:href="#DejaVuSans-69" transform="translate(368.393555 -16.28125) scale(0.7)"/>
      <use xlink:href="#STIXGeneral-Regular-27c2" transform="translate(401.479492 -16.28125) scale(0.7)"/>
      <use xlink:href="#DejaVuSans-29" transform="translate(466.361554 0.125)"/>
     </g>
    </g>
   </g>
   <g id="line2d_42">
    <path clip-path="url(#p385ebb98bc)" style="fill: none; stroke: #1f77b4; stroke-width: 1.5; stroke-linecap: square"/>
   </g>
   <g id="line2d_43">
    <path clip-path="url(#p385ebb98bc)" style="fill: none; stroke-dasharray: 5.55,2.4; stroke-dashoffset: 0; stroke: #2ca02c; stroke-width: 1.5"/>
   </g>
   <g id="line2d_44">
    <path clip-path="url(#p385ebb98bc)" style="fill: none; stroke: #000000; stroke-width: 1.5; stroke-linecap: square"/>
   </g>
   <g id="LineCollection_4">
    <path d="M 172.585185 283.485437 
L 172.585185 -1 
" clip-path="url(#p385ebb98bc)" style="fill: none; stroke-dasharray: 3.2,0.8,0.5,0.8; stroke-dashoffset: 0; stroke: #000000; stroke-width: 0.5"/>
   </g>
   <g id="patch_18">
    <path d="M 39.4 283.485437 
L 39.4 225.635003 
" style="fill: none; stroke: #000000; stroke-width: 0.8; stroke-linejoin: miter; stroke-linecap: square"/>
   </g>
   <g id="patch_19">
    <path d="M 172.585185 283.485437 
L 172.585185 225.635003 
" style="fill: none; stroke: #000000; stroke-width: 0.8; stroke-linejoin: miter; stroke-linecap: square"/>
   </g>
   <g id="patch_20">
    <path d="M 39.4 283.485437 
L 172.585185 283.485437 
" style="fill: none; stroke: #000000; stroke-width: 0.8; stroke-linejoin: miter; stroke-linecap: square"/>
   </g>
   <g id="patch_21">
    <path d="M 39.4 225.635003 
L 172.585185 225.635003 
" style="fill: none; stroke: #000000; stroke-width: 0.8; stroke-linejoin: miter; stroke-linecap: square"/>
   </g>
   <g id="text_26">
    <!-- (d) -->
    <g transform="translate(72.696296 240.097611) scale(0.1 -0.1)">
     <defs>
      <path id="Helvetica-64" d="M 769 1634 
Q 769 1097 997 734 
Q 1225 372 1728 372 
Q 2119 372 2370 708 
Q 2622 1044 2622 1672 
Q 2622 2306 2362 2611 
Q 2103 2916 1722 2916 
Q 1297 2916 1033 2591 
Q 769 2266 769 1634 
z
M 1616 3406 
Q 2000 3406 2259 3244 
Q 2409 3150 2600 2916 
L 2600 4606 
L 3141 4606 
L 3141 0 
L 2634 0 
L 2634 466 
Q 2438 156 2169 18 
Q 1900 -119 1553 -119 
Q 994 -119 584 351 
Q 175 822 175 1603 
Q 175 2334 548 2870 
Q 922 3406 1616 3406 
z
" transform="scale(0.015625)"/>
     </defs>
     <use xlink:href="#Helvetica-28"/>
     <use xlink:href="#Helvetica-64" x="33.300781"/>
     <use xlink:href="#Helvetica-29" x="88.916016"/>
    </g>
   </g>
   <g id="legend_1">
    <g id="patch_22">
     <path d="M 246.177778 290.055524 
L 324.077778 290.055524 
Q 326.077778 290.055524 326.077778 288.055524 
L 326.077778 245.914899 
Q 326.077778 243.914899 324.077778 243.914899 
L 246.177778 243.914899 
Q 244.177778 243.914899 244.177778 245.914899 
L 244.177778 288.055524 
Q 244.177778 290.055524 246.177778 290.055524 
z
" style="fill: #ffffff; opacity: 0.8; stroke: #cccccc; stroke-linejoin: miter"/>
    </g>
    <g id="line2d_45">
     <path d="M 248.177778 251.714899 
L 258.177778 251.714899 
L 268.177778 251.714899 
" style="fill: none; stroke: #1f77b4; stroke-width: 1.5; stroke-linecap: square"/>
    </g>
    <g id="text_27">
     <!-- (cx$_{\rm{off}}$,iz$_{\rm{off}}$) -->
     <g transform="translate(276.177778 255.214899) scale(0.1 -0.1)">
      <defs>
       <path id="Helvetica-78" d="M 94 3347 
L 822 3347 
L 1591 2169 
L 2369 3347 
L 3053 3331 
L 1925 1716 
L 3103 0 
L 2384 0 
L 1553 1256 
L 747 0 
L 34 0 
L 1213 1716 
L 94 3347 
z
" transform="scale(0.015625)"/>
       <path id="DejaVuSans-6f" d="M 1959 3097 
Q 1497 3097 1228 2736 
Q 959 2375 959 1747 
Q 959 1119 1226 758 
Q 1494 397 1959 397 
Q 2419 397 2687 759 
Q 2956 1122 2956 1747 
Q 2956 2369 2687 2733 
Q 2419 3097 1959 3097 
z
M 1959 3584 
Q 2709 3584 3137 3096 
Q 3566 2609 3566 1747 
Q 3566 888 3137 398 
Q 2709 -91 1959 -91 
Q 1206 -91 779 398 
Q 353 888 353 1747 
Q 353 2609 779 3096 
Q 1206 3584 1959 3584 
z
" transform="scale(0.015625)"/>
       <path id="DejaVuSans-66" d="M 2375 4863 
L 2375 4384 
L 1825 4384 
Q 1516 4384 1395 4259 
Q 1275 4134 1275 3809 
L 1275 3500 
L 2222 3500 
L 2222 3053 
L 1275 3053 
L 1275 0 
L 697 0 
L 697 3053 
L 147 3053 
L 147 3500 
L 697 3500 
L 697 3744 
Q 697 4328 969 4595 
Q 1241 4863 1831 4863 
L 2375 4863 
z
" transform="scale(0.015625)"/>
       <path id="Helvetica-2c" d="M 531 -653 
Q 747 -616 834 -350 
Q 881 -209 881 -78 
Q 881 -56 879 -39 
Q 878 -22 872 0 
L 531 0 
L 531 681 
L 1200 681 
L 1200 50 
Q 1200 -322 1050 -603 
Q 900 -884 531 -950 
L 531 -653 
z
" transform="scale(0.015625)"/>
       <path id="Helvetica-69" d="M 413 3331 
L 984 3331 
L 984 0 
L 413 0 
L 413 3331 
z
M 413 4591 
L 984 4591 
L 984 3953 
L 413 3953 
L 413 4591 
z
" transform="scale(0.015625)"/>
       <path id="Helvetica-7a" d="M 163 444 
L 2147 2844 
L 309 2844 
L 309 3347 
L 2903 3347 
L 2903 2888 
L 931 503 
L 2963 503 
L 2963 0 
L 163 0 
L 163 444 
z
M 1609 3428 
L 1609 3428 
z
" transform="scale(0.015625)"/>
      </defs>
      <use xlink:href="#Helvetica-28" transform="translate(0 0.09375)"/>
      <use xlink:href="#Helvetica-63" transform="translate(33.300781 0.09375)"/>
      <use xlink:href="#Helvetica-78" transform="translate(83.300781 0.09375)"/>
      <use xlink:href="#DejaVuSans-6f" transform="translate(134.257812 -16.3125) scale(0.7)"/>
      <use xlink:href="#DejaVuSans-66" transform="translate(177.084961 -16.3125) scale(0.7)"/>
      <use xlink:href="#DejaVuSans-66" transform="translate(201.728516 -16.3125) scale(0.7)"/>
      <use xlink:href="#Helvetica-2c" transform="translate(229.106445 0.09375)"/>
      <use xlink:href="#Helvetica-69" transform="translate(256.889648 0.09375)"/>
      <use xlink:href="#Helvetica-7a" transform="translate(279.106445 0.09375)"/>
      <use xlink:href="#DejaVuSans-6f" transform="translate(330.063477 -16.3125) scale(0.7)"/>
      <use xlink:href="#DejaVuSans-66" transform="translate(372.890625 -16.3125) scale(0.7)"/>
      <use xlink:href="#DejaVuSans-66" transform="translate(397.53418 -16.3125) scale(0.7)"/>
      <use xlink:href="#Helvetica-29" transform="translate(424.912109 0.09375)"/>
     </g>
    </g>
    <g id="line2d_46">
     <path d="M 248.177778 266.114899 
L 258.177778 266.114899 
L 268.177778 266.114899 
" style="fill: none; stroke-dasharray: 5.55,2.4; stroke-dashoffset: 0; stroke: #2ca02c; stroke-width: 1.5"/>
    </g>
    <g id="text_28">
     <!-- (cx$_{\rm{on}}$,iz$_{\rm{off}}$) -->
     <g transform="translate(276.177778 269.614899) scale(0.1 -0.1)">
      <defs>
       <path id="DejaVuSans-6e" d="M 3513 2113 
L 3513 0 
L 2938 0 
L 2938 2094 
Q 2938 2591 2744 2837 
Q 2550 3084 2163 3084 
Q 1697 3084 1428 2787 
Q 1159 2491 1159 1978 
L 1159 0 
L 581 0 
L 581 3500 
L 1159 3500 
L 1159 2956 
Q 1366 3272 1645 3428 
Q 1925 3584 2291 3584 
Q 2894 3584 3203 3211 
Q 3513 2838 3513 2113 
z
" transform="scale(0.015625)"/>
      </defs>
      <use xlink:href="#Helvetica-28" transform="translate(0 0.09375)"/>
      <use xlink:href="#Helvetica-63" transform="translate(33.300781 0.09375)"/>
      <use xlink:href="#Helvetica-78" transform="translate(83.300781 0.09375)"/>
      <use xlink:href="#DejaVuSans-6f" transform="translate(134.257812 -16.3125) scale(0.7)"/>
      <use xlink:href="#DejaVuSans-6e" transform="translate(177.084961 -16.3125) scale(0.7)"/>
      <use xlink:href="#Helvetica-2c" transform="translate(224.18457 0.09375)"/>
      <use xlink:href="#Helvetica-69" transform="translate(251.967773 0.09375)"/>
      <use xlink:href="#Helvetica-7a" transform="translate(274.18457 0.09375)"/>
      <use xlink:href="#DejaVuSans-6f" transform="translate(325.141602 -16.3125) scale(0.7)"/>
      <use xlink:href="#DejaVuSans-66" transform="translate(367.96875 -16.3125) scale(0.7)"/>
      <use xlink:href="#DejaVuSans-66" transform="translate(392.612305 -16.3125) scale(0.7)"/>
      <use xlink:href="#Helvetica-29" transform="translate(419.990234 0.09375)"/>
     </g>
    </g>
    <g id="line2d_47">
     <path d="M 248.177778 280.411774 
L 258.177778 280.411774 
L 268.177778 280.411774 
" style="fill: none; stroke: #000000; stroke-width: 1.5; stroke-linecap: square"/>
    </g>
    <g id="text_29">
     <!-- steady -->
     <g transform="translate(276.177778 283.911774) scale(0.1 -0.1)">
      <defs>
       <path id="Helvetica-74" d="M 525 4281 
L 1094 4281 
L 1094 3347 
L 1628 3347 
L 1628 2888 
L 1094 2888 
L 1094 703 
Q 1094 528 1213 469 
Q 1278 434 1431 434 
Q 1472 434 1519 436 
Q 1566 438 1628 444 
L 1628 0 
Q 1531 -28 1426 -40 
Q 1322 -53 1200 -53 
Q 806 -53 665 148 
Q 525 350 525 672 
L 525 2888 
L 72 2888 
L 72 3347 
L 525 3347 
L 525 4281 
z
" transform="scale(0.015625)"/>
       <path id="Helvetica-65" d="M 1806 3422 
Q 2163 3422 2497 3255 
Q 2831 3088 3006 2822 
Q 3175 2569 3231 2231 
Q 3281 2000 3281 1494 
L 828 1494 
Q 844 984 1069 676 
Q 1294 369 1766 369 
Q 2206 369 2469 659 
Q 2619 828 2681 1050 
L 3234 1050 
Q 3213 866 3089 639 
Q 2966 413 2813 269 
Q 2556 19 2178 -69 
Q 1975 -119 1719 -119 
Q 1094 -119 659 336 
Q 225 791 225 1609 
Q 225 2416 662 2919 
Q 1100 3422 1806 3422 
z
M 2703 1941 
Q 2669 2306 2544 2525 
Q 2313 2931 1772 2931 
Q 1384 2931 1121 2651 
Q 859 2372 844 1941 
L 2703 1941 
z
M 1753 3428 
L 1753 3428 
z
" transform="scale(0.015625)"/>
       <path id="Helvetica-79" d="M 2503 3347 
L 3125 3347 
Q 3006 3025 2597 1878 
Q 2291 1016 2084 472 
Q 1597 -809 1397 -1090 
Q 1197 -1372 709 -1372 
Q 591 -1372 527 -1362 
Q 463 -1353 369 -1328 
L 369 -816 
Q 516 -856 581 -865 
Q 647 -875 697 -875 
Q 853 -875 926 -823 
Q 1000 -772 1050 -697 
Q 1066 -672 1162 -440 
Q 1259 -209 1303 -97 
L 66 3347 
L 703 3347 
L 1600 622 
L 2503 3347 
z
M 1597 3428 
L 1597 3428 
z
" transform="scale(0.015625)"/>
      </defs>
      <use xlink:href="#Helvetica-73"/>
      <use xlink:href="#Helvetica-74" x="50"/>
      <use xlink:href="#Helvetica-65" x="77.783203"/>
      <use xlink:href="#Helvetica-61" x="133.398438"/>
      <use xlink:href="#Helvetica-64" x="189.013672"/>
      <use xlink:href="#Helvetica-79" x="244.628906"/>
     </g>
    </g>
   </g>
  </g>
  <g id="axes_5">
   <g id="patch_23">
    <path d="M 229.854815 75.223872 
L 363.04 75.223872 
L 363.04 17.373437 
L 229.854815 17.373437 
z
" style="fill: #ffffff"/>
   </g>
   <g id="matplotlib.axis_9">
    <g id="xtick_21">
     <g id="line2d_48">
      <g>
       <use xlink:href="#m763f000d59" x="229.854815" y="75.223872" style="stroke: #000000; stroke-width: 0.8"/>
      </g>
     </g>
    </g>
    <g id="xtick_22">
     <g id="line2d_49">
      <g>
       <use xlink:href="#m763f000d59" x="263.151111" y="75.223872" style="stroke: #000000; stroke-width: 0.8"/>
      </g>
     </g>
    </g>
    <g id="xtick_23">
     <g id="line2d_50">
      <g>
       <use xlink:href="#m763f000d59" x="296.447407" y="75.223872" style="stroke: #000000; stroke-width: 0.8"/>
      </g>
     </g>
    </g>
    <g id="xtick_24">
     <g id="line2d_51">
      <g>
       <use xlink:href="#m763f000d59" x="329.743704" y="75.223872" style="stroke: #000000; stroke-width: 0.8"/>
      </g>
     </g>
    </g>
    <g id="xtick_25">
     <g id="line2d_52">
      <g>
       <use xlink:href="#m763f000d59" x="363.04" y="75.223872" style="stroke: #000000; stroke-width: 0.8"/>
      </g>
     </g>
    </g>
   </g>
   <g id="matplotlib.axis_10">
    <g id="ytick_13">
     <g id="line2d_53">
      <g>
       <use xlink:href="#m5e45c44e2c" x="229.854815" y="62.903904" style="stroke: #000000; stroke-width: 0.8"/>
      </g>
     </g>
     <g id="text_30">
      <!-- −2.5 -->
      <g transform="translate(206.61419 66.490623) scale(0.1 -0.1)">
       <defs>
        <path id="Helvetica-2212" d="M 3547 1894 
L 3547 1369 
L 288 1369 
L 288 1894 
L 3547 1894 
z
" transform="scale(0.015625)"/>
       </defs>
       <use xlink:href="#Helvetica-2212"/>
       <use xlink:href="#Helvetica-32" x="58.398438"/>
       <use xlink:href="#Helvetica-2e" x="114.013672"/>
       <use xlink:href="#Helvetica-35" x="141.796875"/>
      </g>
     </g>
    </g>
    <g id="ytick_14">
     <g id="line2d_54">
      <g>
       <use xlink:href="#m5e45c44e2c" x="229.854815" y="46.321539" style="stroke: #000000; stroke-width: 0.8"/>
      </g>
     </g>
     <g id="text_31">
      <!-- 0.0 -->
      <g transform="translate(212.454815 49.908257) scale(0.1 -0.1)">
       <use xlink:href="#Helvetica-30"/>
       <use xlink:href="#Helvetica-2e" x="55.615234"/>
       <use xlink:href="#Helvetica-30" x="83.398438"/>
      </g>
     </g>
    </g>
    <g id="ytick_15">
     <g id="line2d_55">
      <g>
       <use xlink:href="#m5e45c44e2c" x="229.854815" y="29.739173" style="stroke: #000000; stroke-width: 0.8"/>
      </g>
     </g>
     <g id="text_32">
      <!-- 2.5 -->
      <g transform="translate(212.454815 33.325892) scale(0.1 -0.1)">
       <use xlink:href="#Helvetica-32"/>
       <use xlink:href="#Helvetica-2e" x="55.615234"/>
       <use xlink:href="#Helvetica-35" x="83.398438"/>
      </g>
     </g>
    </g>
    <g id="text_33">
     <!-- $\nabla n$ -->
     <g transform="translate(200.529815 52.848655) rotate(-90) scale(0.1 -0.1)">
      <defs>
       <path id="DejaVuSans-2207" d="M 2138 659 
L 3444 4047 
L 831 4047 
L 2138 659 
z
M 1791 0 
L -19 4603 
L 4300 4603 
L 2491 0 
L 1791 0 
z
" transform="scale(0.015625)"/>
      </defs>
      <use xlink:href="#DejaVuSans-2207" transform="translate(0 0.078125)"/>
      <use xlink:href="#DejaVuSans-Oblique-6e" transform="translate(66.894531 0.078125)"/>
     </g>
    </g>
    <g id="text_34">
     <!-- 1e18 -->
     <g transform="translate(229.854815 14.373437) scale(0.1 -0.1)">
      <use xlink:href="#Helvetica-31"/>
      <use xlink:href="#Helvetica-65" x="55.615234"/>
      <use xlink:href="#Helvetica-31" x="111.230469"/>
      <use xlink:href="#Helvetica-38" x="166.845703"/>
     </g>
    </g>
   </g>
   <g id="line2d_56">
    <path d="M 229.022407 58.57458 
L 230.687222 58.879696 
L 232.352037 59.19874 
L 234.016852 59.556256 
L 235.681667 59.874638 
L 237.346481 60.198325 
L 239.011296 60.570102 
L 240.676111 60.91402 
L 242.340926 61.247989 
L 244.005741 61.635022 
L 245.670556 61.982588 
L 247.33537 62.37758 
L 249.000185 62.731448 
L 250.665 63.103224 
L 252.329815 63.507834 
L 253.99463 63.876957 
L 255.659444 64.272281 
L 257.324259 64.655665 
L 258.989074 65.060275 
L 260.653889 65.424755 
L 262.318704 65.83036 
L 263.983519 66.235633 
L 265.648333 66.612384 
L 267.313148 67.00207 
L 268.977963 67.385454 
L 270.642778 67.772487 
L 272.307593 68.131992 
L 273.972407 68.506754 
L 275.637222 68.872229 
L 277.302037 69.225102 
L 278.966852 69.55078 
L 280.631667 69.891381 
L 282.296481 70.204125 
L 283.961296 70.508245 
L 285.626111 70.783181 
L 287.290926 71.06077 
L 288.955741 71.32244 
L 290.620556 71.553598 
L 292.28537 71.752586 
L 293.950185 71.949585 
L 295.615 72.125689 
L 297.279815 72.261996 
L 298.94463 72.37542 
L 300.609444 72.479557 
L 302.274259 72.546218 
L 303.939074 72.525656 
L 305.603889 72.573413 
L 307.268704 72.594307 
L 308.933519 72.479225 
L 310.598333 72.429478 
L 312.263148 72.356848 
L 313.927963 72.182733 
L 315.592778 71.977443 
L 317.257593 71.710467 
L 318.922407 71.485278 
L 320.587222 71.224935 
L 322.252037 70.933749 
L 323.916852 70.544395 
L 325.581667 70.087053 
L 327.246481 69.707649 
L 328.911296 69.213163 
L 330.576111 68.689492 
L 332.240926 68.13962 
L 333.905741 67.530053 
L 335.570556 66.88135 
L 337.23537 66.156369 
L 338.900185 65.417459 
L 340.565 64.640741 
L 342.229815 63.793714 
L 343.89463 62.868086 
L 345.559444 61.931846 
L 347.224259 60.922643 
L 348.889074 59.864688 
L 350.553889 58.773237 
L 352.218704 57.615788 
L 353.883519 56.427495 
L 355.548333 55.188461 
L 357.213148 54.023716 
L 358.877963 52.926626 
L 360.542778 51.968829 
L 362.207593 51.346659 
L 363.872407 51.049171 
" clip-path="url(#paf3e30c093)" style="fill: none; stroke: #1f77b4; stroke-width: 1.5; stroke-linecap: square"/>
   </g>
   <g id="line2d_57">
    <path d="M 229.022407 54.992458 
L 230.687222 55.209355 
L 232.352037 55.439186 
L 234.016852 55.702514 
L 235.681667 55.934004 
L 237.346481 56.175112 
L 239.011296 56.446731 
L 240.676111 56.703758 
L 242.340926 56.950835 
L 244.005741 57.240031 
L 245.670556 57.499048 
L 247.33537 57.796204 
L 249.000185 58.062517 
L 250.665 58.34508 
L 252.329815 58.650527 
L 253.99463 58.933423 
L 255.659444 59.23489 
L 257.324259 59.530719 
L 258.989074 59.841805 
L 260.653889 60.127021 
L 262.318704 60.442086 
L 263.983519 60.759141 
L 265.648333 61.056629 
L 267.313148 61.366719 
L 268.977963 61.672498 
L 270.642778 61.983583 
L 272.307593 62.275764 
L 273.972407 62.581875 
L 275.637222 62.882347 
L 277.302037 63.176187 
L 278.966852 63.451454 
L 280.631667 63.74065 
L 282.296481 64.010611 
L 283.961296 64.276261 
L 285.626111 64.523006 
L 287.290926 64.7734 
L 288.955741 65.014176 
L 290.620556 65.234058 
L 292.28537 65.432052 
L 293.950185 65.630377 
L 295.615 65.814773 
L 297.279815 65.97131 
L 298.94463 66.111929 
L 300.609444 66.246909 
L 302.274259 66.355358 
L 303.939074 66.397145 
L 305.603889 66.492328 
L 307.268704 66.568939 
L 308.933519 66.539422 
L 310.598333 66.561311 
L 312.263148 66.566285 
L 313.927963 66.490007 
L 315.592778 66.389517 
L 317.257593 66.237955 
L 318.922407 66.118562 
L 320.587222 65.968989 
L 322.252037 65.792552 
L 323.916852 65.535526 
L 325.581667 65.219797 
L 327.246481 64.966087 
L 328.911296 64.61222 
L 330.576111 64.233147 
L 332.240926 63.827542 
L 333.905741 63.368874 
L 335.570556 62.875051 
L 337.23537 62.311914 
L 338.900185 61.736506 
L 340.565 61.125611 
L 342.229815 60.454689 
L 343.89463 59.715115 
L 345.559444 58.968577 
L 347.224259 58.159026 
L 348.889074 57.311999 
L 350.553889 56.441756 
L 352.218704 55.521767 
L 353.883519 54.591496 
L 355.548333 53.637015 
L 357.213148 52.780038 
L 358.877963 52.016586 
L 360.542778 51.419953 
L 362.207593 51.162594 
L 363.872407 51.222954 
" clip-path="url(#paf3e30c093)" style="fill: none; stroke-dasharray: 5.55,2.4; stroke-dashoffset: 0; stroke: #2ca02c; stroke-width: 1.5"/>
   </g>
   <g id="line2d_58">
    <path d="M 229.022407 60.552525 
L 230.687222 60.859962 
L 232.352037 61.185308 
L 234.016852 61.528894 
L 235.681667 61.844623 
L 237.346481 62.143105 
L 239.011296 62.510902 
L 240.676111 62.824641 
L 242.340926 63.140369 
L 244.005741 63.494568 
L 245.670556 63.813281 
L 247.33537 64.16748 
L 249.000185 64.482214 
L 250.665 64.800264 
L 252.329815 65.159769 
L 253.99463 65.461568 
L 255.659444 65.799517 
L 257.324259 66.103637 
L 258.989074 66.437275 
L 260.653889 66.708231 
L 262.318704 67.029597 
L 263.983519 67.328743 
L 265.648333 67.60202 
L 267.313148 67.872644 
L 268.977963 68.135641 
L 270.642778 68.388356 
L 272.307593 68.609233 
L 273.972407 68.834753 
L 275.637222 69.043359 
L 277.302037 69.230408 
L 278.966852 69.380976 
L 280.631667 69.541494 
L 282.296481 69.660555 
L 283.961296 69.768672 
L 285.626111 69.83467 
L 287.290926 69.901663 
L 288.955741 69.938144 
L 290.620556 69.944113 
L 292.28537 69.907632 
L 293.950185 69.867835 
L 295.615 69.795535 
L 297.279815 69.685428 
L 298.94463 69.545805 
L 300.609444 69.394574 
L 302.274259 69.20255 
L 303.939074 68.929604 
L 305.603889 68.719008 
L 307.268704 68.471931 
L 308.933519 68.108446 
L 310.598333 67.807641 
L 312.263148 67.474004 
L 313.927963 67.060108 
L 315.592778 66.626314 
L 317.257593 66.138792 
L 318.922407 65.702344 
L 320.587222 65.222782 
L 322.252037 64.739904 
L 323.916852 64.171129 
L 325.581667 63.575822 
L 327.246481 63.050824 
L 328.911296 62.429251 
L 330.576111 61.825918 
L 332.240926 61.196451 
L 333.905741 60.553553 
L 335.570556 59.891419 
L 337.23537 59.198774 
L 338.900185 58.520986 
L 340.565 57.83368 
L 342.229815 57.120174 
L 343.89463 56.380402 
L 345.559444 55.666564 
L 347.224259 54.91588 
L 348.889074 54.175279 
L 350.553889 53.42821 
L 352.218704 52.670296 
L 353.883519 51.920309 
L 355.548333 51.173506 
L 357.213148 50.540988 
L 358.877963 50.014697 
L 360.542778 49.714788 
L 362.207593 49.766028 
L 363.872407 50.110775 
" clip-path="url(#paf3e30c093)" style="fill: none; stroke: #000000; stroke-width: 1.5; stroke-linecap: square"/>
   </g>
   <g id="LineCollection_5">
    <path d="M 363.04 46.321539 
L 363.04 46.321539 
" clip-path="url(#paf3e30c093)" style="fill: none; stroke-dasharray: 3.2,0.8,0.5,0.8; stroke-dashoffset: 0; stroke: #000000; stroke-width: 0.5"/>
   </g>
   <g id="patch_24">
    <path d="M 229.854815 75.223872 
L 229.854815 17.373437 
" style="fill: none; stroke: #000000; stroke-width: 0.8; stroke-linejoin: miter; stroke-linecap: square"/>
   </g>
   <g id="patch_25">
    <path d="M 363.04 75.223872 
L 363.04 17.373437 
" style="fill: none; stroke: #000000; stroke-width: 0.8; stroke-linejoin: miter; stroke-linecap: square"/>
   </g>
   <g id="patch_26">
    <path d="M 229.854815 75.223872 
L 363.04 75.223872 
" style="fill: none; stroke: #000000; stroke-width: 0.8; stroke-linejoin: miter; stroke-linecap: square"/>
   </g>
   <g id="patch_27">
    <path d="M 229.854815 17.373437 
L 363.04 17.373437 
" style="fill: none; stroke: #000000; stroke-width: 0.8; stroke-linejoin: miter; stroke-linecap: square"/>
   </g>
   <g id="text_35">
    <!-- (e) -->
    <g transform="translate(263.151111 46.321539) scale(0.1 -0.1)">
     <use xlink:href="#Helvetica-28"/>
     <use xlink:href="#Helvetica-65" x="33.300781"/>
     <use xlink:href="#Helvetica-29" x="88.916016"/>
    </g>
   </g>
  </g>
  <g id="axes_6">
   <g id="patch_28">
    <path d="M 229.854815 144.644394 
L 363.04 144.644394 
L 363.04 86.793959 
L 229.854815 86.793959 
z
" style="fill: #ffffff"/>
   </g>
   <g id="matplotlib.axis_11">
    <g id="xtick_26">
     <g id="line2d_59">
      <g>
       <use xlink:href="#m763f000d59" x="229.854815" y="144.644394" style="stroke: #000000; stroke-width: 0.8"/>
      </g>
     </g>
    </g>
    <g id="xtick_27">
     <g id="line2d_60">
      <g>
       <use xlink:href="#m763f000d59" x="263.151111" y="144.644394" style="stroke: #000000; stroke-width: 0.8"/>
      </g>
     </g>
    </g>
    <g id="xtick_28">
     <g id="line2d_61">
      <g>
       <use xlink:href="#m763f000d59" x="296.447407" y="144.644394" style="stroke: #000000; stroke-width: 0.8"/>
      </g>
     </g>
    </g>
    <g id="xtick_29">
     <g id="line2d_62">
      <g>
       <use xlink:href="#m763f000d59" x="329.743704" y="144.644394" style="stroke: #000000; stroke-width: 0.8"/>
      </g>
     </g>
    </g>
    <g id="xtick_30">
     <g id="line2d_63">
      <g>
       <use xlink:href="#m763f000d59" x="363.04" y="144.644394" style="stroke: #000000; stroke-width: 0.8"/>
      </g>
     </g>
    </g>
   </g>
   <g id="matplotlib.axis_12">
    <g id="ytick_16">
     <g id="line2d_64">
      <g>
       <use xlink:href="#m5e45c44e2c" x="229.854815" y="144.644394" style="stroke: #000000; stroke-width: 0.8"/>
      </g>
     </g>
     <g id="text_36">
      <!-- −0.5 -->
      <g transform="translate(206.61419 148.231113) scale(0.1 -0.1)">
       <use xlink:href="#Helvetica-2212"/>
       <use xlink:href="#Helvetica-30" x="58.398438"/>
       <use xlink:href="#Helvetica-2e" x="114.013672"/>
       <use xlink:href="#Helvetica-35" x="141.796875"/>
      </g>
     </g>
    </g>
    <g id="ytick_17">
     <g id="line2d_65">
      <g>
       <use xlink:href="#m5e45c44e2c" x="229.854815" y="115.719177" style="stroke: #000000; stroke-width: 0.8"/>
      </g>
     </g>
     <g id="text_37">
      <!-- 0.0 -->
      <g transform="translate(212.454815 119.305895) scale(0.1 -0.1)">
       <use xlink:href="#Helvetica-30"/>
       <use xlink:href="#Helvetica-2e" x="55.615234"/>
       <use xlink:href="#Helvetica-30" x="83.398438"/>
      </g>
     </g>
    </g>
    <g id="ytick_18">
     <g id="line2d_66">
      <g>
       <use xlink:href="#m5e45c44e2c" x="229.854815" y="86.793959" style="stroke: #000000; stroke-width: 0.8"/>
      </g>
     </g>
     <g id="text_38">
      <!-- 0.5 -->
      <g transform="translate(212.454815 90.380678) scale(0.1 -0.1)">
       <use xlink:href="#Helvetica-30"/>
       <use xlink:href="#Helvetica-2e" x="55.615234"/>
       <use xlink:href="#Helvetica-35" x="83.398438"/>
      </g>
     </g>
    </g>
    <g id="text_39">
     <!-- $\nabla T_{\rm{i}\parallel}$ -->
     <g transform="translate(199.41419 126.369177) rotate(-90) scale(0.1 -0.1)">
      <use xlink:href="#DejaVuSans-2207" transform="translate(0 0.09375)"/>
      <use xlink:href="#DejaVuSans-Oblique-54" transform="translate(66.894531 0.09375)"/>
      <use xlink:href="#DejaVuSans-69" transform="translate(127.978516 -16.3125) scale(0.7)"/>
      <use xlink:href="#DejaVuSans-2225" transform="translate(161.064453 -16.3125) scale(0.7)"/>
     </g>
    </g>
   </g>
   <g id="line2d_67">
    <path d="M 229.022407 123.471135 
L 230.687222 123.586836 
L 232.352037 123.760387 
L 234.016852 123.962864 
L 235.681667 124.136415 
L 237.346481 124.309966 
L 239.011296 124.483518 
L 240.676111 124.685994 
L 242.340926 124.888471 
L 244.005741 125.090947 
L 245.670556 125.293424 
L 247.33537 125.524825 
L 249.000185 125.756227 
L 250.665 125.987629 
L 252.329815 126.219031 
L 253.99463 126.479358 
L 255.659444 126.739684 
L 257.324259 127.000011 
L 258.989074 127.318189 
L 260.653889 127.578516 
L 262.318704 127.867768 
L 263.983519 128.214871 
L 265.648333 128.533048 
L 267.313148 128.851225 
L 268.977963 129.227253 
L 270.642778 129.603281 
L 272.307593 129.950384 
L 273.972407 130.355337 
L 275.637222 130.789215 
L 277.302037 131.223093 
L 278.966852 131.656971 
L 280.631667 132.119775 
L 282.296481 132.582578 
L 283.961296 133.074307 
L 285.626111 133.594961 
L 287.290926 134.08669 
L 288.955741 134.607344 
L 290.620556 135.127997 
L 292.28537 135.648651 
L 293.950185 136.169305 
L 295.615 136.689959 
L 297.279815 137.152763 
L 298.94463 137.586641 
L 300.609444 137.962669 
L 302.274259 138.280846 
L 303.939074 138.541173 
L 305.603889 138.685799 
L 307.268704 138.685799 
L 308.933519 138.512248 
L 310.598333 138.222996 
L 312.263148 137.731267 
L 313.927963 137.037062 
L 315.592778 136.169305 
L 317.257593 135.099072 
L 318.922407 133.855288 
L 320.587222 132.466878 
L 322.252037 130.933841 
L 323.916852 129.314029 
L 325.581667 127.665291 
L 327.246481 125.987629 
L 328.911296 124.338891 
L 330.576111 122.748004 
L 332.240926 121.272818 
L 333.905741 119.884408 
L 335.570556 118.582773 
L 337.23537 117.45469 
L 338.900185 116.413382 
L 340.565 115.429924 
L 342.229815 114.417542 
L 343.89463 113.144832 
L 345.559444 111.582871 
L 347.224259 109.615956 
L 348.889074 107.012686 
L 350.553889 103.48381 
L 352.218704 98.21942 
L 353.883519 89.194752 
L 355.548333 71.984248 
L 357.213148 37.476464 
L 358.167282 -1 
" clip-path="url(#pd460f07cc7)" style="fill: none; stroke: #1f77b4; stroke-width: 1.5; stroke-linecap: square"/>
   </g>
   <g id="line2d_68">
    <path d="M 229.022407 124.425667 
L 230.687222 124.570293 
L 232.352037 124.743844 
L 234.016852 124.946321 
L 235.681667 125.119872 
L 237.346481 125.322349 
L 239.011296 125.524825 
L 240.676111 125.727302 
L 242.340926 125.958704 
L 244.005741 126.190105 
L 245.670556 126.392582 
L 247.33537 126.623984 
L 249.000185 126.855385 
L 250.665 127.086787 
L 252.329815 127.347114 
L 253.99463 127.607441 
L 255.659444 127.867768 
L 257.324259 128.128095 
L 258.989074 128.417347 
L 260.653889 128.706599 
L 262.318704 128.995851 
L 263.983519 129.285104 
L 265.648333 129.603281 
L 267.313148 129.921458 
L 268.977963 130.239636 
L 270.642778 130.586738 
L 272.307593 130.933841 
L 273.972407 131.280944 
L 275.637222 131.628046 
L 277.302037 132.004074 
L 278.966852 132.351177 
L 280.631667 132.727204 
L 282.296481 133.132157 
L 283.961296 133.47926 
L 285.626111 133.855288 
L 287.290926 134.202391 
L 288.955741 134.549493 
L 290.620556 134.925521 
L 292.28537 135.214773 
L 293.950185 135.504025 
L 295.615 135.764352 
L 297.279815 135.966829 
L 298.94463 136.111455 
L 300.609444 136.198231 
L 302.274259 136.227156 
L 303.939074 136.14038 
L 305.603889 135.966829 
L 307.268704 135.677577 
L 308.933519 135.272624 
L 310.598333 134.723044 
L 312.263148 134.057764 
L 313.927963 133.247858 
L 315.592778 132.322251 
L 317.257593 131.252018 
L 318.922407 130.066084 
L 320.587222 128.8223 
L 322.252037 127.462815 
L 323.916852 126.045479 
L 325.581667 124.599218 
L 327.246481 123.181883 
L 328.911296 121.793472 
L 330.576111 120.405062 
L 332.240926 119.074502 
L 333.905741 117.830717 
L 335.570556 116.673709 
L 337.23537 115.545625 
L 338.900185 114.359691 
L 340.565 113.000206 
L 342.229815 111.322544 
L 343.89463 109.268853 
L 345.559444 106.723434 
L 347.224259 103.48381 
L 348.889074 99.289653 
L 350.553889 93.591385 
L 352.218704 85.260923 
L 353.883519 72.071024 
L 355.548333 49.59613 
L 357.213148 9.766105 
L 357.4708 -1 
" clip-path="url(#pd460f07cc7)" style="fill: none; stroke-dasharray: 5.55,2.4; stroke-dashoffset: 0; stroke: #2ca02c; stroke-width: 1.5"/>
   </g>
   <g id="line2d_69">
    <path d="M 229.022407 118.380297 
L 230.687222 118.409222 
L 232.352037 118.467072 
L 234.016852 118.495997 
L 235.681667 118.524923 
L 237.346481 118.553848 
L 239.011296 118.611698 
L 240.676111 118.669549 
L 242.340926 118.698474 
L 244.005741 118.727399 
L 245.670556 118.78525 
L 247.33537 118.8431 
L 249.000185 118.872025 
L 250.665 118.958801 
L 252.329815 119.016651 
L 253.99463 119.045577 
L 255.659444 119.103427 
L 257.324259 119.161278 
L 258.989074 119.248053 
L 260.653889 119.305904 
L 262.318704 119.363754 
L 263.983519 119.45053 
L 265.648333 119.537305 
L 267.313148 119.624081 
L 268.977963 119.681931 
L 270.642778 119.768707 
L 272.307593 119.855483 
L 273.972407 119.942258 
L 275.637222 120.057959 
L 277.302037 120.17366 
L 278.966852 120.260436 
L 280.631667 120.376137 
L 282.296481 120.491837 
L 283.961296 120.607538 
L 285.626111 120.723239 
L 287.290926 120.83894 
L 288.955741 121.012491 
L 290.620556 121.128192 
L 292.28537 121.243893 
L 293.950185 121.417444 
L 295.615 121.533145 
L 297.279815 121.648846 
L 298.94463 121.793472 
L 300.609444 121.909173 
L 302.274259 122.024874 
L 303.939074 122.11165 
L 305.603889 122.1695 
L 307.268704 122.198425 
L 308.933519 122.198425 
L 310.598333 122.1695 
L 312.263148 122.082724 
L 313.927963 121.938098 
L 315.592778 121.735622 
L 317.257593 121.475295 
L 318.922407 121.128192 
L 320.587222 120.752164 
L 322.252037 120.347211 
L 323.916852 119.884408 
L 325.581667 119.392679 
L 327.246481 118.900951 
L 328.911296 118.409222 
L 330.576111 117.946418 
L 332.240926 117.483615 
L 333.905741 117.049737 
L 335.570556 116.673709 
L 337.23537 116.297681 
L 338.900185 116.008429 
L 340.565 115.748102 
L 342.229815 115.429924 
L 343.89463 115.111747 
L 345.559444 114.706794 
L 347.224259 114.157215 
L 348.889074 113.376234 
L 350.553889 111.901048 
L 352.218704 107.938293 
L 353.883519 95.442599 
L 355.548333 58.331545 
L 356.569834 -1 
" clip-path="url(#pd460f07cc7)" style="fill: none; stroke: #000000; stroke-width: 1.5; stroke-linecap: square"/>
   </g>
   <g id="LineCollection_6">
    <path d="M 363.04 115.719177 
L 363.04 -1 
" clip-path="url(#pd460f07cc7)" style="fill: none; stroke-dasharray: 3.2,0.8,0.5,0.8; stroke-dashoffset: 0; stroke: #000000; stroke-width: 0.5"/>
   </g>
   <g id="patch_29">
    <path d="M 229.854815 144.644394 
L 229.854815 86.793959 
" style="fill: none; stroke: #000000; stroke-width: 0.8; stroke-linejoin: miter; stroke-linecap: square"/>
   </g>
   <g id="patch_30">
    <path d="M 363.04 144.644394 
L 363.04 86.793959 
" style="fill: none; stroke: #000000; stroke-width: 0.8; stroke-linejoin: miter; stroke-linecap: square"/>
   </g>
   <g id="patch_31">
    <path d="M 229.854815 144.644394 
L 363.04 144.644394 
" style="fill: none; stroke: #000000; stroke-width: 0.8; stroke-linejoin: miter; stroke-linecap: square"/>
   </g>
   <g id="patch_32">
    <path d="M 229.854815 86.793959 
L 363.04 86.793959 
" style="fill: none; stroke: #000000; stroke-width: 0.8; stroke-linejoin: miter; stroke-linecap: square"/>
   </g>
  </g>
  <g id="axes_7">
   <g id="patch_33">
    <path d="M 229.854815 214.064916 
L 363.04 214.064916 
L 363.04 156.214481 
L 229.854815 156.214481 
z
" style="fill: #ffffff"/>
   </g>
   <g id="matplotlib.axis_13">
    <g id="xtick_31">
     <g id="line2d_70">
      <g>
       <use xlink:href="#m763f000d59" x="229.854815" y="214.064916" style="stroke: #000000; stroke-width: 0.8"/>
      </g>
     </g>
     <g id="text_40">
      <!-- 2.0 -->
      <g transform="translate(222.904815 224.738353) scale(0.1 -0.1)">
       <use xlink:href="#Helvetica-32"/>
       <use xlink:href="#Helvetica-2e" x="55.615234"/>
       <use xlink:href="#Helvetica-30" x="83.398438"/>
      </g>
     </g>
    </g>
    <g id="xtick_32">
     <g id="line2d_71">
      <g>
       <use xlink:href="#m763f000d59" x="263.151111" y="214.064916" style="stroke: #000000; stroke-width: 0.8"/>
      </g>
     </g>
     <g id="text_41">
      <!-- 2.2 -->
      <g transform="translate(256.201111 224.738353) scale(0.1 -0.1)">
       <use xlink:href="#Helvetica-32"/>
       <use xlink:href="#Helvetica-2e" x="55.615234"/>
       <use xlink:href="#Helvetica-32" x="83.398438"/>
      </g>
     </g>
    </g>
    <g id="xtick_33">
     <g id="line2d_72">
      <g>
       <use xlink:href="#m763f000d59" x="296.447407" y="214.064916" style="stroke: #000000; stroke-width: 0.8"/>
      </g>
     </g>
     <g id="text_42">
      <!-- 2.4 -->
      <g transform="translate(289.497407 224.738353) scale(0.1 -0.1)">
       <use xlink:href="#Helvetica-32"/>
       <use xlink:href="#Helvetica-2e" x="55.615234"/>
       <use xlink:href="#Helvetica-34" x="83.398438"/>
      </g>
     </g>
    </g>
    <g id="xtick_34">
     <g id="line2d_73">
      <g>
       <use xlink:href="#m763f000d59" x="329.743704" y="214.064916" style="stroke: #000000; stroke-width: 0.8"/>
      </g>
     </g>
     <g id="text_43">
      <!-- 2.6 -->
      <g transform="translate(322.793704 224.738353) scale(0.1 -0.1)">
       <use xlink:href="#Helvetica-32"/>
       <use xlink:href="#Helvetica-2e" x="55.615234"/>
       <use xlink:href="#Helvetica-36" x="83.398438"/>
      </g>
     </g>
    </g>
    <g id="xtick_35">
     <g id="line2d_74">
      <g>
       <use xlink:href="#m763f000d59" x="363.04" y="214.064916" style="stroke: #000000; stroke-width: 0.8"/>
      </g>
     </g>
     <g id="text_44">
      <!-- 2.8 -->
      <g transform="translate(356.09 224.738353) scale(0.1 -0.1)">
       <use xlink:href="#Helvetica-32"/>
       <use xlink:href="#Helvetica-2e" x="55.615234"/>
       <use xlink:href="#Helvetica-38" x="83.398438"/>
      </g>
     </g>
    </g>
    <g id="text_45">
     <!-- s (m) -->
     <g transform="translate(285.063814 238.069603) scale(0.1 -0.1)">
      <use xlink:href="#Helvetica-73"/>
      <use xlink:href="#Helvetica-20" x="50"/>
      <use xlink:href="#Helvetica-28" x="77.783203"/>
      <use xlink:href="#Helvetica-6d" x="111.083984"/>
      <use xlink:href="#Helvetica-29" x="194.384766"/>
     </g>
    </g>
   </g>
   <g id="matplotlib.axis_14">
    <g id="ytick_19">
     <g id="line2d_75">
      <g>
       <use xlink:href="#m5e45c44e2c" x="229.854815" y="214.064916" style="stroke: #000000; stroke-width: 0.8"/>
      </g>
     </g>
     <g id="text_46">
      <!-- −0.1 -->
      <g transform="translate(206.61419 217.651635) scale(0.1 -0.1)">
       <use xlink:href="#Helvetica-2212"/>
       <use xlink:href="#Helvetica-30" x="58.398438"/>
       <use xlink:href="#Helvetica-2e" x="114.013672"/>
       <use xlink:href="#Helvetica-31" x="141.796875"/>
      </g>
     </g>
    </g>
    <g id="ytick_20">
     <g id="line2d_76">
      <g>
       <use xlink:href="#m5e45c44e2c" x="229.854815" y="185.139698" style="stroke: #000000; stroke-width: 0.8"/>
      </g>
     </g>
     <g id="text_47">
      <!-- 0.0 -->
      <g transform="translate(212.454815 188.726417) scale(0.1 -0.1)">
       <use xlink:href="#Helvetica-30"/>
       <use xlink:href="#Helvetica-2e" x="55.615234"/>
       <use xlink:href="#Helvetica-30" x="83.398438"/>
      </g>
     </g>
    </g>
    <g id="ytick_21">
     <g id="line2d_77">
      <g>
       <use xlink:href="#m5e45c44e2c" x="229.854815" y="156.214481" style="stroke: #000000; stroke-width: 0.8"/>
      </g>
     </g>
     <g id="text_48">
      <!-- 0.1 -->
      <g transform="translate(212.454815 159.8012) scale(0.1 -0.1)">
       <use xlink:href="#Helvetica-30"/>
       <use xlink:href="#Helvetica-2e" x="55.615234"/>
       <use xlink:href="#Helvetica-31" x="83.398438"/>
      </g>
     </g>
    </g>
    <g id="text_49">
     <!-- $\nabla T_{\rm{e}}$ -->
     <g transform="translate(200.529815 193.839698) rotate(-90) scale(0.1 -0.1)">
      <use xlink:href="#DejaVuSans-2207" transform="translate(0 0.09375)"/>
      <use xlink:href="#DejaVuSans-Oblique-54" transform="translate(66.894531 0.09375)"/>
      <use xlink:href="#DejaVuSans-65" transform="translate(127.978516 -16.3125) scale(0.7)"/>
     </g>
    </g>
   </g>
   <g id="line2d_78">
    <path d="M 229.022407 190.924742 
L 230.687222 190.924742 
L 232.352037 190.924742 
L 234.016852 191.069368 
L 235.681667 191.213994 
L 237.346481 191.213994 
L 239.011296 191.35862 
L 240.676111 191.503246 
L 242.340926 191.503246 
L 244.005741 191.647872 
L 245.670556 191.792498 
L 247.33537 191.792498 
L 249.000185 191.937124 
L 250.665 192.081751 
L 252.329815 192.081751 
L 253.99463 192.081751 
L 255.659444 192.226377 
L 257.324259 192.515629 
L 258.989074 192.515629 
L 260.653889 192.660255 
L 262.318704 192.804881 
L 263.983519 192.804881 
L 265.648333 193.094133 
L 267.313148 193.094133 
L 268.977963 193.238759 
L 270.642778 193.383385 
L 272.307593 193.528011 
L 273.972407 193.817264 
L 275.637222 193.817264 
L 277.302037 193.96189 
L 278.966852 194.106516 
L 280.631667 194.251142 
L 282.296481 194.395768 
L 283.961296 194.540394 
L 285.626111 194.829646 
L 287.290926 195.118898 
L 288.955741 195.263524 
L 290.620556 195.263524 
L 292.28537 195.552777 
L 293.950185 195.842029 
L 295.615 195.986655 
L 297.279815 196.131281 
L 298.94463 196.420533 
L 300.609444 196.709785 
L 302.274259 196.854411 
L 303.939074 197.143664 
L 305.603889 197.432916 
L 307.268704 197.722168 
L 308.933519 197.866794 
L 310.598333 198.156046 
L 312.263148 198.589924 
L 313.927963 198.734551 
L 315.592778 199.023803 
L 317.257593 199.457681 
L 318.922407 199.746933 
L 320.587222 200.036185 
L 322.252037 200.325437 
L 323.916852 200.61469 
L 325.581667 200.903942 
L 327.246481 201.33782 
L 328.911296 201.771698 
L 330.576111 201.916324 
L 332.240926 202.205577 
L 333.905741 202.639455 
L 335.570556 202.928707 
L 337.23537 203.362585 
L 338.900185 203.651838 
L 340.565 203.796464 
L 342.229815 204.085716 
L 343.89463 204.519594 
L 345.559444 204.808846 
L 347.224259 204.953472 
L 348.889074 205.242724 
L 350.553889 205.387351 
L 352.218704 205.531977 
L 353.883519 205.821229 
L 355.548333 205.965855 
L 357.213148 206.110481 
L 358.877963 206.255107 
L 360.542778 206.255107 
L 362.207593 206.399733 
L 363.872407 206.399733 
" clip-path="url(#p6f1031f296)" style="fill: none; stroke: #1f77b4; stroke-width: 1.5; stroke-linecap: square"/>
   </g>
   <g id="line2d_79">
    <path d="M 229.022407 191.069368 
L 230.687222 191.069368 
L 232.352037 191.213994 
L 234.016852 191.35862 
L 235.681667 191.35862 
L 237.346481 191.35862 
L 239.011296 191.647872 
L 240.676111 191.647872 
L 242.340926 191.647872 
L 244.005741 191.792498 
L 245.670556 191.937124 
L 247.33537 192.081751 
L 249.000185 192.081751 
L 250.665 192.226377 
L 252.329815 192.371003 
L 253.99463 192.371003 
L 255.659444 192.515629 
L 257.324259 192.660255 
L 258.989074 192.804881 
L 260.653889 192.949507 
L 262.318704 192.949507 
L 263.983519 193.094133 
L 265.648333 193.383385 
L 267.313148 193.383385 
L 268.977963 193.528011 
L 270.642778 193.817264 
L 272.307593 193.817264 
L 273.972407 193.96189 
L 275.637222 194.106516 
L 277.302037 194.251142 
L 278.966852 194.540394 
L 280.631667 194.68502 
L 282.296481 194.829646 
L 283.961296 194.974272 
L 285.626111 195.118898 
L 287.290926 195.408151 
L 288.955741 195.697403 
L 290.620556 195.842029 
L 292.28537 195.986655 
L 293.950185 196.275907 
L 295.615 196.565159 
L 297.279815 196.709785 
L 298.94463 196.854411 
L 300.609444 197.28829 
L 302.274259 197.577542 
L 303.939074 197.722168 
L 305.603889 198.01142 
L 307.268704 198.300672 
L 308.933519 198.589924 
L 310.598333 199.023803 
L 312.263148 199.313055 
L 313.927963 199.602307 
L 315.592778 199.891559 
L 317.257593 200.180811 
L 318.922407 200.61469 
L 320.587222 200.903942 
L 322.252037 201.33782 
L 323.916852 201.771698 
L 325.581667 202.060951 
L 327.246481 202.350203 
L 328.911296 202.784081 
L 330.576111 203.217959 
L 332.240926 203.507211 
L 333.905741 203.796464 
L 335.570556 204.230342 
L 337.23537 204.66422 
L 338.900185 204.953472 
L 340.565 205.387351 
L 342.229815 205.676603 
L 343.89463 205.965855 
L 345.559444 206.399733 
L 347.224259 206.688985 
L 348.889074 206.833611 
L 350.553889 207.122864 
L 352.218704 207.412116 
L 353.883519 207.556742 
L 355.548333 207.845994 
L 357.213148 207.99062 
L 358.877963 207.99062 
L 360.542778 208.135246 
L 362.207593 208.279872 
L 363.872407 208.424498 
" clip-path="url(#p6f1031f296)" style="fill: none; stroke-dasharray: 5.55,2.4; stroke-dashoffset: 0; stroke: #2ca02c; stroke-width: 1.5"/>
   </g>
   <g id="line2d_80">
    <path d="M 229.022407 187.887594 
L 230.687222 187.887594 
L 232.352037 187.742968 
L 234.016852 187.887594 
L 235.681667 188.03222 
L 237.346481 187.887594 
L 239.011296 187.887594 
L 240.676111 188.03222 
L 242.340926 188.03222 
L 244.005741 188.03222 
L 245.670556 188.176846 
L 247.33537 188.176846 
L 249.000185 188.176846 
L 250.665 188.176846 
L 252.329815 188.176846 
L 253.99463 188.321472 
L 255.659444 188.321472 
L 257.324259 188.466098 
L 258.989074 188.466098 
L 260.653889 188.466098 
L 262.318704 188.466098 
L 263.983519 188.466098 
L 265.648333 188.610724 
L 267.313148 188.755351 
L 268.977963 188.755351 
L 270.642778 188.755351 
L 272.307593 188.899977 
L 273.972407 188.899977 
L 275.637222 188.899977 
L 277.302037 188.899977 
L 278.966852 189.044603 
L 280.631667 189.189229 
L 282.296481 189.189229 
L 283.961296 189.333855 
L 285.626111 189.333855 
L 287.290926 189.333855 
L 288.955741 189.478481 
L 290.620556 189.623107 
L 292.28537 189.767733 
L 293.950185 189.767733 
L 295.615 189.912359 
L 297.279815 189.912359 
L 298.94463 190.056985 
L 300.609444 190.201611 
L 302.274259 190.201611 
L 303.939074 190.346237 
L 305.603889 190.490864 
L 307.268704 190.63549 
L 308.933519 190.780116 
L 310.598333 190.924742 
L 312.263148 190.924742 
L 313.927963 191.069368 
L 315.592778 191.35862 
L 317.257593 191.503246 
L 318.922407 191.647872 
L 320.587222 191.792498 
L 322.252037 191.792498 
L 323.916852 191.937124 
L 325.581667 192.226377 
L 327.246481 192.515629 
L 328.911296 192.660255 
L 330.576111 192.660255 
L 332.240926 192.804881 
L 333.905741 193.094133 
L 335.570556 193.383385 
L 337.23537 193.528011 
L 338.900185 193.528011 
L 340.565 193.672637 
L 342.229815 193.96189 
L 343.89463 194.251142 
L 345.559444 194.251142 
L 347.224259 194.395768 
L 348.889074 194.68502 
L 350.553889 194.68502 
L 352.218704 194.829646 
L 353.883519 194.974272 
L 355.548333 195.118898 
L 357.213148 195.118898 
L 358.877963 195.118898 
L 360.542778 195.408151 
L 362.207593 195.408151 
L 363.872407 195.263524 
" clip-path="url(#p6f1031f296)" style="fill: none; stroke: #000000; stroke-width: 1.5; stroke-linecap: square"/>
   </g>
   <g id="LineCollection_7">
    <path d="M 363.04 185.139698 
L 363.04 -1 
" clip-path="url(#p6f1031f296)" style="fill: none; stroke-dasharray: 3.2,0.8,0.5,0.8; stroke-dashoffset: 0; stroke: #000000; stroke-width: 0.5"/>
   </g>
   <g id="patch_34">
    <path d="M 229.854815 214.064916 
L 229.854815 156.214481 
" style="fill: none; stroke: #000000; stroke-width: 0.8; stroke-linejoin: miter; stroke-linecap: square"/>
   </g>
   <g id="patch_35">
    <path d="M 363.04 214.064916 
L 363.04 156.214481 
" style="fill: none; stroke: #000000; stroke-width: 0.8; stroke-linejoin: miter; stroke-linecap: square"/>
   </g>
   <g id="patch_36">
    <path d="M 229.854815 214.064916 
L 363.04 214.064916 
" style="fill: none; stroke: #000000; stroke-width: 0.8; stroke-linejoin: miter; stroke-linecap: square"/>
   </g>
   <g id="patch_37">
    <path d="M 229.854815 156.214481 
L 363.04 156.214481 
" style="fill: none; stroke: #000000; stroke-width: 0.8; stroke-linejoin: miter; stroke-linecap: square"/>
   </g>
  </g>
 </g>
 <defs>
  <clipPath id="pdac44190f3">
   <rect x="39.4" y="17.373437" width="133.185185" height="57.850435"/>
  </clipPath>
  <clipPath id="p611fa56341">
   <rect x="39.4" y="86.793959" width="133.185185" height="57.850435"/>
  </clipPath>
  <clipPath id="p7f370add09">
   <rect x="39.4" y="156.214481" width="133.185185" height="57.850435"/>
  </clipPath>
  <clipPath id="p385ebb98bc">
   <rect x="39.4" y="225.635003" width="133.185185" height="57.850435"/>
  </clipPath>
  <clipPath id="paf3e30c093">
   <rect x="229.854815" y="17.373437" width="133.185185" height="57.850435"/>
  </clipPath>
  <clipPath id="pd460f07cc7">
   <rect x="229.854815" y="86.793959" width="133.185185" height="57.850435"/>
  </clipPath>
  <clipPath id="p6f1031f296">
   <rect x="229.854815" y="156.214481" width="133.185185" height="57.850435"/>
  </clipPath>
 </defs>
</svg>
