<?xml version="1.0" encoding="utf-8" standalone="no"?>
<!DOCTYPE svg PUBLIC "-//W3C//DTD SVG 1.1//EN"
  "http://www.w3.org/Graphics/SVG/1.1/DTD/svg11.dtd">
<svg xmlns:xlink="http://www.w3.org/1999/xlink" width="347.481875pt" height="154.955781pt" viewBox="0 0 347.481875 154.955781" xmlns="http://www.w3.org/2000/svg" version="1.1">
 <metadata>
  <rdf:RDF xmlns:dc="http://purl.org/dc/elements/1.1/" xmlns:cc="http://creativecommons.org/ns#" xmlns:rdf="http://www.w3.org/1999/02/22-rdf-syntax-ns#">
   <cc:Work>
    <dc:type rdf:resource="http://purl.org/dc/dcmitype/StillImage"/>
    <dc:date>2024-11-08T17:51:36.194660</dc:date>
    <dc:format>image/svg+xml</dc:format>
    <dc:creator>
     <cc:Agent>
      <dc:title>Matplotlib v3.7.1, https://matplotlib.org/</dc:title>
     </cc:Agent>
    </dc:creator>
   </cc:Work>
  </rdf:RDF>
 </metadata>
 <defs>
  <style type="text/css">*{stroke-linejoin: round; stroke-linecap: butt}</style>
 </defs>
 <g id="figure_1">
  <g id="patch_1">
   <path d="M 0 154.955781 
L 347.481875 154.955781 
L 347.481875 0 
L 0 0 
z
" style="fill: #ffffff"/>
  </g>
  <g id="axes_1">
   <g id="patch_2">
    <path d="M 44.560938 121.666719 
L 334.720938 121.666719 
L 334.720938 10.786719 
L 44.560938 10.786719 
z
" style="fill: #ffffff"/>
   </g>
   <g id="matplotlib.axis_1">
    <g id="xtick_1">
     <g id="line2d_1">
      <defs>
       <path id="m3170816010" d="M 0 0 
L 0 -3.5 
" style="stroke: #000000; stroke-width: 0.8"/>
      </defs>
      <g>
       <use xlink:href="#m3170816010" x="44.560938" y="121.666719" style="stroke: #000000; stroke-width: 0.8"/>
      </g>
     </g>
     <g id="text_1">
      <!-- 0 -->
      <g transform="translate(41.780469 132.340156) scale(0.1 -0.1)">
       <defs>
        <path id="Helvetica-30" d="M 1731 4475 
Q 2600 4475 2988 3759 
Q 3288 3206 3288 2244 
Q 3288 1331 3016 734 
Q 2622 -122 1728 -122 
Q 922 -122 528 578 
Q 200 1163 200 2147 
Q 200 2909 397 3456 
Q 766 4475 1731 4475 
z
M 1725 391 
Q 2163 391 2422 778 
Q 2681 1166 2681 2222 
Q 2681 2984 2493 3476 
Q 2306 3969 1766 3969 
Q 1269 3969 1039 3501 
Q 809 3034 809 2125 
Q 809 1441 956 1025 
Q 1181 391 1725 391 
z
" transform="scale(0.015625)"/>
       </defs>
       <use xlink:href="#Helvetica-30"/>
      </g>
     </g>
    </g>
    <g id="xtick_2">
     <g id="line2d_2">
      <g>
       <use xlink:href="#m3170816010" x="102.592938" y="121.666719" style="stroke: #000000; stroke-width: 0.8"/>
      </g>
     </g>
     <g id="text_2">
      <!-- 2 -->
      <g transform="translate(99.812469 132.340156) scale(0.1 -0.1)">
       <defs>
        <path id="Helvetica-32" d="M 200 0 
Q 231 578 439 1006 
Q 647 1434 1250 1784 
L 1850 2131 
Q 2253 2366 2416 2531 
Q 2672 2791 2672 3125 
Q 2672 3516 2437 3745 
Q 2203 3975 1813 3975 
Q 1234 3975 1013 3538 
Q 894 3303 881 2888 
L 309 2888 
Q 319 3472 525 3841 
Q 891 4491 1816 4491 
Q 2584 4491 2939 4075 
Q 3294 3659 3294 3150 
Q 3294 2613 2916 2231 
Q 2697 2009 2131 1694 
L 1703 1456 
Q 1397 1288 1222 1134 
Q 909 863 828 531 
L 3272 531 
L 3272 0 
L 200 0 
z
" transform="scale(0.015625)"/>
       </defs>
       <use xlink:href="#Helvetica-32"/>
      </g>
     </g>
    </g>
    <g id="xtick_3">
     <g id="line2d_3">
      <g>
       <use xlink:href="#m3170816010" x="160.624938" y="121.666719" style="stroke: #000000; stroke-width: 0.8"/>
      </g>
     </g>
     <g id="text_3">
      <!-- 4 -->
      <g transform="translate(157.844469 132.340156) scale(0.1 -0.1)">
       <defs>
        <path id="Helvetica-34" d="M 2116 1584 
L 2116 3613 
L 681 1584 
L 2116 1584 
z
M 2125 0 
L 2125 1094 
L 163 1094 
L 163 1644 
L 2213 4488 
L 2688 4488 
L 2688 1584 
L 3347 1584 
L 3347 1094 
L 2688 1094 
L 2688 0 
L 2125 0 
z
" transform="scale(0.015625)"/>
       </defs>
       <use xlink:href="#Helvetica-34"/>
      </g>
     </g>
    </g>
    <g id="xtick_4">
     <g id="line2d_4">
      <g>
       <use xlink:href="#m3170816010" x="218.656938" y="121.666719" style="stroke: #000000; stroke-width: 0.8"/>
      </g>
     </g>
     <g id="text_4">
      <!-- 6 -->
      <g transform="translate(215.876469 132.340156) scale(0.1 -0.1)">
       <defs>
        <path id="Helvetica-36" d="M 1872 4494 
Q 2622 4494 2917 4105 
Q 3213 3716 3213 3303 
L 2656 3303 
Q 2606 3569 2497 3719 
Q 2294 4000 1881 4000 
Q 1409 4000 1131 3564 
Q 853 3128 822 2316 
Q 1016 2600 1309 2741 
Q 1578 2866 1909 2866 
Q 2472 2866 2890 2506 
Q 3309 2147 3309 1434 
Q 3309 825 2912 354 
Q 2516 -116 1781 -116 
Q 1153 -116 697 361 
Q 241 838 241 1966 
Q 241 2800 444 3381 
Q 834 4494 1872 4494 
z
M 1831 384 
Q 2275 384 2495 682 
Q 2716 981 2716 1388 
Q 2716 1731 2519 2042 
Q 2322 2353 1803 2353 
Q 1441 2353 1167 2112 
Q 894 1872 894 1388 
Q 894 963 1142 673 
Q 1391 384 1831 384 
z
" transform="scale(0.015625)"/>
       </defs>
       <use xlink:href="#Helvetica-36"/>
      </g>
     </g>
    </g>
    <g id="xtick_5">
     <g id="line2d_5">
      <g>
       <use xlink:href="#m3170816010" x="276.688938" y="121.666719" style="stroke: #000000; stroke-width: 0.8"/>
      </g>
     </g>
     <g id="text_5">
      <!-- 8 -->
      <g transform="translate(273.908469 132.340156) scale(0.1 -0.1)">
       <defs>
        <path id="Helvetica-38" d="M 1741 2600 
Q 2113 2600 2322 2808 
Q 2531 3016 2531 3303 
Q 2531 3553 2331 3762 
Q 2131 3972 1722 3972 
Q 1316 3972 1134 3762 
Q 953 3553 953 3272 
Q 953 2956 1187 2778 
Q 1422 2600 1741 2600 
z
M 1775 384 
Q 2166 384 2423 595 
Q 2681 806 2681 1225 
Q 2681 1659 2415 1884 
Q 2150 2109 1734 2109 
Q 1331 2109 1076 1879 
Q 822 1650 822 1244 
Q 822 894 1055 639 
Q 1288 384 1775 384 
z
M 975 2384 
Q 741 2484 609 2619 
Q 363 2869 363 3269 
Q 363 3769 725 4128 
Q 1088 4488 1753 4488 
Q 2397 4488 2762 4148 
Q 3128 3809 3128 3356 
Q 3128 2938 2916 2678 
Q 2797 2531 2547 2391 
Q 2825 2263 2984 2097 
Q 3281 1784 3281 1284 
Q 3281 694 2884 283 
Q 2488 -128 1763 -128 
Q 1109 -128 657 226 
Q 206 581 206 1256 
Q 206 1653 400 1942 
Q 594 2231 975 2384 
z
" transform="scale(0.015625)"/>
       </defs>
       <use xlink:href="#Helvetica-38"/>
      </g>
     </g>
    </g>
    <g id="xtick_6">
     <g id="line2d_6">
      <g>
       <use xlink:href="#m3170816010" x="334.720938" y="121.666719" style="stroke: #000000; stroke-width: 0.8"/>
      </g>
     </g>
     <g id="text_6">
      <!-- 10 -->
      <g transform="translate(329.16 132.340156) scale(0.1 -0.1)">
       <defs>
        <path id="Helvetica-31" d="M 613 3169 
L 613 3600 
Q 1222 3659 1462 3798 
Q 1703 3938 1822 4456 
L 2266 4456 
L 2266 0 
L 1666 0 
L 1666 3169 
L 613 3169 
z
" transform="scale(0.015625)"/>
       </defs>
       <use xlink:href="#Helvetica-31"/>
       <use xlink:href="#Helvetica-30" x="55.615234"/>
      </g>
     </g>
    </g>
    <g id="text_7">
     <!-- time (ms) -->
     <g transform="translate(168.812031 145.671406) scale(0.1 -0.1)">
      <defs>
       <path id="Helvetica-74" d="M 525 4281 
L 1094 4281 
L 1094 3347 
L 1628 3347 
L 1628 2888 
L 1094 2888 
L 1094 703 
Q 1094 528 1213 469 
Q 1278 434 1431 434 
Q 1472 434 1519 436 
Q 1566 438 1628 444 
L 1628 0 
Q 1531 -28 1426 -40 
Q 1322 -53 1200 -53 
Q 806 -53 665 148 
Q 525 350 525 672 
L 525 2888 
L 72 2888 
L 72 3347 
L 525 3347 
L 525 4281 
z
" transform="scale(0.015625)"/>
       <path id="Helvetica-69" d="M 413 3331 
L 984 3331 
L 984 0 
L 413 0 
L 413 3331 
z
M 413 4591 
L 984 4591 
L 984 3953 
L 413 3953 
L 413 4591 
z
" transform="scale(0.015625)"/>
       <path id="Helvetica-6d" d="M 413 3347 
L 969 3347 
L 969 2872 
Q 1169 3119 1331 3231 
Q 1609 3422 1963 3422 
Q 2363 3422 2606 3225 
Q 2744 3113 2856 2894 
Q 3044 3163 3297 3292 
Q 3550 3422 3866 3422 
Q 4541 3422 4784 2934 
Q 4916 2672 4916 2228 
L 4916 0 
L 4331 0 
L 4331 2325 
Q 4331 2659 4164 2784 
Q 3997 2909 3756 2909 
Q 3425 2909 3186 2687 
Q 2947 2466 2947 1947 
L 2947 0 
L 2375 0 
L 2375 2184 
Q 2375 2525 2294 2681 
Q 2166 2916 1816 2916 
Q 1497 2916 1236 2669 
Q 975 2422 975 1775 
L 975 0 
L 413 0 
L 413 3347 
z
" transform="scale(0.015625)"/>
       <path id="Helvetica-65" d="M 1806 3422 
Q 2163 3422 2497 3255 
Q 2831 3088 3006 2822 
Q 3175 2569 3231 2231 
Q 3281 2000 3281 1494 
L 828 1494 
Q 844 984 1069 676 
Q 1294 369 1766 369 
Q 2206 369 2469 659 
Q 2619 828 2681 1050 
L 3234 1050 
Q 3213 866 3089 639 
Q 2966 413 2813 269 
Q 2556 19 2178 -69 
Q 1975 -119 1719 -119 
Q 1094 -119 659 336 
Q 225 791 225 1609 
Q 225 2416 662 2919 
Q 1100 3422 1806 3422 
z
M 2703 1941 
Q 2669 2306 2544 2525 
Q 2313 2931 1772 2931 
Q 1384 2931 1121 2651 
Q 859 2372 844 1941 
L 2703 1941 
z
M 1753 3428 
L 1753 3428 
z
" transform="scale(0.015625)"/>
       <path id="Helvetica-20" transform="scale(0.015625)"/>
       <path id="Helvetica-28" d="M 1894 4666 
Q 1403 3713 1256 3263 
Q 1034 2578 1034 1681 
Q 1034 775 1288 25 
Q 1444 -438 1903 -1306 
L 1525 -1306 
Q 1069 -594 959 -397 
Q 850 -200 722 138 
Q 547 600 478 1125 
Q 444 1397 444 1644 
Q 444 2569 734 3291 
Q 919 3750 1503 4666 
L 1894 4666 
z
" transform="scale(0.015625)"/>
       <path id="Helvetica-73" d="M 747 1050 
Q 772 769 888 619 
Q 1100 347 1625 347 
Q 1938 347 2175 483 
Q 2413 619 2413 903 
Q 2413 1119 2222 1231 
Q 2100 1300 1741 1391 
L 1294 1503 
Q 866 1609 663 1741 
Q 300 1969 300 2372 
Q 300 2847 642 3140 
Q 984 3434 1563 3434 
Q 2319 3434 2653 2991 
Q 2863 2709 2856 2384 
L 2325 2384 
Q 2309 2575 2191 2731 
Q 1997 2953 1519 2953 
Q 1200 2953 1036 2831 
Q 872 2709 872 2509 
Q 872 2291 1088 2159 
Q 1213 2081 1456 2022 
L 1828 1931 
Q 2434 1784 2641 1647 
Q 2969 1431 2969 969 
Q 2969 522 2630 197 
Q 2291 -128 1597 -128 
Q 850 -128 539 211 
Q 228 550 206 1050 
L 747 1050 
z
M 1578 3428 
L 1578 3428 
z
" transform="scale(0.015625)"/>
       <path id="Helvetica-29" d="M 222 -1306 
Q 719 -338 863 106 
Q 1081 778 1081 1681 
Q 1081 2584 828 3334 
Q 672 3797 213 4666 
L 591 4666 
Q 1072 3897 1173 3717 
Q 1275 3538 1394 3222 
Q 1544 2831 1608 2450 
Q 1672 2069 1672 1716 
Q 1672 791 1378 66 
Q 1194 -400 613 -1306 
L 222 -1306 
z
" transform="scale(0.015625)"/>
      </defs>
      <use xlink:href="#Helvetica-74"/>
      <use xlink:href="#Helvetica-69" x="27.783203"/>
      <use xlink:href="#Helvetica-6d" x="50"/>
      <use xlink:href="#Helvetica-65" x="133.300781"/>
      <use xlink:href="#Helvetica-20" x="188.916016"/>
      <use xlink:href="#Helvetica-28" x="216.699219"/>
      <use xlink:href="#Helvetica-6d" x="250"/>
      <use xlink:href="#Helvetica-73" x="333.300781"/>
      <use xlink:href="#Helvetica-29" x="383.300781"/>
     </g>
    </g>
   </g>
   <g id="matplotlib.axis_2">
    <g id="ytick_1">
     <g id="line2d_7">
      <defs>
       <path id="me65e7dbdae" d="M 0 0 
L 3.5 0 
" style="stroke: #000000; stroke-width: 0.8"/>
      </defs>
      <g>
       <use xlink:href="#me65e7dbdae" x="44.560938" y="121.666719" style="stroke: #000000; stroke-width: 0.8"/>
      </g>
     </g>
     <g id="text_8">
      <!-- 1.00 -->
      <g transform="translate(21.6 125.253438) scale(0.1 -0.1)">
       <defs>
        <path id="Helvetica-2e" d="M 547 681 
L 1200 681 
L 1200 0 
L 547 0 
L 547 681 
z
" transform="scale(0.015625)"/>
       </defs>
       <use xlink:href="#Helvetica-31"/>
       <use xlink:href="#Helvetica-2e" x="55.615234"/>
       <use xlink:href="#Helvetica-30" x="83.398438"/>
       <use xlink:href="#Helvetica-30" x="139.013672"/>
      </g>
     </g>
    </g>
    <g id="ytick_2">
     <g id="line2d_8">
      <g>
       <use xlink:href="#me65e7dbdae" x="44.560938" y="84.706719" style="stroke: #000000; stroke-width: 0.8"/>
      </g>
     </g>
     <g id="text_9">
      <!-- 1.02 -->
      <g transform="translate(21.6 88.293437) scale(0.1 -0.1)">
       <use xlink:href="#Helvetica-31"/>
       <use xlink:href="#Helvetica-2e" x="55.615234"/>
       <use xlink:href="#Helvetica-30" x="83.398438"/>
       <use xlink:href="#Helvetica-32" x="139.013672"/>
      </g>
     </g>
    </g>
    <g id="ytick_3">
     <g id="line2d_9">
      <g>
       <use xlink:href="#me65e7dbdae" x="44.560938" y="47.746719" style="stroke: #000000; stroke-width: 0.8"/>
      </g>
     </g>
     <g id="text_10">
      <!-- 1.04 -->
      <g transform="translate(21.6 51.333437) scale(0.1 -0.1)">
       <use xlink:href="#Helvetica-31"/>
       <use xlink:href="#Helvetica-2e" x="55.615234"/>
       <use xlink:href="#Helvetica-30" x="83.398438"/>
       <use xlink:href="#Helvetica-34" x="139.013672"/>
      </g>
     </g>
    </g>
    <g id="ytick_4">
     <g id="line2d_10">
      <g>
       <use xlink:href="#me65e7dbdae" x="44.560938" y="10.786719" style="stroke: #000000; stroke-width: 0.8"/>
      </g>
     </g>
     <g id="text_11">
      <!-- 1.06 -->
      <g transform="translate(21.6 14.373437) scale(0.1 -0.1)">
       <use xlink:href="#Helvetica-31"/>
       <use xlink:href="#Helvetica-2e" x="55.615234"/>
       <use xlink:href="#Helvetica-30" x="83.398438"/>
       <use xlink:href="#Helvetica-36" x="139.013672"/>
      </g>
     </g>
    </g>
    <g id="text_12">
     <!-- |$\Gamma_{\rm{p}_{\rm{i}}}$+$\Gamma_{\rm{p}_{\rm{e}}}$|/|$\Gamma_{\rm{mirr}}$| -->
     <g transform="translate(14.5 98.826719) rotate(-90) scale(0.1 -0.1)">
      <defs>
       <path id="Helvetica-7c" d="M 984 0 
L 450 0 
L 450 4656 
L 984 4656 
L 984 0 
z
" transform="scale(0.015625)"/>
       <path id="DejaVuSans-393" d="M 628 0 
L 628 4666 
L 3531 4666 
L 3531 4134 
L 1259 4134 
L 1259 0 
L 628 0 
z
" transform="scale(0.015625)"/>
       <path id="DejaVuSans-70" d="M 1159 525 
L 1159 -1331 
L 581 -1331 
L 581 3500 
L 1159 3500 
L 1159 2969 
Q 1341 3281 1617 3432 
Q 1894 3584 2278 3584 
Q 2916 3584 3314 3078 
Q 3713 2572 3713 1747 
Q 3713 922 3314 415 
Q 2916 -91 2278 -91 
Q 1894 -91 1617 61 
Q 1341 213 1159 525 
z
M 3116 1747 
Q 3116 2381 2855 2742 
Q 2594 3103 2138 3103 
Q 1681 3103 1420 2742 
Q 1159 2381 1159 1747 
Q 1159 1113 1420 752 
Q 1681 391 2138 391 
Q 2594 391 2855 752 
Q 3116 1113 3116 1747 
z
" transform="scale(0.015625)"/>
       <path id="DejaVuSans-69" d="M 603 3500 
L 1178 3500 
L 1178 0 
L 603 0 
L 603 3500 
z
M 603 4863 
L 1178 4863 
L 1178 4134 
L 603 4134 
L 603 4863 
z
" transform="scale(0.015625)"/>
       <path id="Helvetica-2b" d="M 288 1369 
L 288 1894 
L 1650 1894 
L 1650 3266 
L 2184 3266 
L 2184 1894 
L 3547 1894 
L 3547 1369 
L 2184 1369 
L 2184 0 
L 1650 0 
L 1650 1369 
L 288 1369 
z
" transform="scale(0.015625)"/>
       <path id="DejaVuSans-65" d="M 3597 1894 
L 3597 1613 
L 953 1613 
Q 991 1019 1311 708 
Q 1631 397 2203 397 
Q 2534 397 2845 478 
Q 3156 559 3463 722 
L 3463 178 
Q 3153 47 2828 -22 
Q 2503 -91 2169 -91 
Q 1331 -91 842 396 
Q 353 884 353 1716 
Q 353 2575 817 3079 
Q 1281 3584 2069 3584 
Q 2775 3584 3186 3129 
Q 3597 2675 3597 1894 
z
M 3022 2063 
Q 3016 2534 2758 2815 
Q 2500 3097 2075 3097 
Q 1594 3097 1305 2825 
Q 1016 2553 972 2059 
L 3022 2063 
z
" transform="scale(0.015625)"/>
       <path id="Helvetica-2f" d="M 1456 4591 
L 1931 4591 
L 475 0 
L 0 0 
L 1456 4591 
z
" transform="scale(0.015625)"/>
       <path id="DejaVuSans-6d" d="M 3328 2828 
Q 3544 3216 3844 3400 
Q 4144 3584 4550 3584 
Q 5097 3584 5394 3201 
Q 5691 2819 5691 2113 
L 5691 0 
L 5113 0 
L 5113 2094 
Q 5113 2597 4934 2840 
Q 4756 3084 4391 3084 
Q 3944 3084 3684 2787 
Q 3425 2491 3425 1978 
L 3425 0 
L 2847 0 
L 2847 2094 
Q 2847 2600 2669 2842 
Q 2491 3084 2119 3084 
Q 1678 3084 1418 2786 
Q 1159 2488 1159 1978 
L 1159 0 
L 581 0 
L 581 3500 
L 1159 3500 
L 1159 2956 
Q 1356 3278 1631 3431 
Q 1906 3584 2284 3584 
Q 2666 3584 2933 3390 
Q 3200 3197 3328 2828 
z
" transform="scale(0.015625)"/>
       <path id="DejaVuSans-72" d="M 2631 2963 
Q 2534 3019 2420 3045 
Q 2306 3072 2169 3072 
Q 1681 3072 1420 2755 
Q 1159 2438 1159 1844 
L 1159 0 
L 581 0 
L 581 3500 
L 1159 3500 
L 1159 2956 
Q 1341 3275 1631 3429 
Q 1922 3584 2338 3584 
Q 2397 3584 2469 3576 
Q 2541 3569 2628 3553 
L 2631 2963 
z
" transform="scale(0.015625)"/>
      </defs>
      <use xlink:href="#Helvetica-7c" transform="translate(0 0.09375)"/>
      <use xlink:href="#DejaVuSans-393" transform="translate(25.976562 0.09375)"/>
      <use xlink:href="#DejaVuSans-70" transform="translate(82.646484 -16.3125) scale(0.7)"/>
      <use xlink:href="#DejaVuSans-69" transform="translate(127.75 -27.796875) scale(0.49)"/>
      <use xlink:href="#Helvetica-2b" transform="translate(146.012207 0.09375)"/>
      <use xlink:href="#DejaVuSans-393" transform="translate(204.410645 0.09375)"/>
      <use xlink:href="#DejaVuSans-70" transform="translate(261.080566 -16.3125) scale(0.7)"/>
      <use xlink:href="#DejaVuSans-65" transform="translate(306.184082 -27.796875) scale(0.49)"/>
      <use xlink:href="#Helvetica-7c" transform="translate(340.979004 0.09375)"/>
      <use xlink:href="#Helvetica-2f" transform="translate(366.955566 0.09375)"/>
      <use xlink:href="#Helvetica-7c" transform="translate(394.73877 0.09375)"/>
      <use xlink:href="#DejaVuSans-393" transform="translate(420.715332 0.09375)"/>
      <use xlink:href="#DejaVuSans-6d" transform="translate(477.385254 -16.3125) scale(0.7)"/>
      <use xlink:href="#DejaVuSans-69" transform="translate(545.57373 -16.3125) scale(0.7)"/>
      <use xlink:href="#DejaVuSans-72" transform="translate(565.021973 -16.3125) scale(0.7)"/>
      <use xlink:href="#DejaVuSans-72" transform="translate(593.80127 -16.3125) scale(0.7)"/>
      <use xlink:href="#Helvetica-7c" transform="translate(625.314941 0.09375)"/>
     </g>
    </g>
   </g>
   <g id="line2d_11">
    <path d="M 44.589954 111.359711 
L 44.923637 103.134737 
L 45.039701 103.515791 
L 45.257322 103.855809 
L 45.300846 102.968115 
L 45.431418 99.284231 
L 45.474941 99.74009 
L 45.750594 105.308019 
L 45.837642 104.764043 
L 45.982722 103.866082 
L 46.026246 103.920273 
L 46.200342 104.161516 
L 46.229357 104.135255 
L 47.070822 102.734724 
L 47.143362 102.8726 
L 47.317458 103.90408 
L 47.404505 104.26639 
L 47.44803 104.170086 
L 47.564093 89.336052 
L 47.709174 87.929031 
L 47.73819 87.965469 
L 47.825238 88.143051 
L 47.868762 88.029792 
L 48.071874 86.498437 
L 48.144413 86.113827 
L 48.17343 86.316448 
L 48.31851 90.032825 
L 48.39105 89.292333 
L 48.68121 83.41972 
L 48.75375 83.82047 
L 48.985878 84.954189 
L 49.145466 85.347938 
L 49.18899 85.292751 
L 49.305053 84.550549 
L 49.580706 83.15564 
L 49.711278 83.058176 
L 49.754801 83.137145 
L 49.928898 83.849086 
L 49.98693 83.645781 
L 50.117502 81.446933 
L 50.291598 78.402938 
L 50.335121 78.80913 
L 50.56725 82.702839 
L 50.63979 82.399711 
L 50.755854 81.964533 
L 50.799378 82.05417 
L 50.915442 82.311274 
L 50.958966 82.199394 
L 51.089538 80.966756 
L 51.365189 78.928668 
L 52.047066 75.515369 
L 52.119606 75.835042 
L 52.351734 77.456387 
L 52.395257 77.36265 
L 53.10615 74.445851 
L 53.410818 72.113237 
L 53.599422 71.79711 
L 53.700978 71.593025 
L 53.744502 71.683659 
L 53.962122 72.949429 
L 54.092694 73.436326 
L 54.136218 73.372941 
L 54.440886 72.333045 
L 54.62949 70.948298 
L 54.890634 69.400565 
L 55.195301 67.895458 
L 55.267842 68.10433 
L 55.543494 69.318496 
L 55.587018 69.271141 
L 55.746606 68.85722 
L 55.819146 68.98426 
L 55.949718 69.245258 
L 55.993242 69.17078 
L 56.094798 68.471843 
L 56.384957 66.412661 
L 56.472006 66.202414 
L 56.631594 64.890454 
L 56.776674 64.090347 
L 56.805689 64.144037 
L 57.066834 65.149258 
L 57.153882 64.985234 
L 57.24093 64.865854 
L 57.269946 64.913627 
L 57.415026 65.683814 
L 57.516582 66.03307 
L 57.560106 65.971295 
L 57.67617 65.177836 
L 57.922806 63.890562 
L 58.009854 63.707824 
L 58.140426 62.59797 
L 58.372554 60.799143 
L 58.387062 60.812303 
L 58.488618 61.180907 
L 58.633698 61.60643 
L 58.677222 61.560387 
L 58.793286 61.401322 
L 58.83681 61.457555 
L 58.967382 62.090407 
L 59.12697 62.841757 
L 59.170494 62.76362 
L 59.70729 60.31562 
L 59.99745 58.199953 
L 60.084498 58.286602 
L 60.171546 58.369734 
L 60.21507 58.315268 
L 60.36015 58.021096 
L 60.418182 58.110159 
L 60.57777 58.926801 
L 60.737358 59.607072 
L 60.780882 59.542628 
L 61.056534 59.03495 
L 61.071042 59.041127 
L 61.201614 59.001226 
L 61.30317 58.433392 
L 61.665869 56.138176 
L 61.854474 55.725275 
L 61.999554 55.328639 
L 62.043078 55.383209 
L 62.159142 56.056642 
L 62.82651 63.322854 
L 63.015114 69.905543 
L 63.087654 69.11834 
L 63.33429 66.048333 
L 63.363306 66.078863 
L 63.47937 66.700647 
L 63.900102 70.558127 
L 64.654517 80.887395 
L 64.988202 84.380508 
L 65.017218 84.355204 
L 65.104265 83.877121 
L 65.350902 81.921402 
L 65.408934 82.04178 
L 65.684585 83.610135 
L 65.72811 83.091576 
L 65.87319 79.523874 
L 65.931222 80.217305 
L 66.322938 86.597075 
L 66.337446 86.590703 
L 66.453509 86.496107 
L 66.497034 86.584739 
L 66.729162 87.306052 
L 66.787194 87.216096 
L 67.643166 84.855946 
L 67.672182 84.872586 
L 67.773738 85.107961 
L 67.947834 86.298525 
L 68.310534 89.9353 
L 68.383074 89.777771 
L 68.803806 88.583824 
L 69.079458 88.280824 
L 69.093966 88.293201 
L 69.224537 88.575926 
L 69.775842 90.894165 
L 70.22559 92.744466 
L 70.414194 92.765411 
L 70.544766 92.384989 
L 70.791402 91.765027 
L 70.80591 91.771049 
L 71.24115 92.161458 
L 71.473278 93.495854 
L 71.763438 94.534692 
L 72.11163 95.024586 
L 72.227694 94.896967 
L 72.837029 93.813368 
L 72.866046 93.833877 
L 72.996618 94.126615 
L 73.809066 96.668029 
L 73.823574 96.662135 
L 74.055701 96.417987 
L 74.563482 95.954052 
L 74.72307 96.153212 
L 75.143802 97.259617 
L 75.59355 98.190904 
L 75.767646 98.172772 
L 76.10133 97.732765 
L 76.376981 97.563078 
L 76.551078 97.693816 
L 76.812222 98.242203 
L 77.276477 99.173814 
L 77.523114 99.274567 
L 77.740734 99.081552 
L 78.103434 98.806984 
L 78.292038 98.913358 
L 78.582198 99.438786 
L 79.07547 100.224359 
L 79.307598 100.249253 
L 80.149062 100.054986 
L 80.584302 100.694042 
L 80.96151 101.076669 
L 81.222654 101.028606 
L 81.817482 100.834958 
L 82.078626 101.075575 
L 82.760502 101.799524 
L 83.06517 101.729669 
L 83.57295 101.590805 
L 83.86311 101.794884 
L 84.574002 102.371616 
L 84.95121 102.302624 
L 85.400958 102.264053 
L 85.74915 102.510973 
L 86.343978 102.921233 
L 86.721186 102.86013 
L 87.185442 102.821101 
L 87.577158 103.067899 
L 88.113954 103.364864 
L 88.57821 103.313306 
L 89.01345 103.34237 
L 89.622786 103.701945 
L 90.058026 103.797435 
L 90.957522 103.843474 
L 91.84251 104.167514 
L 92.71299 104.231671 
L 93.626994 104.517317 
L 94.511982 104.593776 
L 95.425986 104.835333 
L 96.281958 104.925815 
L 97.181454 105.137681 
L 98.066442 105.235297 
L 98.980446 105.418485 
L 99.865434 105.534974 
L 100.750422 105.68815 
L 101.649918 105.809514 
L 102.549414 105.942657 
L 103.463418 106.080976 
L 104.377422 106.190007 
L 105.320442 106.342962 
L 106.408542 106.449089 
L 114.881214 107.461337 
L 127.778826 108.672205 
L 153.806178 110.22798 
L 169.619898 110.792809 
L 187.363182 111.209183 
L 213.216438 111.55405 
L 246.35271 111.741659 
L 298.72659 111.793991 
L 334.720938 111.77653 
L 334.720938 111.77653 
" clip-path="url(#pcc9f6ac2f5)" style="fill: none; stroke: #1f77b4; stroke-width: 1.5; stroke-linecap: square"/>
   </g>
   <g id="line2d_12">
    <path d="M 44.589954 109.368883 
L 44.865606 77.887715 
L 44.938146 76.713142 
L 44.996178 76.893215 
L 45.039701 76.969787 
L 45.083226 76.892332 
L 45.213797 75.943793 
L 45.286338 74.212328 
L 45.445926 61.787754 
L 45.503957 62.865673 
L 45.750594 71.101949 
L 45.808626 70.787248 
L 46.011738 68.523581 
L 46.069769 68.796754 
L 46.200342 69.593409 
L 46.243865 69.479274 
L 46.374437 67.977601 
L 46.708122 64.726508 
L 46.882218 64.222915 
L 47.143362 62.545786 
L 47.215902 62.835855 
L 47.462538 65.22481 
L 47.491554 64.305495 
L 47.767206 59.555706 
L 48.158922 56.470748 
L 48.187938 56.954383 
L 48.31851 60.40332 
L 48.362034 60.048234 
L 48.68121 53.442631 
L 48.797274 53.787949 
L 48.840798 53.85547 
L 48.884321 53.707388 
L 49.101942 51.752503 
L 49.18899 52.186387 
L 49.363086 53.363911 
L 49.40661 53.302076 
L 49.537182 52.396215 
L 49.798326 50.988021 
L 49.957914 50.858582 
L 50.05947 49.961774 
L 50.248074 45.423594 
L 50.42217 42.51819 
L 50.451186 42.639417 
L 50.683314 44.911804 
L 50.770361 44.40087 
L 51.075029 42.534499 
L 51.263634 42.072645 
L 51.423222 40.670168 
L 51.858462 36.466399 
L 52.01805 34.247235 
L 52.23567 31.249011 
L 52.264686 31.290936 
L 52.38075 32.227551 
L 52.52583 33.003755 
L 52.554845 32.969539 
L 52.685417 32.347397 
L 53.019102 31.099089 
L 53.280246 30.039427 
L 53.497866 27.404127 
L 53.773518 24.936564 
L 54.107202 24.456407 
L 54.136218 24.49205 
L 54.252282 25.006533 
L 54.513426 26.418411 
L 54.55695 26.377952 
L 54.70203 25.781332 
L 54.963174 25.028303 
L 55.093746 24.604971 
L 55.485461 22.52634 
L 55.558002 22.655608 
L 55.732098 23.599301 
L 56.167338 27.522519 
L 56.602578 30.854568 
L 56.921754 31.700322 
L 57.153882 31.827092 
L 57.298962 32.003428 
L 57.473058 32.670081 
L 57.734202 34.694927 
L 58.300014 39.317657 
L 58.590174 40.066999 
L 58.706238 40.024445 
L 58.967382 39.492541 
L 59.243034 39.199234 
L 59.373606 39.302108 
L 59.533194 39.774822 
L 59.85237 41.680151 
L 60.229578 43.377753 
L 60.534246 43.881689 
L 60.679326 43.813013 
L 61.288662 43.26004 
L 61.44825 43.479989 
L 61.694886 44.349627 
L 62.231682 47.128862 
L 62.53635 52.693714 
L 62.957082 62.622787 
L 63.203718 73.336258 
L 63.537402 75.378603 
L 65.234837 98.74081 
L 65.292869 98.657492 
L 65.466966 97.642367 
L 65.699094 96.668883 
L 65.771634 96.669226 
L 65.786142 96.597736 
L 65.858682 94.925837 
L 66.01827 91.752235 
L 66.047286 91.835645 
L 66.192366 93.424854 
L 66.424494 94.899931 
L 66.497034 94.872982 
L 66.511542 94.847814 
L 66.642114 94.651249 
L 66.685638 94.701911 
L 66.96129 95.021679 
L 66.975797 95.011418 
L 67.222434 94.941858 
L 67.440054 95.09817 
L 67.454562 95.082769 
L 67.599642 94.711092 
L 67.860786 93.278223 
L 68.12193 91.718765 
L 68.165454 91.775735 
L 68.310534 92.52919 
L 68.673234 94.441338 
L 69.239046 95.0326 
L 69.442158 95.26407 
L 70.327146 96.804377 
L 70.965498 98.473074 
L 71.139594 98.454848 
L 71.74893 97.83445 
L 71.923026 97.779067 
L 72.082614 98.086998 
L 72.561378 99.094219 
L 72.967602 99.478457 
L 73.27227 99.366851 
L 73.92513 99.134028 
L 74.244306 99.609203 
L 74.79561 100.467812 
L 75.100278 100.49628 
L 75.66609 100.507402 
L 76.072314 100.81859 
L 77.015333 101.598092 
L 77.711718 101.548649 
L 78.117942 101.922732 
L 78.669246 102.332632 
L 79.046454 102.320621 
L 79.51071 102.343171 
L 79.960458 102.660842 
L 80.569794 103.051901 
L 81.10659 103.051582 
L 81.556338 103.148485 
L 82.833042 103.639881 
L 83.398854 103.715438 
L 84.646542 104.154305 
L 85.328418 104.265021 
L 86.460042 104.600255 
L 87.257981 104.740863 
L 88.244526 105.003808 
L 89.115005 105.146917 
L 90.087042 105.360822 
L 91.073586 105.531637 
L 91.973082 105.673245 
L 93.090198 105.827115 
L 93.902646 105.839796 
L 95.440494 105.63372 
L 97.805298 104.798546 
L 98.51619 104.839917 
L 99.807402 105.169688 
L 101.20017 105.515235 
L 106.27797 106.443936 
L 117.782814 108.080128 
L 128.417178 109.112886 
L 137.267058 109.749364 
L 149.932542 110.414433 
L 164.919306 110.946936 
L 182.981765 111.350252 
L 206.38317 111.635899 
L 239.766078 111.795889 
L 294.461238 111.812898 
L 334.720938 111.779313 
L 334.720938 111.779313 
" clip-path="url(#pcc9f6ac2f5)" style="fill: none; stroke-dasharray: 5.55,2.4; stroke-dashoffset: 0; stroke: #2ca02c; stroke-width: 1.5"/>
   </g>
   <g id="LineCollection_1">
    <path d="M 44.560938 111.780727 
L 348.481875 111.780727 
" clip-path="url(#pcc9f6ac2f5)" style="fill: none; stroke-dasharray: 3.2,0.8,0.5,0.8; stroke-dashoffset: 0; stroke: #000000; stroke-width: 0.5"/>
   </g>
   <g id="LineCollection_2">
    <path d="M 61.970538 155.955781 
L 61.970538 -1 
" clip-path="url(#pcc9f6ac2f5)" style="fill: none; stroke-dasharray: 3.2,0.8,0.5,0.8; stroke-dashoffset: 0; stroke: #000000; stroke-width: 0.5"/>
   </g>
   <g id="patch_3">
    <path d="M 44.560938 121.666719 
L 44.560938 10.786719 
" style="fill: none; stroke: #000000; stroke-width: 0.8; stroke-linejoin: miter; stroke-linecap: square"/>
   </g>
   <g id="patch_4">
    <path d="M 334.720938 121.666719 
L 334.720938 10.786719 
" style="fill: none; stroke: #000000; stroke-width: 0.8; stroke-linejoin: miter; stroke-linecap: square"/>
   </g>
   <g id="patch_5">
    <path d="M 44.560938 121.666719 
L 334.720938 121.666719 
" style="fill: none; stroke: #000000; stroke-width: 0.8; stroke-linejoin: miter; stroke-linecap: square"/>
   </g>
   <g id="patch_6">
    <path d="M 44.560938 10.786719 
L 334.720938 10.786719 
" style="fill: none; stroke: #000000; stroke-width: 0.8; stroke-linejoin: miter; stroke-linecap: square"/>
   </g>
   <g id="legend_1">
    <g id="patch_7">
     <path d="M 249.820938 47.586719 
L 327.720937 47.586719 
Q 329.720937 47.586719 329.720937 45.586719 
L 329.720937 17.786719 
Q 329.720937 15.786719 327.720937 15.786719 
L 249.820938 15.786719 
Q 247.820938 15.786719 247.820938 17.786719 
L 247.820938 45.586719 
Q 247.820938 47.586719 249.820938 47.586719 
z
" style="fill: #ffffff; opacity: 0.8; stroke: #cccccc; stroke-linejoin: miter"/>
    </g>
    <g id="line2d_13">
     <path d="M 251.820938 23.586719 
L 261.820938 23.586719 
L 271.820938 23.586719 
" style="fill: none; stroke: #1f77b4; stroke-width: 1.5; stroke-linecap: square"/>
    </g>
    <g id="text_13">
     <!-- (cx$_{\rm{off}}$,iz$_{\rm{off}}$) -->
     <g transform="translate(279.820938 27.086719) scale(0.1 -0.1)">
      <defs>
       <path id="Helvetica-63" d="M 1703 3444 
Q 2269 3444 2623 3169 
Q 2978 2894 3050 2222 
L 2503 2222 
Q 2453 2531 2275 2736 
Q 2097 2941 1703 2941 
Q 1166 2941 934 2416 
Q 784 2075 784 1575 
Q 784 1072 996 728 
Q 1209 384 1666 384 
Q 2016 384 2220 598 
Q 2425 813 2503 1184 
L 3050 1184 
Q 2956 519 2581 211 
Q 2206 -97 1622 -97 
Q 966 -97 575 383 
Q 184 863 184 1581 
Q 184 2463 612 2953 
Q 1041 3444 1703 3444 
z
M 1616 3428 
L 1616 3428 
z
" transform="scale(0.015625)"/>
       <path id="Helvetica-78" d="M 94 3347 
L 822 3347 
L 1591 2169 
L 2369 3347 
L 3053 3331 
L 1925 1716 
L 3103 0 
L 2384 0 
L 1553 1256 
L 747 0 
L 34 0 
L 1213 1716 
L 94 3347 
z
" transform="scale(0.015625)"/>
       <path id="DejaVuSans-6f" d="M 1959 3097 
Q 1497 3097 1228 2736 
Q 959 2375 959 1747 
Q 959 1119 1226 758 
Q 1494 397 1959 397 
Q 2419 397 2687 759 
Q 2956 1122 2956 1747 
Q 2956 2369 2687 2733 
Q 2419 3097 1959 3097 
z
M 1959 3584 
Q 2709 3584 3137 3096 
Q 3566 2609 3566 1747 
Q 3566 888 3137 398 
Q 2709 -91 1959 -91 
Q 1206 -91 779 398 
Q 353 888 353 1747 
Q 353 2609 779 3096 
Q 1206 3584 1959 3584 
z
" transform="scale(0.015625)"/>
       <path id="DejaVuSans-66" d="M 2375 4863 
L 2375 4384 
L 1825 4384 
Q 1516 4384 1395 4259 
Q 1275 4134 1275 3809 
L 1275 3500 
L 2222 3500 
L 2222 3053 
L 1275 3053 
L 1275 0 
L 697 0 
L 697 3053 
L 147 3053 
L 147 3500 
L 697 3500 
L 697 3744 
Q 697 4328 969 4595 
Q 1241 4863 1831 4863 
L 2375 4863 
z
" transform="scale(0.015625)"/>
       <path id="Helvetica-2c" d="M 531 -653 
Q 747 -616 834 -350 
Q 881 -209 881 -78 
Q 881 -56 879 -39 
Q 878 -22 872 0 
L 531 0 
L 531 681 
L 1200 681 
L 1200 50 
Q 1200 -322 1050 -603 
Q 900 -884 531 -950 
L 531 -653 
z
" transform="scale(0.015625)"/>
       <path id="Helvetica-7a" d="M 163 444 
L 2147 2844 
L 309 2844 
L 309 3347 
L 2903 3347 
L 2903 2888 
L 931 503 
L 2963 503 
L 2963 0 
L 163 0 
L 163 444 
z
M 1609 3428 
L 1609 3428 
z
" transform="scale(0.015625)"/>
      </defs>
      <use xlink:href="#Helvetica-28" transform="translate(0 0.09375)"/>
      <use xlink:href="#Helvetica-63" transform="translate(33.300781 0.09375)"/>
      <use xlink:href="#Helvetica-78" transform="translate(83.300781 0.09375)"/>
      <use xlink:href="#DejaVuSans-6f" transform="translate(134.257812 -16.3125) scale(0.7)"/>
      <use xlink:href="#DejaVuSans-66" transform="translate(177.084961 -16.3125) scale(0.7)"/>
      <use xlink:href="#DejaVuSans-66" transform="translate(201.728516 -16.3125) scale(0.7)"/>
      <use xlink:href="#Helvetica-2c" transform="translate(229.106445 0.09375)"/>
      <use xlink:href="#Helvetica-69" transform="translate(256.889648 0.09375)"/>
      <use xlink:href="#Helvetica-7a" transform="translate(279.106445 0.09375)"/>
      <use xlink:href="#DejaVuSans-6f" transform="translate(330.063477 -16.3125) scale(0.7)"/>
      <use xlink:href="#DejaVuSans-66" transform="translate(372.890625 -16.3125) scale(0.7)"/>
      <use xlink:href="#DejaVuSans-66" transform="translate(397.53418 -16.3125) scale(0.7)"/>
      <use xlink:href="#Helvetica-29" transform="translate(424.912109 0.09375)"/>
     </g>
    </g>
    <g id="line2d_14">
     <path d="M 251.820938 37.986719 
L 261.820938 37.986719 
L 271.820938 37.986719 
" style="fill: none; stroke-dasharray: 5.55,2.4; stroke-dashoffset: 0; stroke: #2ca02c; stroke-width: 1.5"/>
    </g>
    <g id="text_14">
     <!-- (cx$_{\rm{on}}$,iz$_{\rm{off}}$) -->
     <g transform="translate(279.820938 41.486719) scale(0.1 -0.1)">
      <defs>
       <path id="DejaVuSans-6e" d="M 3513 2113 
L 3513 0 
L 2938 0 
L 2938 2094 
Q 2938 2591 2744 2837 
Q 2550 3084 2163 3084 
Q 1697 3084 1428 2787 
Q 1159 2491 1159 1978 
L 1159 0 
L 581 0 
L 581 3500 
L 1159 3500 
L 1159 2956 
Q 1366 3272 1645 3428 
Q 1925 3584 2291 3584 
Q 2894 3584 3203 3211 
Q 3513 2838 3513 2113 
z
" transform="scale(0.015625)"/>
      </defs>
      <use xlink:href="#Helvetica-28" transform="translate(0 0.09375)"/>
      <use xlink:href="#Helvetica-63" transform="translate(33.300781 0.09375)"/>
      <use xlink:href="#Helvetica-78" transform="translate(83.300781 0.09375)"/>
      <use xlink:href="#DejaVuSans-6f" transform="translate(134.257812 -16.3125) scale(0.7)"/>
      <use xlink:href="#DejaVuSans-6e" transform="translate(177.084961 -16.3125) scale(0.7)"/>
      <use xlink:href="#Helvetica-2c" transform="translate(224.18457 0.09375)"/>
      <use xlink:href="#Helvetica-69" transform="translate(251.967773 0.09375)"/>
      <use xlink:href="#Helvetica-7a" transform="translate(274.18457 0.09375)"/>
      <use xlink:href="#DejaVuSans-6f" transform="translate(325.141602 -16.3125) scale(0.7)"/>
      <use xlink:href="#DejaVuSans-66" transform="translate(367.96875 -16.3125) scale(0.7)"/>
      <use xlink:href="#DejaVuSans-66" transform="translate(392.612305 -16.3125) scale(0.7)"/>
      <use xlink:href="#Helvetica-29" transform="translate(419.990234 0.09375)"/>
     </g>
    </g>
   </g>
  </g>
 </g>
 <defs>
  <clipPath id="pcc9f6ac2f5">
   <rect x="44.560938" y="10.786719" width="290.16" height="110.88"/>
  </clipPath>
 </defs>
</svg>
